<svg  viewBox="0 0 286 286" fill="none" xmlns="http://www.w3.org/2000/svg">
<path d="M252.65 211.18C148.33 152.22 143.33 153.41 76.67 252.98C135.64 148.66 134.45 143.67 34.88 77.0099C139.19 135.97 144.19 134.79 210.85 35.2098C151.88 139.53 153.07 144.52 252.65 211.18Z" stroke="#E8EAE7" stroke-width="2.33068" stroke-miterlimit="10"/>
<mask id="mask0_1_2" style="mask-type:luminance" maskUnits="userSpaceOnUse" x="0" y="0" width="286" height="286">
<path d="M285.529 109.511L109.181 0.839844L0.52854 177.218L176.876 285.889L285.529 109.511Z" fill="white"/>
</mask>
<g mask="url(#mask0_1_2)">
<path d="M231.14 197.66C146.725 149.94 142.685 150.9 88.7448 231.49C136.457 147.06 135.497 143.01 54.9207 89.0599C139.336 136.79 143.375 135.83 197.316 55.2299C149.604 139.66 150.564 143.71 231.14 197.66Z" stroke="#E8EAE7" stroke-width="2.33068" stroke-miterlimit="10"/>
</g>
</svg>
