<svg  viewBox="0 0 1819 354" fill="none" xmlns="http://www.w3.org/2000/svg">
<path d="M109.56 287.08H43.2339V283.418C46.8637 283.418 49.8005 283.055 52.0443 282.329C54.2882 281.537 56.0371 280.514 57.291 279.26C58.6109 278.006 59.5018 276.554 59.9638 274.904C60.4258 273.254 60.6568 271.505 60.6568 269.658V152.845H48.0846C44.5868 152.845 40.8911 153.142 36.9973 153.736C33.1696 154.264 29.3418 155.353 25.5141 157.003C21.6864 158.587 17.9906 160.798 14.4268 163.636C10.8631 166.473 7.62928 170.169 4.72548 174.723L0.666748 174.129C2.44863 171.357 3.80154 168.321 4.72548 165.022C5.71541 161.656 6.47436 158.488 7.00233 155.518C7.53029 152.086 7.86027 148.622 7.99226 145.124H145.989C145.065 146.972 144.339 148.886 143.811 150.865C143.283 152.845 142.854 154.825 142.524 156.805C142.194 158.719 141.963 160.567 141.831 162.349C141.765 164.065 141.732 165.582 141.732 166.902C141.732 167.628 141.732 168.288 141.732 168.882C141.732 169.41 141.765 169.872 141.831 170.268C141.897 170.73 141.963 171.159 142.029 171.555L138.367 172.149C138.103 169.179 137.245 166.638 135.793 164.527C134.407 162.415 132.658 160.666 130.546 159.28C128.5 157.828 126.223 156.673 123.716 155.815C121.208 154.957 118.733 154.33 116.291 153.934C113.915 153.472 111.671 153.175 109.56 153.043C107.448 152.911 105.765 152.845 104.511 152.845H92.1367V269.658C92.1367 270.977 92.3347 272.429 92.7306 274.013C93.1266 275.597 93.9515 277.082 95.2055 278.468C96.4594 279.854 98.2083 281.042 100.452 282.032C102.762 282.956 105.798 283.418 109.56 283.418V287.08Z" fill="#F4CE83"/>
<path d="M314.971 281.834C308.965 284.276 303.488 285.925 298.538 286.783C293.588 287.641 289.134 288.07 285.174 288.07C282.006 288.07 279.267 287.872 276.957 287.476C274.648 287.146 272.668 286.717 271.018 286.189C269.104 285.596 267.454 284.936 266.068 284.21C263.164 282.56 260.623 280.415 258.446 277.775C256.268 275.135 254.288 272.297 252.506 269.262C250.79 266.226 249.239 263.091 247.853 259.857C246.467 256.623 245.115 253.588 243.795 250.75L241.32 245.503C234.654 247.417 228.418 249.628 222.61 252.136C216.868 254.578 211.754 257.019 207.266 259.461C202.778 261.837 198.984 264.048 195.882 266.094C192.846 268.074 190.701 269.526 189.447 270.45C187.005 273.155 184.267 275.564 181.231 277.676C178.195 279.788 174.796 281.603 171.034 283.121C167.273 284.573 163.082 285.695 158.462 286.486C153.843 287.278 148.761 287.674 143.217 287.674L142.227 283.418C148.629 282.362 154.14 280.316 158.759 277.28C163.445 274.244 167.471 270.516 170.836 266.094C174.202 261.606 177.073 256.59 179.449 251.047C181.825 245.437 183.937 239.531 185.784 233.327C186.84 229.763 188.226 226.001 189.942 222.042C191.724 218.082 193.836 214.254 196.278 210.558C198.786 206.797 201.623 203.299 204.791 200.065C208.025 196.765 211.688 193.994 215.779 191.75C214.658 189.638 213.536 187.493 212.414 185.315C211.358 183.071 210.335 180.827 209.345 178.584C207.959 175.944 206.573 173.04 205.187 169.872C203.801 166.638 202.151 163.669 200.237 160.963C198.39 158.191 196.179 155.881 193.605 154.033C191.097 152.185 187.962 151.261 184.201 151.261C181.561 151.261 178.954 151.558 176.38 152.152C173.872 152.746 171.463 153.472 169.154 154.33L167.768 150.271C173.509 148.358 179.317 146.741 185.19 145.421C191.13 144.035 197.004 143.342 202.811 143.342C205.583 143.342 208.322 143.54 211.028 143.936C213.734 144.266 216.34 144.893 218.848 145.817C221.026 146.609 223.138 147.929 225.184 149.777C227.23 151.558 229.177 153.703 231.024 156.211C232.872 158.653 234.588 161.293 236.172 164.131C237.822 166.968 239.34 169.806 240.726 172.644C242.178 175.482 243.465 178.188 244.587 180.761C245.774 183.269 246.797 185.447 247.655 187.295C253.463 199.768 259.238 212.274 264.979 224.814C270.721 237.287 276.891 249.595 283.491 261.738C284.679 263.916 285.933 266.061 287.253 268.173C288.639 270.285 290.157 272.165 291.806 273.815C293.522 275.465 295.403 276.785 297.449 277.775C299.495 278.765 301.805 279.227 304.379 279.161C305.303 279.161 306.556 279.062 308.14 278.864C309.79 278.666 311.572 278.171 313.486 277.379L314.971 281.834ZM221.323 203.134C219.607 205.906 218.023 208.777 216.571 211.746C215.185 214.716 213.899 217.752 212.711 220.854C211.523 223.89 210.434 226.925 209.444 229.961C208.454 232.997 207.464 235.901 206.474 238.673C205.484 241.708 204.395 244.678 203.207 247.582C202.085 250.42 200.798 253.192 199.347 255.897C204.296 252.994 210.104 249.958 216.769 246.79C223.435 243.622 230.562 240.916 238.152 238.673L221.323 203.134Z" fill="#F4CE83"/>
<path d="M310.516 104.833H359.32V279.359H431.288C428.78 281.801 426.668 284.639 424.953 287.872C423.237 291.106 421.851 294.208 420.795 297.178C419.607 300.676 418.65 304.206 417.924 307.77L413.271 308.76C413.601 307.572 413.799 306.384 413.865 305.196C413.997 304.008 414.063 302.919 414.063 301.929C414.063 297.574 412.677 294.34 409.906 292.228C407.2 290.116 403.306 288.664 398.224 287.872C393.143 287.146 386.939 286.849 379.614 286.981C372.288 287.047 364.039 287.08 354.865 287.08H310.516V283.418C314.014 283.418 316.885 283.088 319.129 282.428C321.372 281.702 323.154 280.745 324.474 279.557C325.794 278.303 326.685 276.884 327.147 275.3C327.675 273.716 327.939 272.033 327.939 270.252V121.464C327.939 120.144 327.675 118.726 327.147 117.208C326.685 115.69 325.794 114.304 324.474 113.05C323.22 111.73 321.471 110.641 319.228 109.783C316.984 108.925 314.08 108.496 310.516 108.496V104.833Z" fill="#F4CE83"/>
<path d="M557.802 176.802C555.888 172.644 553.38 168.948 550.278 165.714C547.242 162.481 543.811 159.742 539.983 157.498C536.221 155.254 532.228 153.571 528.005 152.449C523.781 151.261 519.59 150.667 515.433 150.667C510.879 150.667 506.589 151.492 502.563 153.142C498.538 154.726 494.776 156.937 491.278 159.775C487.846 162.547 484.712 165.879 481.874 169.773C479.036 173.601 476.528 177.759 474.35 182.246C472.238 186.668 470.49 191.321 469.104 196.204C467.718 201.088 466.728 205.972 466.134 210.855H550.476C549.09 213.627 548.034 216.564 547.308 219.666C546.582 222.702 546.054 225.539 545.724 228.179C545.329 231.281 545.098 234.284 545.032 237.188L541.765 237.782C540.907 233.558 539.851 230.06 538.597 227.288C537.343 224.517 535.462 222.339 532.954 220.755C530.447 219.171 527.081 218.082 522.857 217.488C518.699 216.828 513.255 216.498 506.523 216.498H465.54V220.755C465.54 226.1 466.167 231.347 467.421 236.495C468.675 241.642 470.457 246.559 472.766 251.245C475.076 255.864 477.914 260.121 481.28 264.015C484.646 267.909 488.407 271.307 492.565 274.211C496.723 277.049 501.276 279.26 506.226 280.844C511.176 282.428 516.422 283.22 521.966 283.22C526.982 283.22 531.403 282.758 535.231 281.834C539.059 280.844 542.359 279.623 545.131 278.171C547.968 276.719 550.344 275.135 552.258 273.419C554.172 271.637 555.756 269.955 557.01 268.371C558.264 266.787 559.188 265.401 559.782 264.213C560.441 262.959 560.936 262.134 561.266 261.738L559.683 275.696C558.165 277.808 555.954 279.854 553.05 281.834C550.146 283.748 546.681 285.497 542.656 287.08C538.696 288.598 534.241 289.819 529.292 290.743C524.342 291.667 518.996 292.129 513.255 292.129C502.233 292.129 491.806 290.512 481.973 287.278C472.205 284.045 463.593 279.458 456.135 273.518C448.744 267.579 442.837 260.418 438.416 252.037C434.06 243.589 431.816 234.185 431.684 223.824C431.882 213.132 433.73 203.53 437.228 195.017C440.791 186.437 445.51 178.98 451.384 172.644C457.323 166.242 464.22 160.963 472.073 156.805C479.927 152.581 488.308 149.447 497.218 147.401C501.903 146.279 507.282 145.553 513.354 145.223C519.425 144.893 525.53 144.728 531.667 144.728C537.607 144.728 543.184 144.794 548.397 144.926C553.677 145.058 558.099 145.124 561.662 145.124C560.936 148.226 560.409 150.997 560.079 153.439C559.815 155.815 559.683 158.059 559.683 160.171C559.683 163.141 559.914 165.912 560.376 168.486C560.837 170.994 561.464 173.7 562.256 176.604L557.802 176.802Z" fill="#F4CE83"/>
<path d="M579.58 145.124H629.275L704.213 236.198V161.755C704.213 160.435 703.949 159.016 703.421 157.498C702.959 155.98 702.068 154.594 700.748 153.34C699.494 152.02 697.745 150.931 695.502 150.073C693.258 149.216 690.354 148.787 686.79 148.787V145.124H730.644V148.787C727.014 148.787 724.078 149.183 721.834 149.975C719.59 150.7 717.808 151.723 716.488 153.043C715.234 154.297 714.376 155.749 713.914 157.399C713.452 159.049 713.221 160.798 713.221 162.646V287.08H704.213L605.913 168.486V269.658C605.913 270.977 606.11 272.429 606.506 274.013C606.968 275.597 607.793 277.082 608.981 278.468C610.235 279.854 611.984 281.042 614.228 282.032C616.538 282.956 619.574 283.418 623.335 283.418V287.08H579.58V283.418C583.144 283.418 586.048 283.055 588.292 282.329C590.602 281.537 592.383 280.514 593.637 279.26C594.957 278.006 595.848 276.554 596.31 274.904C596.772 273.254 597.003 271.505 597.003 269.658V157.696C595.419 155.914 593.967 154.462 592.647 153.34C591.327 152.218 589.975 151.327 588.589 150.667C587.269 149.942 585.883 149.447 584.431 149.183C582.979 148.919 581.362 148.787 579.58 148.787V145.124Z" fill="#F4CE83"/>
<path d="M846.269 287.08H779.943V283.418C783.573 283.418 786.509 283.055 788.753 282.329C790.997 281.537 792.746 280.514 794 279.26C795.32 278.006 796.211 276.554 796.673 274.904C797.135 273.254 797.366 271.505 797.366 269.658V152.845H784.794C781.296 152.845 777.6 153.142 773.706 153.736C769.879 154.264 766.051 155.353 762.223 157.003C758.395 158.587 754.7 160.798 751.136 163.636C747.572 166.473 744.338 170.169 741.434 174.723L737.376 174.129C739.158 171.357 740.511 168.321 741.434 165.022C742.424 161.656 743.183 158.488 743.711 155.518C744.239 152.086 744.569 148.622 744.701 145.124H882.698C881.774 146.972 881.048 148.886 880.52 150.865C879.992 152.845 879.563 154.825 879.233 156.805C878.903 158.719 878.672 160.567 878.54 162.349C878.474 164.065 878.441 165.582 878.441 166.902C878.441 167.628 878.441 168.288 878.441 168.882C878.441 169.41 878.474 169.872 878.54 170.268C878.606 170.73 878.672 171.159 878.738 171.555L875.076 172.149C874.812 169.179 873.954 166.638 872.502 164.527C871.116 162.415 869.367 160.666 867.255 159.28C865.209 157.828 862.932 156.673 860.425 155.815C857.917 154.957 855.442 154.33 853 153.934C850.624 153.472 848.38 153.175 846.269 153.043C844.157 152.911 842.474 152.845 841.22 152.845H828.846V269.658C828.846 270.977 829.044 272.429 829.44 274.013C829.836 275.597 830.661 277.082 831.914 278.468C833.168 279.854 834.917 281.042 837.161 282.032C839.471 282.956 842.507 283.418 846.269 283.418V287.08Z" fill="#F4CE83"/>
<path d="M931.403 289.753C925.265 289.753 920.283 289.621 916.455 289.357C912.627 289.093 909.459 288.763 906.951 288.367C904.444 288.037 902.365 287.74 900.715 287.476C899.131 287.212 897.514 287.08 895.864 287.08C896.59 284.111 897.118 281.405 897.448 278.963C897.778 276.455 897.943 274.145 897.943 272.033C897.943 269.064 897.679 266.325 897.151 263.817C896.623 261.243 895.996 258.537 895.27 255.699L899.725 255.502C901.573 259.659 904.345 263.487 908.04 266.985C911.736 270.417 915.861 273.419 920.415 275.993C924.968 278.501 929.72 280.481 934.67 281.933C939.619 283.319 944.338 284.012 948.826 284.012C954.171 284.012 959.088 283.088 963.576 281.24C968.063 279.392 971.924 276.95 975.158 273.914C978.392 270.812 980.9 267.315 982.681 263.421C984.529 259.461 985.453 255.403 985.453 251.245C985.453 246.691 984.397 242.995 982.286 240.158C980.24 237.254 977.468 234.944 973.97 233.228C970.538 231.512 966.579 230.225 962.091 229.367C957.669 228.509 953.115 227.816 948.43 227.288C944.932 226.892 941.104 226.43 936.946 225.902C932.855 225.375 928.73 224.583 924.572 223.527C920.415 222.471 916.422 221.085 912.594 219.369C908.766 217.587 905.368 215.343 902.398 212.637C899.428 209.932 897.052 206.632 895.27 202.738C893.488 198.844 892.597 194.192 892.597 188.78C892.597 182.378 893.851 176.802 896.359 172.05C898.867 167.298 902.167 163.24 906.259 159.874C910.416 156.442 915.168 153.637 920.514 151.459C925.859 149.216 931.337 147.467 936.946 146.213C942.622 144.893 948.232 144.002 953.775 143.54C959.385 143.012 964.5 142.748 969.119 142.748C973.145 142.748 976.907 142.88 980.405 143.144C983.968 143.408 987.235 143.705 990.205 144.035C993.241 144.299 996.013 144.563 998.52 144.827C1001.09 145.025 1003.44 145.124 1005.55 145.124C1004.82 148.226 1004.29 150.997 1003.96 153.439C1003.7 155.815 1003.57 158.125 1003.57 160.369C1003.57 163.207 1003.8 165.912 1004.26 168.486C1004.72 170.994 1005.35 173.7 1006.14 176.604L1001.69 176.802C1000.63 174.36 999.642 171.951 998.718 169.575C997.794 167.199 996.672 164.989 995.353 162.943C994.099 160.831 992.515 158.917 990.601 157.201C988.753 155.419 986.344 153.901 983.374 152.647C980.471 151.327 976.874 150.337 972.584 149.678C968.36 148.952 963.213 148.589 957.141 148.589C953.049 148.589 949.057 149.315 945.163 150.766C941.335 152.218 937.903 154.231 934.868 156.805C931.898 159.313 929.489 162.349 927.641 165.912C925.793 169.41 924.869 173.238 924.869 177.396C924.869 181.025 925.529 184.127 926.849 186.701C928.235 189.275 930.017 191.453 932.195 193.235C934.373 195.017 936.815 196.468 939.52 197.59C942.292 198.712 945.031 199.603 947.737 200.263C950.509 200.857 953.115 201.286 955.557 201.55C958.065 201.814 960.144 202.012 961.794 202.144C964.896 202.408 968.426 202.804 972.386 203.332C976.346 203.86 980.372 204.685 984.463 205.807C988.555 206.863 992.548 208.282 996.441 210.064C1000.4 211.845 1003.9 214.155 1006.93 216.993C1010.04 219.831 1012.51 223.263 1014.36 227.288C1016.21 231.248 1017.13 235.967 1017.13 241.444C1017.13 248.638 1015.88 254.842 1013.37 260.055C1010.93 265.203 1007.59 269.592 1003.37 273.221C999.147 276.785 994.198 279.656 988.522 281.834C982.912 283.946 976.907 285.596 970.505 286.783C964.17 287.971 957.636 288.763 950.905 289.159C944.239 289.555 937.738 289.753 931.403 289.753Z" fill="#F4CE83"/>
<path d="M1185.02 212.043C1185.02 222.669 1183.11 232.766 1179.28 242.335C1175.45 251.839 1169.91 260.22 1162.65 267.48C1155.39 274.739 1146.52 280.514 1136.02 284.804C1125.53 289.027 1113.62 291.139 1100.29 291.139C1096.92 291.139 1093.59 290.941 1090.29 290.545C1086.99 290.215 1083.75 289.588 1080.59 288.664V309.552C1080.59 311.136 1080.02 312.852 1078.9 314.7C1077.85 316.547 1076.43 318.527 1074.65 320.639C1072.93 322.817 1070.95 325.127 1068.71 327.569C1066.46 330.077 1064.15 332.716 1061.78 335.488C1059.47 338.26 1057.22 341.164 1055.05 344.2C1052.87 347.301 1050.92 350.568 1049.21 354V161.755C1049.21 160.435 1048.94 159.016 1048.41 157.498C1047.95 155.98 1047.06 154.594 1045.74 153.34C1044.49 152.02 1042.74 150.931 1040.49 150.073C1038.25 149.216 1035.35 148.787 1031.78 148.787V145.124H1080.59C1084.68 145.124 1089.3 145.256 1094.45 145.52C1099.66 145.784 1105.1 146.312 1110.78 147.104C1116.45 147.83 1122.23 148.919 1128.1 150.37C1133.98 151.756 1139.65 153.604 1145.13 155.914C1150.61 158.158 1155.75 160.93 1160.57 164.23C1165.46 167.529 1169.71 171.456 1173.34 176.01C1176.97 180.563 1179.81 185.81 1181.86 191.75C1183.97 197.689 1185.02 204.454 1185.02 212.043ZM1152.55 219.567C1152.55 210.657 1151.4 202.87 1149.09 196.204C1146.78 189.539 1143.68 183.764 1139.78 178.881C1135.96 173.997 1131.53 169.938 1126.52 166.704C1121.57 163.471 1116.42 160.864 1111.08 158.884C1105.8 156.838 1100.48 155.353 1095.14 154.429C1089.86 153.439 1085.01 152.779 1080.59 152.449V279.359C1084.28 281.405 1088.31 282.758 1092.66 283.418C1097.02 284.078 1101.18 284.408 1105.14 284.408C1111.34 284.408 1116.82 283.418 1121.57 281.438C1126.39 279.458 1130.54 276.818 1134.04 273.518C1137.54 270.153 1140.48 266.292 1142.85 261.936C1145.23 257.514 1147.11 252.895 1148.5 248.077C1149.95 243.259 1150.97 238.409 1151.56 233.525C1152.22 228.641 1152.55 223.989 1152.55 219.567Z" fill="#F4CE83"/>
<path d="M1266.69 287.08H1200.47V283.418C1204.03 283.418 1206.93 283.055 1209.18 282.329C1211.49 281.537 1213.27 280.514 1214.52 279.26C1215.84 278.006 1216.73 276.554 1217.2 274.904C1217.66 273.254 1217.89 271.505 1217.89 269.658V121.464C1217.89 120.144 1217.63 118.726 1217.1 117.208C1216.64 115.69 1215.74 114.304 1214.42 113.05C1213.17 111.73 1211.42 110.641 1209.18 109.783C1206.93 108.925 1204.03 108.496 1200.47 108.496V104.833L1249.27 104.833V155.518C1251.51 153.604 1254.06 151.789 1256.89 150.073C1259.8 148.292 1262.96 146.741 1266.4 145.421C1269.89 144.101 1273.69 143.045 1277.78 142.253C1281.94 141.461 1286.43 141.065 1291.24 141.065C1297.18 141.065 1303.12 141.692 1309.06 142.946C1315 144.2 1320.68 146.081 1326.09 148.589C1331.57 151.096 1336.65 154.231 1341.33 157.993C1346.02 161.689 1350.08 166.011 1353.51 170.961C1356.94 175.911 1359.65 181.454 1361.63 187.592C1363.61 193.73 1364.6 200.461 1364.6 207.787C1364.6 215.772 1363.48 223.131 1361.23 229.862C1358.99 236.528 1356.02 242.632 1352.32 248.176C1348.69 253.654 1344.54 258.603 1339.85 263.025C1335.16 267.381 1330.38 271.241 1325.5 274.607C1314.01 282.527 1300.98 288.862 1286.39 293.614L1283.52 291.139C1292.17 286.189 1299.89 279.722 1306.69 271.736C1309.59 268.371 1312.43 264.477 1315.2 260.055C1317.97 255.633 1320.45 250.684 1322.62 245.206C1324.8 239.729 1326.55 233.723 1327.87 227.189C1329.26 220.59 1329.95 213.396 1329.95 205.609C1329.95 196.039 1328.89 187.658 1326.78 180.464C1324.74 173.271 1321.87 167.298 1318.17 162.547C1314.47 157.729 1310.09 154.132 1305 151.756C1299.99 149.381 1294.51 148.193 1288.57 148.193C1283.23 148.193 1278.18 149.15 1273.43 151.063C1268.74 152.911 1264.65 155.584 1261.15 159.082C1257.65 162.514 1254.85 166.704 1252.74 171.654C1250.62 176.538 1249.47 182.048 1249.27 188.186V269.658C1249.27 270.977 1249.47 272.429 1249.86 274.013C1250.33 275.597 1251.15 277.082 1252.34 278.468C1253.59 279.854 1255.34 281.042 1257.59 282.032C1259.9 282.956 1262.93 283.418 1266.69 283.418V287.08Z" fill="#F4CE83"/>
<path d="M1509.72 176.802C1507.81 172.644 1505.3 168.948 1502.2 165.714C1499.16 162.481 1495.73 159.742 1491.9 157.498C1488.14 155.254 1484.15 153.571 1479.93 152.449C1475.7 151.261 1471.51 150.667 1467.35 150.667C1462.8 150.667 1458.51 151.492 1454.48 153.142C1450.46 154.726 1446.7 156.937 1443.2 159.775C1439.77 162.547 1436.63 165.879 1433.79 169.773C1430.96 173.601 1428.45 177.759 1426.27 182.246C1424.16 186.668 1422.41 191.321 1421.02 196.204C1419.64 201.088 1418.65 205.972 1418.05 210.855H1502.4C1501.01 213.627 1499.95 216.564 1499.23 219.666C1498.5 222.702 1497.98 225.539 1497.65 228.179C1497.25 231.281 1497.02 234.284 1496.95 237.188L1493.69 237.782C1492.83 233.558 1491.77 230.06 1490.52 227.288C1489.26 224.517 1487.38 222.339 1484.88 220.755C1482.37 219.171 1479 218.082 1474.78 217.488C1470.62 216.828 1465.18 216.498 1458.44 216.498H1417.46V220.755C1417.46 226.1 1418.09 231.347 1419.34 236.495C1420.6 241.642 1422.38 246.559 1424.69 251.245C1427 255.864 1429.83 260.121 1433.2 264.015C1436.57 267.909 1440.33 271.307 1444.49 274.211C1448.64 277.049 1453.2 279.26 1458.15 280.844C1463.1 282.428 1468.34 283.22 1473.89 283.22C1478.9 283.22 1483.32 282.758 1487.15 281.834C1490.98 280.844 1494.28 279.623 1497.05 278.171C1499.89 276.719 1502.26 275.135 1504.18 273.419C1506.09 271.637 1507.68 269.955 1508.93 268.371C1510.18 266.787 1511.11 265.401 1511.7 264.213C1512.36 262.959 1512.86 262.134 1513.19 261.738L1511.6 275.696C1510.09 277.808 1507.87 279.854 1504.97 281.834C1502.07 283.748 1498.6 285.497 1494.58 287.08C1490.62 288.598 1486.16 289.819 1481.21 290.743C1476.26 291.667 1470.92 292.129 1465.18 292.129C1454.15 292.129 1443.73 290.512 1433.89 287.278C1424.13 284.045 1415.51 279.458 1408.06 273.518C1400.66 267.579 1394.76 260.418 1390.34 252.037C1385.98 243.589 1383.74 234.185 1383.6 223.824C1383.8 213.132 1385.65 203.53 1389.15 195.017C1392.71 186.437 1397.43 178.98 1403.3 172.644C1409.24 166.242 1416.14 160.963 1423.99 156.805C1431.85 152.581 1440.23 149.447 1449.14 147.401C1453.82 146.279 1459.2 145.553 1465.27 145.223C1471.35 144.893 1477.45 144.728 1483.59 144.728C1489.53 144.728 1495.1 144.794 1500.32 144.926C1505.6 145.058 1510.02 145.124 1513.58 145.124C1512.86 148.226 1512.33 150.997 1512 153.439C1511.74 155.815 1511.6 158.059 1511.6 160.171C1511.6 163.141 1511.83 165.912 1512.3 168.486C1512.76 170.994 1513.39 173.7 1514.18 176.604L1509.72 176.802Z" fill="#F4CE83"/>
<path d="M1678.51 285.892C1672.5 288.334 1667.09 289.984 1662.27 290.842C1657.45 291.7 1653.2 292.129 1649.5 292.129C1644.88 292.129 1640.26 290.908 1635.64 288.466C1631.09 286.024 1626.67 282.923 1622.38 279.161C1618.15 275.333 1614.16 271.109 1610.4 266.49C1606.64 261.87 1603.24 257.349 1600.2 252.928C1597.23 248.506 1594.69 244.48 1592.58 240.85C1590.53 237.221 1589.08 234.515 1588.22 232.733C1596.61 231.347 1604.1 228.839 1610.7 225.21C1613.53 223.626 1616.31 221.745 1619.01 219.567C1621.72 217.389 1624.13 214.815 1626.24 211.845C1628.35 208.876 1630.03 205.477 1631.29 201.649C1632.61 197.821 1633.27 193.466 1633.27 188.582C1633.27 184.16 1632.71 180.167 1631.58 176.604C1630.46 172.974 1628.98 169.773 1627.13 167.001C1625.28 164.164 1623.14 161.755 1620.69 159.775C1618.25 157.729 1615.71 156.046 1613.07 154.726C1610.43 153.406 1607.76 152.449 1605.05 151.855C1602.41 151.195 1599.94 150.865 1597.63 150.865C1594.13 150.865 1591.23 151.228 1588.92 151.954C1586.67 152.68 1584.89 153.67 1583.57 154.924C1582.25 156.112 1581.33 157.531 1580.8 159.181C1580.34 160.765 1580.11 162.448 1580.11 164.23V269.658C1580.11 270.977 1580.3 272.429 1580.7 274.013C1581.16 275.597 1581.99 277.082 1583.18 278.468C1584.43 279.854 1586.21 281.042 1588.52 282.032C1590.83 282.956 1593.87 283.418 1597.63 283.418V287.08H1531.3V283.418C1534.8 283.418 1537.67 283.088 1539.92 282.428C1542.16 281.702 1543.94 280.745 1545.26 279.557C1546.58 278.303 1547.47 276.884 1547.93 275.3C1548.46 273.716 1548.73 272.033 1548.73 270.252V161.755C1548.73 160.435 1548.46 159.016 1547.93 157.498C1547.47 155.98 1546.58 154.594 1545.26 153.34C1544.01 152.02 1542.26 150.931 1540.01 150.073C1537.77 149.216 1534.87 148.787 1531.3 148.787V145.124H1597.63C1607 145.124 1615.84 145.949 1624.16 147.599C1632.47 149.249 1639.73 151.855 1645.94 155.419C1652.21 158.917 1657.16 163.438 1660.79 168.981C1664.48 174.459 1666.33 181.058 1666.33 188.78C1666.33 195.313 1664.98 201.022 1662.27 205.906C1659.63 210.789 1656.1 214.98 1651.68 218.478C1647.32 221.976 1642.34 224.88 1636.73 227.189C1631.19 229.433 1625.51 231.215 1619.7 232.535C1621.95 236.627 1624.42 240.718 1627.13 244.81C1629.83 248.902 1632.67 252.829 1635.64 256.59C1638.61 260.352 1641.58 263.85 1644.55 267.084C1647.59 270.318 1650.52 273.155 1653.36 275.597C1656.2 277.973 1658.84 279.854 1661.28 281.24C1663.79 282.56 1666 283.22 1667.91 283.22C1668.84 283.22 1670.09 283.121 1671.68 282.923C1673.33 282.725 1675.11 282.23 1677.02 281.438L1678.51 285.892Z" fill="#F4CE83"/>
<path d="M1814.23 176.802C1812.31 172.644 1809.8 168.948 1806.7 165.714C1803.67 162.481 1800.24 159.742 1796.41 157.498C1792.65 155.254 1788.65 153.571 1784.43 152.449C1780.21 151.261 1776.01 150.667 1771.86 150.667C1767.3 150.667 1763.01 151.492 1758.99 153.142C1754.96 154.726 1751.2 156.937 1747.7 159.775C1744.27 162.547 1741.14 165.879 1738.3 169.773C1735.46 173.601 1732.95 177.759 1730.77 182.246C1728.66 186.668 1726.91 191.321 1725.53 196.204C1724.14 201.088 1723.15 205.972 1722.56 210.855H1806.9C1805.51 213.627 1804.46 216.564 1803.73 219.666C1803.01 222.702 1802.48 225.539 1802.15 228.179C1801.75 231.281 1801.52 234.284 1801.46 237.188L1798.19 237.782C1797.33 233.558 1796.28 230.06 1795.02 227.288C1793.77 224.517 1791.89 222.339 1789.38 220.755C1786.87 219.171 1783.51 218.082 1779.28 217.488C1775.12 216.828 1769.68 216.498 1762.95 216.498H1721.96V220.755C1721.96 226.1 1722.59 231.347 1723.85 236.495C1725.1 241.642 1726.88 246.559 1729.19 251.245C1731.5 255.864 1734.34 260.121 1737.7 264.015C1741.07 267.909 1744.83 271.307 1748.99 274.211C1753.15 277.049 1757.7 279.26 1762.65 280.844C1767.6 282.428 1772.85 283.22 1778.39 283.22C1783.41 283.22 1787.83 282.758 1791.66 281.834C1795.48 280.844 1798.78 279.623 1801.55 278.171C1804.39 276.719 1806.77 275.135 1808.68 273.419C1810.6 271.637 1812.18 269.955 1813.43 268.371C1814.69 266.787 1815.61 265.401 1816.21 264.213C1816.87 262.959 1817.36 262.134 1817.69 261.738L1816.11 275.696C1814.59 277.808 1812.38 279.854 1809.47 281.834C1806.57 283.748 1803.11 285.497 1799.08 287.08C1795.12 288.598 1790.67 289.819 1785.72 290.743C1780.77 291.667 1775.42 292.129 1769.68 292.129C1758.66 292.129 1748.23 290.512 1738.4 287.278C1728.63 284.045 1720.02 279.458 1712.56 273.518C1705.17 267.579 1699.26 260.418 1694.84 252.037C1690.48 243.589 1688.24 234.185 1688.11 223.824C1688.31 213.132 1690.15 203.53 1693.65 195.017C1697.22 186.437 1701.93 178.98 1707.81 172.644C1713.75 166.242 1720.64 160.963 1728.5 156.805C1736.35 152.581 1744.73 149.447 1753.64 147.401C1758.33 146.279 1763.71 145.553 1769.78 145.223C1775.85 144.893 1781.95 144.728 1788.09 144.728C1794.03 144.728 1799.61 144.794 1804.82 144.926C1810.1 145.058 1814.52 145.124 1818.09 145.124C1817.36 148.226 1816.83 150.997 1816.5 153.439C1816.24 155.815 1816.11 158.059 1816.11 160.171C1816.11 163.141 1816.34 165.912 1816.8 168.486C1817.26 170.994 1817.89 173.7 1818.68 176.604L1814.23 176.802Z" fill="#F4CE83"/>
<path d="M431.051 166.58H375.516V162.917C378.288 162.917 380.531 162.62 382.247 162.026C384.029 161.498 385.415 160.739 386.405 159.749C387.395 158.825 388.088 157.736 388.484 156.482C388.88 155.228 389.078 153.908 389.078 152.523V34.5224C389.078 33.5324 388.88 32.4765 388.484 31.3546C388.154 30.1667 387.494 29.1107 386.504 28.1868C385.514 27.1969 384.161 26.4049 382.445 25.811C380.73 25.151 378.486 24.821 375.714 24.821V19.9703H473.618C472.628 21.9502 471.869 24.1611 471.341 26.6029C470.879 29.0447 470.517 31.3876 470.253 33.6314C469.989 35.8093 469.824 37.6902 469.758 39.2741C469.758 40.792 469.758 41.6499 469.758 41.8479L467.184 42.2439C466.458 38.9441 465.138 36.2713 463.224 34.2254C461.376 32.1135 459.165 30.4636 456.591 29.2757C454.084 28.0878 451.378 27.2959 448.474 26.8999C445.636 26.4379 442.864 26.2069 440.159 26.2069H417.885V78.3765H464.115C462.993 80.4883 462.135 82.7982 461.541 85.306C461.013 87.8138 460.617 90.1897 460.353 92.4335C460.089 95.0734 459.924 97.6802 459.858 100.254L457.185 100.65C456.393 96.7562 455.338 93.7204 454.018 91.5426C452.698 89.3647 450.619 87.7808 447.781 86.7909C445.009 85.735 441.247 85.108 436.496 84.91C431.744 84.712 425.54 84.613 417.885 84.613V153.116C417.885 154.106 418.05 155.162 418.38 156.284C418.776 157.406 419.436 158.462 420.36 159.452C421.35 160.442 422.703 161.267 424.419 161.927C426.134 162.587 428.345 162.917 431.051 162.917V166.58Z" fill="#B2D6DD"/>
<path d="M516.482 64.5174C516.35 65.9693 516.284 67.3882 516.284 68.7741C516.284 70.094 516.284 71.4469 516.284 72.8328C516.284 79.1024 516.68 85.207 517.472 91.1466C518.264 97.0862 519.716 102.366 521.828 106.986C524.006 111.605 527.009 115.367 530.836 118.271C534.664 121.109 539.614 122.594 545.686 122.726C549.579 122.726 553.044 122.099 556.08 120.845C559.182 119.591 561.887 117.875 564.197 115.697C566.507 113.453 568.487 110.846 570.137 107.876C571.787 104.907 573.173 101.673 574.295 98.1751L597.657 106.095C595.281 109.46 592.443 112.562 589.144 115.4C585.844 118.238 582.049 120.713 577.759 122.825C573.536 124.87 568.784 126.487 563.504 127.675C558.291 128.863 552.549 129.457 546.279 129.457C539.218 129.457 532.816 128.665 527.075 127.081C521.333 125.563 516.185 123.451 511.632 120.746C507.144 118.04 503.217 114.872 499.852 111.242C496.552 107.547 493.78 103.62 491.536 99.4621C489.358 95.3043 487.741 90.9816 486.685 86.4939C485.629 82.0062 485.102 77.5845 485.102 73.2288C485.102 69.0711 485.563 64.8144 486.487 60.4586C487.477 56.0369 488.995 51.7142 491.041 47.4905C493.087 43.2668 495.661 39.3071 498.763 35.6113C501.93 31.8496 505.692 28.5498 510.048 25.712C514.47 22.8741 519.518 20.6303 525.194 18.9804C530.869 17.3305 537.238 16.5056 544.3 16.5056C554.661 16.5056 563.471 17.7925 570.731 20.3663C578.056 22.9401 584.062 26.4379 588.748 30.8596C593.499 35.2153 597.03 40.297 599.34 46.1046C601.716 51.9122 603.168 58.0498 603.696 64.5174H516.482ZM544.893 23.4351C540.076 23.4351 535.984 24.3261 532.618 26.1079C529.319 27.8898 526.58 30.3317 524.402 33.4334C522.224 36.5352 520.541 40.198 519.353 44.4217C518.231 48.5794 517.406 53.0671 516.878 57.8848H572.711C572.315 53.1331 571.589 48.6784 570.533 44.5207C569.543 40.363 567.992 36.7332 565.88 33.6314C563.834 30.4636 561.095 27.9888 557.664 26.2069C554.298 24.3591 550.041 23.4351 544.893 23.4351Z" fill="#B2D6DD"/>
<path d="M647.946 128.368C643.26 128.368 639.432 128.203 636.463 127.873C633.559 127.609 631.15 127.279 629.236 126.883C627.388 126.487 625.87 126.157 624.682 125.893C623.494 125.563 622.273 125.398 621.019 125.398C621.547 123.154 621.91 121.109 622.108 119.261C622.306 117.413 622.405 115.73 622.405 114.212C622.405 111.968 622.207 109.889 621.811 107.976C621.415 105.996 620.954 103.95 620.426 101.838L623.791 101.64C625.243 104.808 627.355 107.613 630.127 110.054C632.965 112.43 636.099 114.443 639.531 116.093C643.029 117.743 646.659 118.997 650.42 119.855C654.182 120.713 657.746 121.142 661.112 121.142C665.27 121.142 668.965 120.614 672.199 119.558C675.433 118.436 678.172 116.918 680.416 115.004C682.659 113.09 684.342 110.813 685.464 108.173C686.652 105.534 687.246 102.63 687.246 99.4621C687.246 96.0963 686.553 93.3575 685.167 91.2456C683.847 89.0678 681.999 87.3189 679.624 85.9989C677.248 84.679 674.476 83.7221 671.308 83.1281C668.14 82.4682 664.742 81.9402 661.112 81.5442C658.34 81.2803 655.37 80.9503 652.202 80.5543C649.035 80.1583 645.867 79.5644 642.699 78.7724C639.531 77.9805 636.463 76.9246 633.493 75.6046C630.589 74.2847 628.015 72.6018 625.771 70.556C623.527 68.5101 621.712 66.0353 620.326 63.1315C619.007 60.1617 618.347 56.6639 618.347 52.6382C618.347 47.8865 619.304 43.7288 621.217 40.165C623.131 36.6012 625.639 33.5324 628.741 30.9586C631.909 28.3848 635.538 26.2729 639.63 24.623C643.722 22.9731 647.913 21.6862 652.202 20.7623C656.558 19.7724 660.848 19.0794 665.072 18.6834C669.361 18.2875 673.255 18.0895 676.753 18.0895C682.956 18.0895 688.368 18.4194 692.988 19.0794C697.673 19.6734 701.6 19.9703 704.768 19.9703C704.108 22.2802 703.646 24.524 703.382 26.7019C703.184 28.8138 703.085 30.6946 703.085 32.3445C703.085 34.4564 703.25 36.5022 703.58 38.4821C703.976 40.396 704.504 42.4088 705.164 44.5207L701.699 44.7187C700.511 41.9469 699.356 39.4061 698.234 37.0962C697.178 34.7204 695.529 32.7075 693.285 31.0576C691.107 29.3417 688.038 28.0218 684.078 27.0979C680.119 26.1079 674.641 25.613 667.645 25.613C665.402 25.613 663.059 26.0089 660.617 26.8009C658.175 27.5268 655.931 28.6818 653.885 30.2657C651.905 31.7836 650.256 33.6974 648.936 36.0073C647.616 38.3171 646.956 41.0229 646.956 44.1247C646.956 48.2165 647.847 51.4502 649.629 53.8261C651.476 56.2019 653.687 58.0498 656.261 59.3697C658.835 60.6236 661.508 61.4816 664.28 61.9436C667.051 62.3395 669.394 62.6035 671.308 62.7355C673.684 62.9335 676.423 63.2305 679.525 63.6264C682.692 64.0224 685.893 64.6494 689.127 65.5073C692.427 66.2993 695.66 67.3552 698.828 68.6751C701.996 69.995 704.834 71.7109 707.342 73.8228C709.85 75.9346 711.862 78.5084 713.38 81.5442C714.898 84.514 715.657 88.0448 715.657 92.1365C715.657 97.5482 714.667 102.201 712.687 106.095C710.708 109.988 708.002 113.288 704.57 115.994C701.204 118.634 697.244 120.779 692.691 122.429C688.203 124.078 683.451 125.332 678.436 126.19C673.42 127.048 668.305 127.609 663.092 127.873C657.878 128.203 652.829 128.368 647.946 128.368Z" fill="#B2D6DD"/>
<path d="M727.14 26.2069C728.988 22.5772 730.143 18.9804 730.605 15.4166C731.133 11.7869 731.397 8.6191 731.397 5.91328C731.397 5.18733 731.364 4.56037 731.298 4.0324C731.298 3.43844 731.298 2.94347 731.298 2.5475C731.232 2.08553 731.199 1.65656 731.199 1.26059L734.862 0.666626C735.06 3.63643 735.852 6.17726 737.238 8.28912C738.69 10.401 740.439 12.1829 742.484 13.6348C744.596 15.0207 746.906 16.1426 749.414 17.0005C751.922 17.8585 754.397 18.5184 756.838 18.9804C759.28 19.3764 761.524 19.6404 763.57 19.7724C765.682 19.9043 767.398 19.9703 768.718 19.9703H846.131C844.349 23.6661 843.194 27.2959 842.666 30.8596C842.138 34.4234 841.874 37.5582 841.874 40.264C841.874 40.9899 841.874 41.6499 841.874 42.2439C841.874 42.7718 841.907 43.2338 841.973 43.6298C841.973 44.0917 842.006 44.5207 842.072 44.9167L838.508 45.5106C838.244 42.5408 837.386 40 835.934 37.8882C834.548 35.7763 832.799 34.0274 830.688 32.6415C828.642 31.1896 826.365 30.0347 823.857 29.1767C821.349 28.3188 818.874 27.6918 816.432 27.2959C814.057 26.8339 811.813 26.5369 809.701 26.4049C807.589 26.2729 805.906 26.2069 804.652 26.2069H802.771C796.502 26.5369 790.892 28.0878 785.943 30.8596C781.059 33.5654 776.901 37.1622 773.469 41.6499C770.104 46.0716 767.497 51.1533 765.649 56.8949C763.867 62.6365 762.943 68.6421 762.877 74.9117C762.877 81.1813 763.405 87.2199 764.461 93.0275C765.517 98.7691 767.2 103.851 769.51 108.272C771.819 112.694 774.855 116.225 778.617 118.865C782.379 121.439 786.932 122.726 792.278 122.726C796.172 122.726 799.538 122.099 802.375 120.845C805.213 119.591 807.655 117.875 809.701 115.697C811.747 113.453 813.496 110.846 814.948 107.876C816.399 104.907 817.686 101.673 818.808 98.1751L842.072 106.095C839.696 109.46 836.957 112.562 833.855 115.4C830.82 118.238 827.289 120.713 823.263 122.825C819.303 124.87 814.816 126.487 809.8 127.675C804.784 128.863 799.142 129.457 792.872 129.457C786.207 129.457 780.102 128.731 774.558 127.279C769.081 125.827 764.131 123.814 759.709 121.241C755.353 118.667 751.526 115.664 748.226 112.232C744.992 108.734 742.286 104.973 740.109 100.947C737.931 96.9212 736.314 92.7305 735.258 88.3748C734.202 84.0191 733.674 79.6634 733.674 75.3077C733.674 69.764 734.499 64.5174 736.149 59.5677C737.799 54.552 740.175 49.9654 743.276 45.8076C746.444 41.5839 750.338 37.8222 754.958 34.5224C759.577 31.2226 764.857 28.4508 770.796 26.2069H727.14Z" fill="#B2D6DD"/>
</svg>
