<svg  viewBox="0 0 398 397" fill="none" xmlns="http://www.w3.org/2000/svg">
<path d="M297.79 197.93C297.79 199.76 299.37 201.71 299.31 203.54C299.25 205.38 296.69 207.08 296.5 208.92C296.32 210.75 296.63 212.64 296.32 214.47C296.02 216.3 300.23 219.17 299.8 220.94C299.37 222.71 288.51 221.79 288.02 223.56C287.53 225.33 294.73 229.48 294.12 231.19C293.51 232.9 289.42 233.39 288.69 235.04C287.96 236.69 293.51 241.39 292.72 243.03C291.93 244.68 284.3 242.97 283.44 244.56C282.59 246.15 279.17 246.09 278.19 247.61C277.22 249.14 275.39 249.81 274.35 251.27C273.31 252.74 272.82 254.33 271.72 255.79C270.63 257.25 276.91 264.95 275.69 266.35C274.47 267.75 266.6 262.75 265.26 264.09C263.91 265.43 269.71 274.16 268.31 275.38C266.9 276.6 265.19 277.88 263.79 279.04C262.39 280.2 255.98 274.95 254.51 275.99C253.05 277.03 252.93 280.08 251.34 281.06C249.75 282.03 250.36 286.86 248.78 287.77C247.19 288.69 245.85 290.76 244.2 291.56C242.55 292.35 238.03 287.1 236.33 287.83C234.62 288.57 233.64 291.13 231.93 291.74C230.22 292.35 228.57 293.57 226.8 294.12C225.03 294.67 223.94 298.64 222.17 299.06C220.4 299.49 217.53 295.28 215.7 295.58C213.86 295.89 211.55 292.04 209.71 292.23C207.88 292.41 206.24 292.17 204.4 292.23C202.57 292.29 200.93 291.56 199.09 291.56C197.26 291.56 195.13 300.65 193.36 300.53C191.59 300.41 190.18 293.2 188.41 293.02C186.64 292.84 184.75 293.45 182.98 293.14C181.21 292.84 179.38 292.84 177.61 292.41C175.84 291.98 174.07 291.68 172.3 291.13C170.53 290.58 166.62 296.44 164.91 295.83C163.21 295.22 162.05 292.29 160.4 291.56C158.75 290.82 157.41 288.87 155.76 288.02C154.11 287.16 154.78 282.03 153.14 281.12C151.49 280.2 149.78 279.9 148.25 278.92C146.73 277.95 143.61 279.35 142.15 278.25C140.68 277.15 136.6 279.29 135.19 278.13C133.79 276.97 134.83 272.64 133.48 271.41C132.14 270.19 135.19 264.46 133.91 263.18C132.63 261.89 129.94 262.26 128.72 260.86C127.5 259.45 125.12 259.27 123.96 257.87C122.8 256.46 119.08 257.01 117.98 255.48C116.88 253.96 113.1 254.14 112.12 252.56C111.14 250.97 114.26 246.88 113.4 245.23C112.55 243.58 114.5 240.65 113.71 238.94C112.91 237.24 105.47 238.58 104.74 236.93C104 235.28 112.36 230.16 111.75 228.39C111.14 226.62 104.37 227.04 103.88 225.27C103.39 223.5 103.33 221.61 102.9 219.78C102.48 217.95 98.02 216.85 97.72 215.02C97.41 213.19 104.43 210.32 104.19 208.49C103.94 206.66 96.9801 205.38 96.9201 203.54C96.8601 201.71 97.4101 199.64 97.4101 197.81C97.4101 195.98 97.41 193.9 97.47 192.07C97.53 190.24 99.0601 188.35 99.3001 186.52C99.5501 184.68 100.1 182.79 100.4 180.96C100.71 179.13 106.69 178.52 107.12 176.75C107.54 174.98 105.77 172.72 106.26 171.01C106.75 169.3 101.93 165.7 102.54 163.93C103.15 162.16 110.84 163.14 111.51 161.43C112.18 159.72 106.32 155.02 107.12 153.37C107.91 151.73 113.22 152.28 114.13 150.69C115.05 149.1 111.27 144.59 112.24 143.06C113.22 141.53 113.46 139.09 114.56 137.63C115.66 136.16 124.82 140.74 125.98 139.28C127.13 137.81 124.14 133.05 125.36 131.65C126.59 130.24 130.06 131.1 131.41 129.82C132.75 128.53 130.19 123.16 131.59 121.94C132.99 120.72 139.71 125.91 141.17 124.81C142.64 123.71 138 114.5 139.52 113.46C141.05 112.42 146.06 116.39 147.64 115.41C149.23 114.43 152.65 116.94 154.23 116.08C155.82 115.23 156.19 112.36 157.83 111.57C159.48 110.77 161.25 110.59 162.96 109.92C164.67 109.25 166.44 109.31 168.21 108.7C169.98 108.09 171.08 106.19 172.85 105.65C174.62 105.1 176.45 105.46 178.22 105.04C179.99 104.61 182.13 107.11 183.9 106.81C185.67 106.5 186.52 100.15 188.35 99.9699C190.18 99.7899 192.32 105.28 194.15 105.16C195.98 105.04 197.51 101.25 199.34 101.25C201.17 101.25 202.88 101.8 204.71 101.86C206.54 101.92 207.94 105.16 209.71 105.4C211.48 105.65 214.78 95.5699 216.61 95.8799C218.44 96.1899 220.64 96.1899 222.41 96.6099C224.18 97.0399 225.22 101.31 226.99 101.8C228.76 102.29 231.44 100.52 233.15 101.13C234.86 101.74 236.94 102.17 238.64 102.9C240.35 103.63 238.28 112.73 239.93 113.52C241.57 114.31 243.71 113.76 245.3 114.68C246.88 115.59 250.24 113.34 251.83 114.31C253.41 115.29 254.45 117 255.98 118.04C257.5 119.07 259.76 119.13 261.23 120.29C262.69 121.45 264.64 122.06 265.99 123.28C267.33 124.51 265.19 129.39 266.54 130.67C267.88 131.95 270.02 132.26 271.24 133.6C272.46 134.94 273.49 136.35 274.59 137.81C275.69 139.28 274.78 142.02 275.88 143.55C276.97 145.07 282.89 143.18 283.87 144.71C284.85 146.23 283.87 149.04 284.73 150.63C285.58 152.21 284.24 154.9 285.03 156.55C285.82 158.2 293.51 156.85 294.19 158.5C294.86 160.15 295.22 162.29 295.83 163.99C296.44 165.7 294.25 168.51 294.73 170.28C295.22 172.05 294.61 174.13 295.04 175.96C295.47 177.79 294.55 179.74 294.86 181.57C295.16 183.4 301.94 184.38 302.12 186.21C302.3 188.04 298.09 190.42 298.21 192.25C298.34 194.08 297.97 195.98 297.97 197.81L297.79 197.93Z" stroke="#E8EAE7" stroke-width="3.05172" stroke-miterlimit="10"/>
<path d="M387.81 197.93C387.81 199.76 390.92 201.71 390.92 203.48C390.92 205.25 386.23 206.96 386.16 208.79C386.1 210.62 387.02 212.52 386.84 214.35C386.65 216.18 395.44 219.05 395.2 220.82C394.95 222.59 374.32 221.73 374.08 223.56C373.84 225.39 388.97 229.55 388.61 231.32C388.24 233.09 380.98 233.63 380.61 235.4C380.24 237.17 392.76 241.94 392.39 243.71C392.02 245.48 377.5 243.83 377.01 245.6C376.52 247.37 370.66 247.43 370.17 249.14C369.68 250.85 367.06 251.64 366.51 253.41C365.96 255.18 366.51 256.95 365.9 258.66C365.29 260.37 382.26 268.79 381.59 270.44C380.92 272.09 364.07 267.08 363.34 268.79C362.6 270.5 379.88 280.26 379.15 281.91C378.41 283.56 377.19 285.39 376.4 286.98C375.61 288.57 361.08 283.19 360.22 284.78C359.37 286.37 362.6 290.21 361.69 291.8C360.77 293.39 367.12 299.43 366.14 300.96C365.17 302.48 366.14 305.59 365.11 307.12C364.07 308.65 352.53 303.15 351.5 304.62C350.46 306.08 352.6 309.93 351.5 311.39C350.4 312.86 350.34 315.18 349.18 316.58C348.02 317.98 352.11 323.97 350.95 325.31C349.79 326.65 341.73 322.38 340.51 323.72C339.29 325.06 332.27 320.97 330.99 322.32C329.71 323.66 328 324.21 326.72 325.49C325.43 326.77 323.24 326.77 321.89 328.05C320.55 329.34 330.99 343.37 329.65 344.59C328.3 345.82 318.05 336.78 316.65 338C315.24 339.22 315 341.54 313.59 342.7C312.19 343.86 311.15 345.39 309.69 346.49C308.22 347.59 306.94 348.75 305.42 349.78C303.89 350.82 309.57 362.6 308.04 363.58C306.51 364.55 302.36 361.87 300.78 362.84C299.19 363.82 296.26 362.66 294.67 363.58C293.09 364.49 286.98 357.17 285.34 358.02C283.69 358.88 282.77 360.65 281.18 361.5C279.6 362.36 280.39 368.03 278.74 368.76C277.1 369.5 278.5 377.49 276.85 378.22C275.2 378.96 270.44 372.67 268.73 373.34C267.03 374.01 261.23 363.39 259.52 364C257.81 364.61 257.69 369.07 255.98 369.68C254.27 370.29 253.6 373.83 251.89 374.32C250.18 374.81 250.12 381.46 248.41 381.95C246.7 382.44 246.21 388.91 244.44 389.33C242.67 389.76 238.77 381.15 237 381.52C235.23 381.89 232.36 376.27 230.59 376.58C228.82 376.88 229.18 391.04 227.41 391.29C225.64 391.53 221.49 373.53 219.66 373.77C217.83 374.01 217.4 386.65 215.63 386.83C213.86 387.01 211.91 386.28 210.08 386.34C208.25 386.4 206.66 394.52 204.83 394.58C203 394.64 200.92 380.61 199.09 380.61C197.26 380.61 195.19 393.67 193.42 393.61C191.65 393.54 189.63 392.26 187.8 392.14C185.97 392.02 183.96 392.08 182.13 391.9C180.3 391.71 178.59 388.97 176.76 388.78C174.92 388.6 173.09 387.75 171.26 387.5C169.43 387.26 169.43 376.09 167.66 375.78C165.89 375.48 163.39 379.38 161.62 379.02C159.85 378.65 155.64 388.91 153.87 388.48C152.1 388.05 153.81 373.65 152.04 373.22C150.27 372.79 144.71 385.67 142.94 385.18C141.17 384.69 142.27 374.99 140.5 374.38C138.73 373.77 133.48 383.17 131.77 382.56C130.06 381.95 127.32 383.17 125.67 382.5C124.02 381.83 129.64 363.27 127.99 362.54C126.34 361.81 120.54 370.53 118.89 369.74C117.25 368.95 118.22 362.84 116.58 362.05C114.93 361.26 108.34 369.86 106.75 369.01C105.16 368.15 111.39 353.32 109.8 352.41C108.21 351.49 96.74 367.12 95.21 366.14C93.69 365.16 98.33 354.24 96.8 353.26C95.27 352.29 98.14 345.14 96.62 344.11C95.09 343.07 91.19 345.75 89.72 344.72C88.26 343.68 87.5801 341.73 86.1801 340.63C84.7801 339.53 84.41 337.33 83.01 336.17C81.6 335.01 78.49 336.05 77.15 334.89C75.8 333.73 75.56 331.47 74.22 330.19C72.87 328.91 75.56 323.97 74.22 322.68C72.87 321.4 63.35 328.42 62.07 327.08C60.79 325.74 67.69 317.19 66.47 315.79C65.25 314.38 58.7101 317.92 57.5601 316.52C56.4001 315.12 56.03 313.22 54.87 311.76C53.71 310.29 57.43 305.47 56.33 304.01C55.24 302.54 38.0901 312.74 37.0501 311.21C36.0101 309.68 34.18 308.4 33.14 306.88C32.1 305.35 37.29 299.67 36.38 298.09C35.46 296.5 30.27 297.29 29.36 295.71C28.44 294.12 26.9201 292.59 26.0601 291.01C25.2101 289.42 39.92 279.65 39.12 278.07C38.33 276.48 35.09 276.24 34.36 274.59C33.63 272.94 26.55 274.22 25.82 272.51C25.09 270.8 25.82 268.55 25.15 266.9C24.47 265.25 21.42 264.4 20.75 262.69C20.08 260.98 18.07 259.7 17.46 257.99C16.85 256.28 25.45 251.7 24.96 249.93C24.47 248.16 21.3601 247.31 20.9301 245.54C20.5101 243.77 20.26 242.06 19.9 240.29C19.53 238.52 23.62 235.89 23.25 234.12C22.89 232.35 11.29 232.78 10.99 230.95C10.68 229.12 14.65 226.68 14.4 224.85C14.16 223.01 18.5501 220.76 18.3101 218.93C18.0701 217.09 3.53999 216.73 3.35999 214.9C3.16999 213.07 3.84997 210.99 3.71997 209.16C3.59997 207.33 9.15997 205.13 9.08997 203.3C9.02997 201.47 11.17 199.58 11.17 197.75C11.17 195.92 13.61 194.15 13.67 192.38C13.73 190.61 1.21997 188.1 1.33997 186.27C1.45997 184.44 9.95001 183.04 10.13 181.27C10.31 179.5 3.30004 176.75 3.54004 174.98C3.78004 173.21 6.52997 171.44 6.83997 169.67C7.13997 167.9 18.3701 167.78 18.6801 166.01C18.9801 164.24 22.03 163.14 22.4 161.31C22.77 159.48 7.57 154.29 8 152.52C8.42 150.75 24.84 153.01 25.27 151.24C25.7 149.47 21.67 146.6 22.22 144.89C22.77 143.18 27.16 142.75 27.71 141.05C28.26 139.34 15.3201 132.87 15.9301 131.16C16.5401 129.45 33.57 134.03 34.24 132.38C34.91 130.73 35.5199 129.27 36.1899 127.62C36.8599 125.97 38.33 124.93 39.12 123.28C39.92 121.64 31.98 116.02 32.84 114.37C33.69 112.73 23.44 105.22 24.29 103.63C25.15 102.04 37.6 106.74 38.51 105.22C39.43 103.69 33.3201 97.8299 34.3001 96.3099C35.2801 94.7799 37.84 94.1098 38.88 92.5798C39.92 91.0598 48.5201 94.7798 49.5601 93.3198C50.6001 91.8498 45.29 85.7499 46.39 84.2799C47.48 82.8199 49.74 82.2099 50.84 80.7399C51.94 79.2799 59.3901 83.1199 60.5501 81.7199C61.7101 80.3199 53.53 70.8599 54.75 69.5099C55.97 68.1699 65.31 74.2699 66.59 72.9299C67.87 71.5899 60.55 61.9499 61.83 60.6599C63.11 59.3799 70.56 64.3899 71.9 63.0999C73.24 61.8199 65.79 50.8399 67.14 49.6799C68.48 48.5199 77.57 55.8999 78.92 54.7399C80.26 53.5799 85.69 57.4899 87.16 56.3899C88.62 55.2899 85.88 48.9399 87.34 47.8499C88.8 46.7499 89.78 44.9798 91.25 43.9398C92.71 42.8998 95.76 44.1799 97.29 43.2099C98.81 42.2299 99.06 39.2398 100.58 38.3198C102.11 37.4098 103.82 36.6799 105.41 35.7599C106.99 34.8499 108.09 33.1399 109.68 32.2199C111.27 31.3099 115.11 34.8499 116.7 34.0499C118.28 33.2599 118.53 29.7199 120.18 28.9299C121.82 28.1299 123.29 27.0899 125 26.3599C126.71 25.6299 126.83 21.1699 128.48 20.4999C130.13 19.8299 131.1 16.7799 132.81 16.1699C134.52 15.5599 135.56 12.2599 137.27 11.7099C138.98 11.1599 146.12 27.7699 147.89 27.2199C149.66 26.6699 150.14 22.6999 151.91 22.2699C153.68 21.8499 155.33 21.6599 157.1 21.2399C158.87 20.8099 158.26 9.57985 160.03 9.20985C161.8 8.84985 164.24 11.4699 166.07 11.1599C167.91 10.8599 168.52 2.37989 170.35 2.12989C172.18 1.88989 174.99 7.92983 176.76 7.68983C178.53 7.43983 180.3 4.81989 182.07 4.62989C183.84 4.44989 186.09 8.47987 187.92 8.35987C189.76 8.22987 191.53 5.66987 193.36 5.60987C195.19 5.54987 197.14 13.7299 198.97 13.7299C200.8 13.7299 202.82 2.85993 204.65 2.91993C206.48 2.98993 208.07 10.4899 209.9 10.6199C211.73 10.7399 212.7 20.6199 214.47 20.7499C216.24 20.8699 218.44 15.6199 220.27 15.7999C222.1 15.9899 223.2 20.2599 224.97 20.5599C226.74 20.8699 231.69 1.82989 233.52 2.12989C235.35 2.43989 233.52 22.0899 235.23 22.4599C236.94 22.8199 238.4 23.7399 240.17 24.1599C241.94 24.5899 247.62 9.45989 249.39 9.87989C251.16 10.3099 251.83 15.0699 253.6 15.5599C255.37 16.0499 258.54 12.5699 260.25 13.1199C261.96 13.6699 263.79 14.6399 265.5 15.2499C267.21 15.8599 264.52 28.0699 266.23 28.7399C267.94 29.4099 273.07 21.6599 274.72 22.3899C276.36 23.1299 279.48 20.9899 281.12 21.7799C282.77 22.5799 278.32 35.8799 279.96 36.6799C281.61 37.4699 290.22 24.8999 291.8 25.7499C293.39 26.6099 289.67 37.1698 291.26 38.0798C292.84 38.9998 299.86 30.8799 301.45 31.7899C303.04 32.7099 306.58 31.0599 308.1 32.0399C309.63 33.0099 303.65 45.2199 305.17 46.2599C306.7 47.2999 315.24 38.7499 316.71 39.7899C318.17 40.8299 318.23 44.1799 319.64 45.2799C321.04 46.3799 312.5 59.7499 313.9 60.9099C315.3 62.0699 319.76 59.3799 321.1 60.5999C322.44 61.8199 333.74 52.3599 335.02 53.6399C336.3 54.9299 326.47 67.7399 327.82 69.0299C329.16 70.3099 338.62 63.6498 339.84 64.9398C341.06 66.2198 333.98 75.2499 335.2 76.5899C336.42 77.9399 336.91 79.7099 338.07 81.1099C339.23 82.5099 348.81 77.0199 349.97 78.4199C351.13 79.8299 345.94 86.1799 346.98 87.6399C348.02 89.1099 359.61 83.1199 360.65 84.5899C361.69 86.0499 363.58 87.3399 364.56 88.8599C365.53 90.3899 357.97 97.5899 358.88 99.1099C359.8 100.64 352.96 106.74 353.88 108.33C354.79 109.92 369.68 103.63 370.54 105.22C371.39 106.81 373.77 107.9 374.63 109.49C375.48 111.08 368.04 116.88 368.77 118.52C369.5 120.17 364.8 124.2 365.53 125.85C366.27 127.5 362.36 130.85 363.03 132.5C363.7 134.15 369.2 133.78 369.87 135.49C370.54 137.2 371.7 138.54 372.31 140.25C372.92 141.96 381.53 141.17 382.01 142.88C382.5 144.59 370.66 149.77 371.15 151.54C371.64 153.31 381.22 152.64 381.59 154.41C381.95 156.18 381.83 158.07 382.2 159.84C382.56 161.61 376.28 164.54 376.58 166.37C376.89 168.21 393.49 167.35 393.73 169.18C393.98 171.01 390.62 173.45 390.8 175.29C390.99 177.12 386.41 179.5 386.53 181.27C386.65 183.04 395.56 184.38 395.69 186.21C395.81 188.04 376.64 190.67 376.7 192.5C376.76 194.33 387.63 195.85 387.63 197.69L387.81 197.93Z" stroke="#E8EAE7" stroke-width="3.05172" stroke-miterlimit="10"/>
</svg>
