<svg viewBox="0 0 246 245" fill="none" xmlns="http://www.w3.org/2000/svg">
<mask id="mask0_4_718" style="mask-type:luminance" maskUnits="userSpaceOnUse" x="0" y="0" width="246" height="245">
<path d="M245.423 0.66687H0.666992V244.667H245.423V0.66687Z" fill="white"/>
</mask>
<g mask="url(#mask0_4_718)">
<path d="M233.873 122.288C233.873 124.351 235.66 126.551 235.591 128.613C235.523 130.676 232.635 132.601 232.429 134.664C232.223 136.726 232.566 138.857 232.223 140.92C231.879 142.983 236.623 146.214 236.141 148.208C235.66 150.202 223.422 149.17 222.872 151.164C222.322 153.158 230.435 157.833 229.747 159.758C229.06 161.683 224.454 162.233 223.629 164.089C222.804 165.946 229.06 171.24 228.166 173.096C227.272 174.952 218.678 173.027 217.716 174.815C216.753 176.602 212.903 176.533 211.803 178.252C210.703 179.971 208.641 180.727 207.472 182.377C206.303 184.027 205.753 185.815 204.516 187.465C203.278 189.115 210.359 197.778 208.984 199.359C207.609 200.94 198.74 195.303 197.228 196.815C195.715 198.328 202.247 208.159 200.666 209.534C199.084 210.909 197.159 212.353 195.578 213.659C193.997 214.966 186.778 209.053 185.128 210.222C183.478 211.391 183.34 214.828 181.553 215.928C179.765 217.028 180.452 222.46 178.665 223.491C176.877 224.522 175.365 226.86 173.509 227.753C171.652 228.647 166.565 222.735 164.64 223.56C162.715 224.385 161.614 227.272 159.689 227.96C157.764 228.647 155.908 230.022 153.914 230.641C151.921 231.26 150.683 235.729 148.689 236.21C146.695 236.691 143.464 231.947 141.401 232.291C139.339 232.635 136.726 228.303 134.664 228.51C132.601 228.716 130.745 228.441 128.682 228.51C126.62 228.579 124.764 227.753 122.701 227.753C120.638 227.753 118.232 237.998 116.238 237.86C114.245 237.722 112.663 229.61 110.669 229.404C108.676 229.197 106.544 229.885 104.551 229.541C102.557 229.197 100.494 229.197 98.5 228.716C96.507 228.235 94.513 227.891 92.519 227.272C90.525 226.653 86.125 233.254 84.2 232.566C82.275 231.879 80.969 228.579 79.112 227.753C77.256 226.928 75.744 224.728 73.887 223.766C72.031 222.803 72.787 217.028 70.931 215.997C69.075 214.966 67.15 214.622 65.431 213.522C63.712 212.422 60.206 214.003 58.556 212.766C56.906 211.528 52.299 213.934 50.718 212.628C49.137 211.322 50.305 206.44 48.793 205.065C47.28 203.69 50.718 197.228 49.274 195.784C47.83 194.34 44.805 194.753 43.43 193.171C42.055 191.59 39.374 191.384 38.068 189.803C36.761 188.221 32.567 188.84 31.33 187.121C30.092 185.402 25.83 185.609 24.73 183.821C23.63 182.034 27.136 177.427 26.174 175.571C25.211 173.715 27.411 170.415 26.517 168.489C25.624 166.564 17.236 168.077 16.411 166.221C15.586 164.364 25.005 158.589 24.317 156.595C23.63 154.602 15.998 155.083 15.448 153.089C14.898 151.095 14.829 148.964 14.348 146.901C13.867 144.839 8.84803 143.601 8.50403 141.539C8.16103 139.476 16.067 136.245 15.792 134.182C15.517 132.12 7.67902 130.676 7.61102 128.613C7.54202 126.551 8.16101 124.213 8.16101 122.151C8.16101 120.088 8.161 117.751 8.229 115.688C8.298 113.626 10.017 111.494 10.292 109.432C10.567 107.369 11.186 105.238 11.529 103.175C11.873 101.113 18.611 100.425 19.092 98.4309C19.573 96.4379 17.58 93.8939 18.13 91.9689C18.68 90.0439 13.248 85.9869 13.936 83.9939C14.623 81.9999 23.286 83.0999 24.042 81.1749C24.798 79.2499 18.198 73.9559 19.092 72.0999C19.986 70.2429 25.967 70.8619 26.999 69.0739C28.03 67.2869 23.767 62.1989 24.867 60.4799C25.967 58.7619 26.242 56.0119 27.48 54.3619C28.717 52.7119 39.03 57.8679 40.336 56.2179C41.643 54.5679 38.274 49.2049 39.649 47.6239C41.024 46.0429 44.943 47.0049 46.455 45.5609C47.968 44.1179 45.08 38.0669 46.662 36.6919C48.243 35.3169 55.806 41.1609 57.456 39.9239C59.106 38.6859 53.88 28.3049 55.599 27.1359C57.318 25.9669 62.956 30.4359 64.743 29.3359C66.531 28.2359 70.381 31.0549 72.168 30.0919C73.956 29.1299 74.369 25.8979 76.225 25.0049C78.081 24.1109 80.075 23.9049 82 23.1479C83.925 22.3919 85.919 22.4609 87.913 21.7729C89.906 21.0859 91.144 18.9539 93.138 18.3359C95.132 17.7169 97.194 18.1289 99.188 17.6479C101.182 17.1669 103.588 19.9859 105.582 19.6419C107.576 19.2979 108.538 12.1479 110.601 11.9419C112.663 11.7349 115.07 17.9229 117.132 17.7859C119.195 17.6479 120.913 13.3859 122.976 13.3859C125.039 13.3859 126.964 14.0039 129.026 14.0729C131.089 14.1419 132.67 17.7859 134.664 18.0609C136.658 18.3359 140.37 6.9919 142.433 7.3349C144.495 7.6789 146.97 7.67891 148.964 8.15991C150.958 8.64191 152.127 13.4539 154.121 14.0039C156.114 14.5539 159.139 12.5599 161.064 13.2479C162.99 13.9359 165.327 14.4169 167.252 15.2419C169.177 16.0669 166.84 26.3109 168.696 27.2049C170.552 28.0979 172.959 27.4799 174.746 28.5109C176.534 29.5419 180.315 26.9979 182.103 28.0979C183.89 29.1979 185.059 31.1229 186.778 32.2919C188.496 33.4609 191.04 33.5299 192.69 34.8359C194.34 36.1419 196.54 36.8299 198.053 38.2049C199.565 39.5799 197.159 45.0799 198.672 46.5239C200.184 47.9679 202.591 48.3109 203.966 49.8239C205.341 51.3359 206.509 52.9179 207.747 54.5679C208.984 56.2179 207.953 59.3119 209.191 61.0299C210.428 62.7489 217.097 60.6179 218.197 62.3369C219.297 64.0559 218.197 67.2179 219.16 69.0059C220.122 70.7929 218.61 73.8179 219.503 75.6749C220.397 77.5309 229.06 76.0179 229.816 77.8749C230.573 79.7309 230.985 82.1369 231.673 84.0619C232.36 85.9869 229.885 89.1499 230.435 91.1439C230.985 93.1379 230.298 95.4749 230.779 97.5379C231.26 99.5999 230.229 101.8 230.573 103.863C230.916 105.925 238.548 107.025 238.754 109.088C238.96 111.151 234.216 113.832 234.354 115.894C234.491 117.957 234.079 120.088 234.079 122.151L233.873 122.288Z" stroke="#E8EAE7" stroke-width="13.7504" stroke-miterlimit="10"/>
</g>
</svg>
