<svg  viewBox="0 0 542 539" fill="none" xmlns="http://www.w3.org/2000/svg">
<mask id="mask0_4_845" style="mask-type:luminance" maskUnits="userSpaceOnUse" x="0" y="-1" width="542" height="540">
<path d="M541.16 -0.00012207H0V538.667H541.16V-0.00012207Z" fill="white"/>
</mask>
<g mask="url(#mask0_4_845)">
<path d="M405.58 268.67C405.58 271.16 407.74 273.82 407.66 276.32C407.57 278.81 404.08 281.14 403.83 283.63C403.58 286.12 404 288.7 403.58 291.2C403.17 293.69 408.9 297.6 408.32 300.01C407.74 302.42 392.94 301.17 392.28 303.58C391.61 305.99 401.42 311.65 400.59 313.97C399.76 316.3 394.19 316.97 393.19 319.21C392.2 321.45 399.76 327.85 398.68 330.1C397.6 332.34 387.21 330.02 386.04 332.18C384.88 334.34 380.23 334.26 378.9 336.33C377.57 338.41 375.07 339.33 373.66 341.32C372.25 343.32 371.58 345.48 370.08 347.47C368.59 349.47 377.15 359.94 375.49 361.85C373.83 363.77 363.1 356.95 361.27 358.78C359.44 360.61 367.34 372.49 365.43 374.16C363.52 375.82 361.19 377.57 359.28 379.14C357.37 380.72 348.64 373.58 346.64 374.99C344.65 376.4 344.48 380.56 342.32 381.89C340.16 383.22 340.99 389.78 338.83 391.03C336.67 392.28 334.84 395.11 332.59 396.19C330.35 397.27 324.2 390.12 321.87 391.11C319.54 392.11 318.21 395.6 315.89 396.44C313.56 397.27 311.31 398.93 308.9 399.68C306.49 400.43 305 405.83 302.58 406.41C300.17 406.99 296.27 401.26 293.77 401.67C291.28 402.09 288.12 396.85 285.63 397.1C283.13 397.35 280.89 397.02 278.39 397.1C275.9 397.18 273.66 396.19 271.16 396.19C268.67 396.19 265.76 408.57 263.35 408.41C260.94 408.24 259.03 398.43 256.62 398.18C254.2 397.93 251.63 398.76 249.22 398.35C246.81 397.93 244.31 397.93 241.9 397.35C239.49 396.77 237.08 396.35 234.67 395.6C232.26 394.86 226.94 402.84 224.61 402C222.28 401.17 220.7 397.18 218.46 396.19C216.22 395.19 214.39 392.53 212.14 391.36C209.9 390.2 210.81 383.22 208.57 381.97C206.32 380.72 204 380.31 201.92 378.98C199.84 377.65 195.6 379.56 193.6 378.06C191.61 376.57 186.04 379.48 184.13 377.9C182.22 376.32 183.63 370.42 181.8 368.75C179.97 367.09 184.13 359.28 182.38 357.53C180.64 355.79 176.98 356.28 175.32 354.37C173.65 352.46 170.41 352.21 168.83 350.3C167.25 348.39 162.18 349.14 160.69 347.06C159.19 344.98 154.04 345.23 152.71 343.07C151.38 340.91 155.62 335.34 154.45 333.09C153.29 330.85 155.95 326.86 154.87 324.53C153.79 322.2 143.64 324.03 142.65 321.79C141.65 319.54 153.04 312.56 152.21 310.15C151.38 307.74 142.15 308.32 141.48 305.91C140.82 303.5 140.74 300.92 140.15 298.43C139.57 295.93 133.5 294.44 133.09 291.94C132.67 289.45 142.23 285.54 141.9 283.05C141.57 280.56 132.09 278.81 132.01 276.32C131.92 273.82 132.67 271 132.67 268.5C132.67 266.01 132.67 263.18 132.76 260.69C132.84 258.19 134.92 255.62 135.25 253.12C135.58 250.63 136.33 248.05 136.75 245.56C137.16 243.06 145.31 242.23 145.89 239.82C146.47 237.41 144.06 234.34 144.73 232.01C145.39 229.68 138.82 224.78 139.65 222.37C140.49 219.96 150.96 221.29 151.87 218.96C152.79 216.63 144.81 210.23 145.89 207.98C146.97 205.74 154.2 206.49 155.45 204.33C156.7 202.17 151.54 196.01 152.87 193.94C154.2 191.86 154.53 188.53 156.03 186.54C157.53 184.54 170 190.78 171.58 188.78C173.16 186.79 169.08 180.3 170.74 178.39C172.41 176.48 177.15 177.64 178.97 175.9C180.8 174.15 177.31 166.84 179.22 165.17C181.14 163.51 190.28 170.58 192.27 169.08C194.27 167.58 187.95 155.03 190.03 153.62C192.11 152.21 198.92 157.61 201.09 156.28C203.25 154.95 207.9 158.36 210.06 157.19C212.23 156.03 212.72 152.12 214.97 151.04C217.21 149.96 219.62 149.71 221.95 148.8C224.28 147.88 226.69 147.97 229.1 147.14C231.51 146.3 233.01 143.73 235.42 142.98C237.83 142.23 240.32 142.73 242.73 142.15C245.14 141.57 248.05 144.97 250.46 144.56C252.87 144.14 254.04 135.5 256.53 135.25C259.03 135 261.94 142.48 264.43 142.31C266.92 142.15 269 136.99 271.49 136.99C273.99 136.99 276.32 137.74 278.81 137.83C281.3 137.91 283.22 142.31 285.63 142.65C288.04 142.98 292.53 129.26 295.02 129.68C297.51 130.09 300.51 130.09 302.92 130.68C305.33 131.26 306.74 137.08 309.15 137.74C311.56 138.41 315.22 136 317.55 136.83C319.88 137.66 322.7 138.24 325.03 139.24C327.36 140.24 324.53 152.62 326.77 153.7C329.02 154.78 331.93 154.04 334.09 155.28C336.25 156.53 340.82 153.45 342.98 154.78C345.15 156.11 346.56 158.44 348.64 159.85C350.72 161.27 353.79 161.35 355.79 162.93C357.78 164.51 360.44 165.34 362.27 167C364.1 168.67 361.19 175.32 363.02 177.06C364.85 178.81 367.76 179.22 369.42 181.05C371.08 182.88 372.49 184.79 373.99 186.79C375.49 188.78 374.24 192.52 375.74 194.6C377.23 196.68 385.3 194.1 386.63 196.18C387.96 198.26 386.63 202.08 387.79 204.24C388.95 206.41 387.13 210.06 388.21 212.31C389.29 214.55 399.76 212.72 400.68 214.97C401.59 217.21 402.09 220.12 402.92 222.45C403.75 224.78 400.76 228.6 401.42 231.01C402.09 233.42 401.26 236.25 401.84 238.74C402.42 241.24 401.17 243.9 401.59 246.39C402.01 248.88 411.23 250.21 411.48 252.71C411.73 255.2 406 258.44 406.16 260.94C406.33 263.43 405.83 266.01 405.83 268.5L405.58 268.67Z" stroke="#E8EAE7" stroke-width="4.15638" stroke-miterlimit="10"/>
<path d="M528.19 268.67C528.19 271.16 532.43 273.82 532.43 276.23C532.43 278.64 526.03 280.97 525.95 283.47C525.86 285.96 527.11 288.54 526.86 291.03C526.61 293.52 538.58 297.43 538.25 299.84C537.92 302.25 509.82 301.09 509.49 303.58C509.16 306.08 529.77 311.73 529.27 314.14C528.77 316.55 518.88 317.3 518.38 319.71C517.88 322.12 534.93 328.6 534.43 331.01C533.93 333.42 514.14 331.18 513.48 333.59C512.81 336 504.83 336.08 504.17 338.41C503.5 340.74 499.93 341.82 499.18 344.23C498.43 346.64 499.18 349.05 498.35 351.38C497.52 353.71 520.63 365.18 519.71 367.42C518.8 369.67 495.86 362.85 494.86 365.18C493.86 367.51 517.39 380.81 516.39 383.05C515.39 385.3 513.73 387.79 512.65 389.95C511.57 392.11 491.78 384.8 490.62 386.96C489.45 389.12 493.86 394.36 492.61 396.52C491.37 398.68 500.01 406.91 498.68 408.99C497.35 411.07 498.68 415.31 497.27 417.38C495.86 419.46 480.14 411.98 478.73 413.98C477.32 415.97 480.23 421.21 478.73 423.2C477.24 425.2 477.15 428.36 475.57 430.27C473.99 432.18 479.56 440.33 477.98 442.16C476.4 443.98 465.43 438.17 463.77 439.99C462.11 441.82 452.55 436.25 450.8 438.08C449.05 439.91 446.73 440.66 444.98 442.4C443.24 444.15 440.24 444.15 438.41 445.9C436.59 447.64 450.8 466.76 448.97 468.42C447.14 470.09 433.18 457.78 431.27 459.45C429.35 461.11 429.02 464.27 427.11 465.85C425.2 467.43 423.78 469.5 421.79 471C419.79 472.5 418.05 474.08 415.97 475.49C413.89 476.9 421.62 492.95 419.54 494.28C417.47 495.61 411.81 491.95 409.65 493.28C407.49 494.61 403.5 493.03 401.34 494.28C399.18 495.52 390.87 485.55 388.62 486.71C386.38 487.88 385.13 490.29 382.97 491.45C380.81 492.61 381.89 500.34 379.64 501.34C377.4 502.34 379.31 513.23 377.07 514.23C374.82 515.22 368.34 506.66 366.01 507.58C363.68 508.49 355.79 494.03 353.46 494.86C351.13 495.69 350.96 501.76 348.64 502.59C346.31 503.42 345.39 508.24 343.07 508.91C340.74 509.57 340.66 518.63 338.33 519.3C336 519.96 335.34 528.77 332.93 529.36C330.51 529.94 325.19 518.22 322.78 518.72C320.37 519.21 316.47 511.57 314.06 511.98C311.65 512.4 312.14 531.68 309.73 532.02C307.32 532.35 301.67 507.83 299.18 508.16C296.68 508.49 296.1 525.7 293.69 525.95C291.28 526.2 288.62 525.2 286.12 525.28C283.63 525.37 281.47 536.42 278.98 536.51C276.48 536.59 273.66 517.47 271.16 517.47C268.67 517.47 265.84 535.26 263.43 535.18C261.02 535.09 258.28 533.35 255.78 533.18C253.29 533.01 250.55 533.1 248.05 532.85C245.56 532.6 243.23 528.86 240.74 528.61C238.24 528.36 235.75 527.2 233.26 526.86C230.76 526.53 230.76 511.32 228.35 510.9C225.94 510.49 222.53 515.81 220.12 515.31C217.71 514.81 211.98 528.77 209.56 528.19C207.15 527.61 209.48 507.99 207.07 507.41C204.66 506.83 197.1 524.37 194.68 523.7C192.27 523.04 193.77 509.82 191.36 508.99C188.95 508.16 181.8 520.96 179.47 520.13C177.14 519.3 173.4 520.96 171.16 520.05C168.92 519.13 176.56 493.86 174.32 492.86C172.07 491.87 164.18 503.75 161.93 502.67C159.69 501.59 161.02 493.28 158.77 492.2C156.53 491.12 147.55 502.84 145.39 501.67C143.23 500.51 151.71 480.31 149.55 479.06C147.38 477.82 131.76 499.1 129.68 497.77C127.6 496.44 133.92 481.56 131.84 480.23C129.76 478.9 133.67 469.17 131.59 467.76C129.51 466.35 124.19 470 122.2 468.59C120.2 467.18 119.29 464.52 117.38 463.02C115.46 461.52 114.97 458.53 113.05 456.95C111.14 455.37 106.9 456.79 105.07 455.21C103.24 453.63 102.91 450.55 101.08 448.81C99.2499 447.06 102.91 440.33 101.08 438.58C99.2499 436.84 86.29 446.4 84.54 444.57C82.79 442.74 92.19 431.1 90.53 429.19C88.86 427.28 79.97 432.1 78.39 430.19C76.81 428.27 76.31 425.7 74.73 423.7C73.15 421.71 78.22 415.14 76.73 413.14C75.23 411.15 51.8699 425.03 50.4599 422.95C49.0499 420.87 46.55 419.13 45.14 417.05C43.72 414.97 50.79 407.24 49.54 405.08C48.3 402.92 41.23 404 39.98 401.84C38.74 399.68 36.66 397.6 35.5 395.44C34.33 393.28 54.37 379.98 53.28 377.81C52.2 375.65 47.8 375.32 46.8 373.08C45.8 370.83 36.16 372.58 35.16 370.25C34.17 367.92 35.16 364.85 34.25 362.6C33.33 360.36 29.18 359.19 28.26 356.87C27.35 354.54 24.61 352.79 23.77 350.47C22.94 348.14 34.66 341.9 34 339.49C33.33 337.08 29.09 335.92 28.51 333.51C27.93 331.1 27.6 328.77 27.1 326.36C26.6 323.95 32.17 320.37 31.67 317.96C31.17 315.55 15.3799 316.13 14.9599 313.64C14.5499 311.15 19.95 307.82 19.62 305.33C19.29 302.83 25.2699 299.76 24.9399 297.26C24.6099 294.77 4.81999 294.27 4.56999 291.78C4.31999 289.28 5.23999 286.46 5.06999 283.96C4.89999 281.47 12.47 278.48 12.39 275.98C12.3 273.49 15.2099 270.91 15.2099 268.42C15.2099 265.93 18.54 263.51 18.62 261.1C18.7 258.69 1.66 255.28 1.83 252.79C1.99 250.3 13.55 248.39 13.8 245.97C14.05 243.56 4.48999 239.82 4.81999 237.41C5.14999 235 8.89004 232.59 9.31004 230.18C9.73004 227.77 25.0199 227.6 25.4399 225.19C25.8499 222.78 30.01 221.29 30.51 218.79C31.01 216.3 10.31 209.23 10.89 206.82C11.47 204.41 33.83 207.49 34.41 205.08C35 202.67 29.51 198.76 30.26 196.43C31.01 194.1 36.99 193.52 37.74 191.19C38.49 188.87 20.8599 180.05 21.6999 177.73C22.5299 175.4 45.72 181.63 46.63 179.39C47.55 177.14 48.38 175.15 49.29 172.91C50.21 170.66 52.2 169.25 53.28 167C54.37 164.76 43.56 157.11 44.72 154.87C45.89 152.62 31.9199 142.4 33.0799 140.24C34.2499 138.07 51.2099 144.48 52.4499 142.4C53.6999 140.32 45.39 132.34 46.72 130.26C48.05 128.18 51.5399 127.27 52.9499 125.19C54.3699 123.11 66.09 128.18 67.5 126.19C68.91 124.19 61.68 115.88 63.18 113.88C64.67 111.89 67.75 111.06 69.25 109.06C70.74 107.07 80.8799 112.31 82.4599 110.39C84.0399 108.48 72.8999 95.5999 74.5699 93.7699C76.2299 91.9399 88.9499 100.25 90.6899 98.4199C92.4399 96.5899 82.4599 83.4598 84.2099 81.7098C85.9499 79.9698 96.1 86.7899 97.92 85.0399C99.75 83.2899 89.6099 68.3299 91.4399 66.7499C93.2699 65.1699 105.65 75.2299 107.48 73.6499C109.31 72.0699 116.71 77.3899 118.71 75.8999C120.7 74.3999 116.96 65.7499 118.96 64.2599C120.95 62.7599 122.28 60.3498 124.28 58.9398C126.27 57.5198 130.43 59.2698 132.51 57.9398C134.58 56.6098 134.92 52.5399 136.99 51.2899C139.07 50.0399 141.4 49.0499 143.56 47.7999C145.72 46.5499 147.22 44.2199 149.38 42.9799C151.54 41.7299 156.78 46.5498 158.94 45.4698C161.1 44.3898 161.43 39.5699 163.68 38.4899C165.92 37.4099 167.92 35.9899 170.25 34.9999C172.57 33.9999 172.74 27.9299 174.98 27.0199C177.23 26.0999 178.56 21.9499 180.89 21.1099C183.21 20.2799 184.63 15.7899 186.95 15.0499C189.28 14.2999 199.01 36.9099 201.42 36.1599C203.83 35.4099 204.49 30.0099 206.9 29.4299C209.32 28.8499 211.56 28.5999 213.97 28.0099C216.38 27.4299 215.55 12.1399 217.96 11.6399C220.37 11.1399 223.7 14.7099 226.19 14.2999C228.68 13.8799 229.52 2.32988 232.01 1.99988C234.5 1.65988 238.33 9.88994 240.74 9.55994C243.15 9.22994 245.56 5.6499 247.97 5.3999C250.38 5.1499 253.46 10.6398 255.95 10.4698C258.44 10.3098 260.85 6.81986 263.35 6.72986C265.84 6.64986 268.5 17.7899 271 17.7899C273.49 17.7899 276.23 2.98983 278.73 3.07983C281.22 3.15983 283.38 13.3799 285.88 13.5499C288.37 13.7199 289.7 27.1799 292.11 27.3499C294.52 27.5199 297.51 20.3699 300.01 20.6199C302.5 20.8699 304 26.6799 306.41 27.0999C308.82 27.5199 315.55 1.57988 318.05 1.99988C320.54 2.40988 318.05 29.1799 320.37 29.6799C322.7 30.1799 324.7 31.4199 327.11 31.9999C329.52 32.5899 337.25 11.9699 339.66 12.5499C342.07 13.1299 342.98 19.6199 345.39 20.2799C347.81 20.9499 352.13 16.2098 354.46 16.9598C356.78 17.7098 359.28 19.0399 361.6 19.8699C363.93 20.6999 360.27 37.3199 362.6 38.2399C364.93 39.1499 371.91 28.5998 374.16 29.5898C376.4 30.5898 380.64 27.6799 382.89 28.7599C385.13 29.8399 379.06 47.9599 381.31 49.0499C383.55 50.1299 395.27 32.9999 397.43 34.1699C399.59 35.3299 394.52 49.7098 396.68 50.9598C398.85 52.1998 408.41 41.1499 410.57 42.3999C412.73 43.6399 417.55 41.3999 419.63 42.7299C421.71 44.0599 413.56 60.6799 415.64 62.0999C417.72 63.5099 429.35 51.8699 431.35 53.2799C433.34 54.6999 433.43 59.2699 435.34 60.7699C437.25 62.2599 425.61 80.4699 427.52 82.0499C429.44 83.6299 435.51 79.9699 437.33 81.6299C439.16 83.2899 454.54 70.4099 456.29 72.1499C458.03 73.8999 444.65 91.3599 446.48 93.0999C448.31 94.8499 461.19 85.7899 462.85 87.5299C464.52 89.2799 454.87 101.58 456.54 103.41C458.2 105.24 458.86 107.65 460.44 109.56C462.02 111.47 475.07 103.99 476.65 105.9C478.23 107.82 471.17 116.46 472.58 118.46C473.99 120.45 489.79 112.31 491.2 114.3C492.61 116.3 495.19 118.04 496.52 120.12C497.85 122.2 487.54 132.01 488.79 134.08C490.04 136.16 480.73 144.48 481.97 146.64C483.22 148.8 503.5 140.24 504.67 142.4C505.83 144.56 509.07 146.06 510.24 148.22C511.4 150.38 501.26 158.27 502.26 160.52C503.25 162.76 496.85 168.25 497.85 170.49C498.85 172.74 493.53 177.31 494.44 179.56C495.36 181.8 502.84 181.3 503.75 183.63C504.67 185.96 506.25 187.79 507.08 190.11C507.91 192.44 519.63 191.36 520.3 193.69C520.96 196.01 504.83 203.08 505.5 205.49C506.16 207.9 519.21 206.99 519.71 209.4C520.21 211.81 520.05 214.39 520.54 216.8C521.04 219.21 512.48 223.2 512.9 225.69C513.31 228.19 535.92 227.02 536.26 229.52C536.59 232.01 532.02 235.33 532.27 237.83C532.51 240.32 526.28 243.56 526.45 245.97C526.61 248.39 538.75 250.21 538.92 252.71C539.08 255.2 512.98 258.78 513.06 261.27C513.15 263.76 527.94 265.84 527.94 268.34L528.19 268.67Z" stroke="#E8EAE7" stroke-width="4.15638" stroke-miterlimit="10"/>
</g>
</svg>
