<svg  viewBox="0 0 361 361" fill="none" xmlns="http://www.w3.org/2000/svg">
<path d="M180.33 190.997C186.221 190.997 190.997 186.221 190.997 180.33C190.997 174.439 186.221 169.663 180.33 169.663C174.439 169.663 169.663 174.439 169.663 180.33C169.663 186.221 174.439 190.997 180.33 190.997Z" fill="white"/>
<path d="M156.33 190.997C162.221 190.997 166.997 186.221 166.997 180.33C166.997 174.439 162.221 169.663 156.33 169.663C150.439 169.663 145.663 174.439 145.663 180.33C145.663 186.221 150.439 190.997 156.33 190.997Z" fill="white" fill-opacity="0.9"/>
<path d="M132.33 190.997C138.221 190.997 142.997 186.221 142.997 180.33C142.997 174.439 138.221 169.663 132.33 169.663C126.439 169.663 121.663 174.439 121.663 180.33C121.663 186.221 126.439 190.997 132.33 190.997Z" fill="white" fill-opacity="0.75"/>
<path d="M109 190.997C114.523 190.997 119 186.221 119 180.33C119 174.439 114.523 169.663 109 169.663C103.477 169.663 99 174.439 99 180.33C99 186.221 103.477 190.997 109 190.997Z" fill="white" fill-opacity="0.65"/>
<path d="M85 190.997C90.5228 190.997 95 186.221 95 180.33C95 174.439 90.5228 169.663 85 169.663C79.4772 169.663 75 174.439 75 180.33C75 186.221 79.4772 190.997 85 190.997Z" fill="white" fill-opacity="0.55"/>
<path d="M61.6669 190.997C67.558 190.997 72.3336 186.221 72.3336 180.33C72.3336 174.439 67.558 169.663 61.6669 169.663C55.7759 169.663 51.0002 174.439 51.0002 180.33C51.0002 186.221 55.7759 190.997 61.6669 190.997Z" fill="white" fill-opacity="0.45"/>
<path d="M37.6669 190.997C43.558 190.997 48.3336 186.221 48.3336 180.33C48.3336 174.439 43.558 169.663 37.6669 169.663C31.7759 169.663 27.0002 174.439 27.0002 180.33C27.0002 186.221 31.7759 190.997 37.6669 190.997Z" fill="white" fill-opacity="0.35"/>
<path d="M13.6669 190.997C19.558 190.997 24.3336 186.221 24.3336 180.33C24.3336 174.439 19.558 169.663 13.6669 169.663C7.77588 169.663 3.00024 174.439 3.00024 180.33C3.00024 186.221 7.77588 190.997 13.6669 190.997Z" fill="white" fill-opacity="0.25"/>
<path d="M180.33 214.997C186.221 214.997 190.997 210.221 190.997 204.33C190.997 198.439 186.221 193.663 180.33 193.663C174.439 193.663 169.663 198.439 169.663 204.33C169.663 210.221 174.439 214.997 180.33 214.997Z" fill="white" fill-opacity="0.9"/>
<path d="M180.33 238.997C186.221 238.997 190.997 234.221 190.997 228.33C190.997 222.439 186.221 217.663 180.33 217.663C174.439 217.663 169.663 222.439 169.663 228.33C169.663 234.221 174.439 238.997 180.33 238.997Z" fill="white" fill-opacity="0.75"/>
<path d="M180.33 261.67C186.221 261.67 190.997 257.193 190.997 251.67C190.997 246.147 186.221 241.67 180.33 241.67C174.439 241.67 169.663 246.147 169.663 251.67C169.663 257.193 174.439 261.67 180.33 261.67Z" fill="white" fill-opacity="0.65"/>
<path d="M180.33 285.67C186.221 285.67 190.997 281.193 190.997 275.67C190.997 270.147 186.221 265.67 180.33 265.67C174.439 265.67 169.663 270.147 169.663 275.67C169.663 281.193 174.439 285.67 180.33 285.67Z" fill="white" fill-opacity="0.55"/>
<path d="M180.33 309.667C186.221 309.667 190.997 304.891 190.997 299C190.997 293.109 186.221 288.333 180.33 288.333C174.439 288.333 169.663 293.109 169.663 299C169.663 304.891 174.439 309.667 180.33 309.667Z" fill="white" fill-opacity="0.45"/>
<path d="M180.33 333.667C186.221 333.667 190.997 328.891 190.997 323C190.997 317.109 186.221 312.333 180.33 312.333C174.439 312.333 169.663 317.109 169.663 323C169.663 328.891 174.439 333.667 180.33 333.667Z" fill="white" fill-opacity="0.35"/>
<path d="M180.33 357.667C186.221 357.667 190.997 352.891 190.997 347C190.997 341.109 186.221 336.333 180.33 336.333C174.439 336.333 169.663 341.109 169.663 347C169.663 352.891 174.439 357.667 180.33 357.667Z" fill="white" fill-opacity="0.25"/>
<path d="M201 211C206.523 211 211 206.523 211 201C211 195.477 206.523 191 201 191C195.477 191 191 195.477 191 201C191 206.523 195.477 211 201 211Z" fill="white" fill-opacity="0.9"/>
<path d="M159.67 211C165.193 211 169.67 206.523 169.67 201C169.67 195.477 165.193 191 159.67 191C154.147 191 149.67 195.477 149.67 201C149.67 206.523 154.147 211 159.67 211Z" fill="white" fill-opacity="0.9"/>
<path d="M180.33 166.997C186.221 166.997 190.997 162.221 190.997 156.33C190.997 150.439 186.221 145.663 180.33 145.663C174.439 145.663 169.663 150.439 169.663 156.33C169.663 162.221 174.439 166.997 180.33 166.997Z" fill="white" fill-opacity="0.9"/>
<path d="M180.33 142.997C186.221 142.997 190.997 138.221 190.997 132.33C190.997 126.439 186.221 121.663 180.33 121.663C174.439 121.663 169.663 126.439 169.663 132.33C169.663 138.221 174.439 142.997 180.33 142.997Z" fill="white" fill-opacity="0.75"/>
<path d="M180.33 119C186.221 119 190.997 114.523 190.997 109C190.997 103.477 186.221 99 180.33 99C174.439 99 169.663 103.477 169.663 109C169.663 114.523 174.439 119 180.33 119Z" fill="white" fill-opacity="0.65"/>
<path d="M180.33 95C186.221 95 190.997 90.5228 190.997 85C190.997 79.4772 186.221 75 180.33 75C174.439 75 169.663 79.4772 169.663 85C169.663 90.5228 174.439 95 180.33 95Z" fill="white" fill-opacity="0.55"/>
<path d="M180.33 72.3367C186.221 72.3367 190.997 67.561 190.997 61.6699C190.997 55.7789 186.221 51.0034 180.33 51.0034C174.439 51.0034 169.663 55.7789 169.663 61.6699C169.663 67.561 174.439 72.3367 180.33 72.3367Z" fill="white" fill-opacity="0.45"/>
<path d="M180.33 48.3367C186.221 48.3367 190.997 43.561 190.997 37.6699C190.997 31.7789 186.221 27.0034 180.33 27.0034C174.439 27.0034 169.663 31.7789 169.663 37.6699C169.663 43.561 174.439 48.3367 180.33 48.3367Z" fill="white" fill-opacity="0.35"/>
<path d="M180.33 23.3333C186.221 23.3333 190.997 18.5576 190.997 12.6665C190.997 6.77545 186.221 2 180.33 2C174.439 2 169.663 6.77545 169.663 12.6665C169.663 18.5576 174.439 23.3333 180.33 23.3333Z" fill="white" fill-opacity="0.25"/>
<path d="M159.67 169.67C165.193 169.67 169.67 165.193 169.67 159.67C169.67 154.147 165.193 149.67 159.67 149.67C154.147 149.67 149.67 154.147 149.67 159.67C149.67 165.193 154.147 169.67 159.67 169.67Z" fill="white" fill-opacity="0.9"/>
<path d="M135.67 164.337C141.193 164.337 145.67 159.561 145.67 153.67C145.67 147.779 141.193 143.003 135.67 143.003C130.147 143.003 125.67 147.779 125.67 153.67C125.67 159.561 130.147 164.337 135.67 164.337Z" fill="white" fill-opacity="0.75"/>
<path d="M225 164.333C219.477 164.333 215 159.558 215 153.667C215 147.776 219.477 143 225 143C230.523 143 235 147.776 235 153.667C235 159.558 230.523 164.333 225 164.333Z" fill="white" fill-opacity="0.75"/>
<path d="M257.663 139.003C251.772 139.003 246.997 134.228 246.997 128.337C246.997 122.446 251.772 117.67 257.663 117.67C263.554 117.67 268.33 122.446 268.33 128.337C268.33 134.228 263.554 139.003 257.663 139.003Z" fill="white" fill-opacity="0.55"/>
<path d="M103 138.997C108.891 138.997 113.667 134.221 113.667 128.33C113.667 122.439 108.891 117.663 103 117.663C97.1089 117.663 92.3333 122.439 92.3333 128.33C92.3333 134.221 97.1089 138.997 103 138.997Z" fill="white" fill-opacity="0.55"/>
<path d="M104.334 224.337C110.225 224.337 115 229.112 115 235.003C115 240.894 110.225 245.67 104.334 245.67C98.4426 245.67 93.667 240.894 93.667 235.003C93.667 229.112 98.4426 224.337 104.334 224.337Z" fill="white" fill-opacity="0.55"/>
<path d="M256.33 224.333C250.439 224.333 245.663 229.109 245.663 235C245.663 240.891 250.439 245.667 256.33 245.667C262.221 245.667 266.997 240.891 266.997 235C266.997 229.109 262.221 224.333 256.33 224.333Z" fill="white" fill-opacity="0.55"/>
<path d="M275.67 167.003C270.147 167.003 265.67 162.228 265.67 156.337C265.67 150.446 270.147 145.67 275.67 145.67C281.193 145.67 285.67 150.446 285.67 156.337C285.67 162.228 281.193 167.003 275.67 167.003Z" fill="white" fill-opacity="0.55"/>
<path d="M85 166.997C90.5228 166.997 95 162.221 95 156.33C95 150.439 90.5228 145.663 85 145.663C79.4772 145.663 75 150.439 75 156.33C75 162.221 79.4772 166.997 85 166.997Z" fill="white" fill-opacity="0.55"/>
<path d="M86.9997 196.337C92.8908 196.337 97.6664 201.112 97.6664 207.003C97.6664 212.894 92.8908 217.67 86.9997 217.67C81.1087 217.67 76.333 212.894 76.333 207.003C76.333 201.112 81.1087 196.337 86.9997 196.337Z" fill="white" fill-opacity="0.55"/>
<path d="M273.67 196.333C267.779 196.333 263.003 201.109 263.003 207C263.003 212.891 267.779 217.667 273.67 217.667C279.561 217.667 284.337 212.891 284.337 207C284.337 201.109 279.561 196.333 273.67 196.333Z" fill="white" fill-opacity="0.55"/>
<path d="M205.663 119C199.772 119 194.997 114.523 194.997 109C194.997 103.477 199.772 99 205.663 99C211.554 99 216.33 103.477 216.33 109C216.33 114.523 211.554 119 205.663 119Z" fill="white" fill-opacity="0.65"/>
<path d="M231.003 85.6635C225.112 85.6635 220.337 80.8878 220.337 74.9968C220.337 69.1057 225.112 64.3301 231.003 64.3301C236.894 64.3301 241.67 69.1057 241.67 74.9968C241.67 80.8878 236.894 85.6635 231.003 85.6635Z" fill="white" fill-opacity="0.45"/>
<path d="M129.67 85.6667C135.561 85.6667 140.337 80.8911 140.337 75C140.337 69.1089 135.561 64.3333 129.67 64.3333C123.779 64.3333 119.003 69.1089 119.003 75C119.003 80.8911 123.779 85.6667 129.67 85.6667Z" fill="white" fill-opacity="0.45"/>
<path d="M129.667 277.67C135.558 277.67 140.333 282.147 140.333 287.67C140.333 293.193 135.558 297.67 129.667 297.67C123.776 297.67 119 293.193 119 287.67C119 282.147 123.776 277.67 129.667 277.67Z" fill="white" fill-opacity="0.45"/>
<path d="M231 277.67C225.109 277.67 220.333 282.147 220.333 287.67C220.333 293.193 225.109 297.67 231 297.67C236.891 297.67 241.667 293.193 241.667 287.67C241.667 282.147 236.891 277.67 231 277.67Z" fill="white" fill-opacity="0.45"/>
<path d="M259.003 111.003C253.112 111.003 248.337 106.228 248.337 100.337C248.337 94.4456 253.112 89.6699 259.003 89.6699C264.894 89.6699 269.67 94.4456 269.67 100.337C269.67 106.228 264.894 111.003 259.003 111.003Z" fill="white" fill-opacity="0.45"/>
<path d="M101.667 110.997C107.558 110.997 112.334 106.221 112.334 100.33C112.334 94.439 107.558 89.6633 101.667 89.6633C95.7759 89.6633 91.0002 94.439 91.0002 100.33C91.0002 106.221 95.7759 110.997 101.667 110.997Z" fill="white" fill-opacity="0.45"/>
<path d="M101.667 252.33C107.558 252.33 112.333 256.807 112.333 262.33C112.333 267.853 107.558 272.33 101.667 272.33C95.7756 272.33 91 267.853 91 262.33C91 256.807 95.7756 252.33 101.667 252.33Z" fill="white" fill-opacity="0.45"/>
<path d="M259 252.33C253.109 252.33 248.333 256.807 248.333 262.33C248.333 267.853 253.109 272.33 259 272.33C264.891 272.33 269.667 267.853 269.667 262.33C269.667 256.807 264.891 252.33 259 252.33Z" fill="white" fill-opacity="0.45"/>
<path d="M207.003 69.6699C201.112 69.6699 196.337 65.1928 196.337 59.6699C196.337 54.1471 201.112 49.6699 207.003 49.6699C212.894 49.6699 217.67 54.1471 217.67 59.6699C217.67 65.1928 212.894 69.6699 207.003 69.6699Z" fill="white" fill-opacity="0.45"/>
<path d="M153.67 69.6699C159.561 69.6699 164.337 65.1928 164.337 59.6699C164.337 54.1471 159.561 49.6699 153.67 49.6699C147.779 49.6699 143.003 54.1471 143.003 59.6699C143.003 65.1928 147.779 69.6699 153.67 69.6699Z" fill="white" fill-opacity="0.45"/>
<path d="M153.667 292.33C159.558 292.33 164.333 296.807 164.333 302.33C164.333 307.853 159.558 312.33 153.667 312.33C147.776 312.33 143 307.853 143 302.33C143 296.807 147.776 292.33 153.667 292.33Z" fill="white" fill-opacity="0.45"/>
<path d="M207 292.33C201.109 292.33 196.333 296.807 196.333 302.33C196.333 307.853 201.109 312.33 207 312.33C212.891 312.33 217.667 307.853 217.667 302.33C217.667 296.807 212.891 292.33 207 292.33Z" fill="white" fill-opacity="0.45"/>
<path d="M232.333 111.003C226.442 111.003 221.667 106.228 221.667 100.337C221.667 94.4456 226.442 89.6699 232.333 89.6699C238.224 89.6699 243 94.4456 243 100.337C243 106.228 238.224 111.003 232.333 111.003Z" fill="white" fill-opacity="0.55"/>
<path d="M128.33 110.997C134.221 110.997 138.997 106.221 138.997 100.33C138.997 94.439 134.221 89.6633 128.33 89.6633C122.439 89.6633 117.663 94.439 117.663 100.33C117.663 106.221 122.439 110.997 128.33 110.997Z" fill="white" fill-opacity="0.55"/>
<path d="M129.667 253.67C135.558 253.67 140.333 258.147 140.333 263.67C140.333 269.193 135.558 273.67 129.667 273.67C123.776 273.67 119 269.193 119 263.67C119 258.147 123.776 253.67 129.667 253.67Z" fill="white" fill-opacity="0.55"/>
<path d="M231 253.67C225.109 253.67 220.333 258.147 220.333 263.67C220.333 269.193 225.109 273.67 231 273.67C236.891 273.67 241.667 269.193 241.667 263.67C241.667 258.147 236.891 253.67 231 253.67Z" fill="white" fill-opacity="0.55"/>
<path d="M205.663 95C199.772 95 194.997 90.5228 194.997 85C194.997 79.4772 199.772 75 205.663 75C211.554 75 216.33 79.4772 216.33 85C216.33 90.5228 211.554 95 205.663 95Z" fill="white" fill-opacity="0.55"/>
<path d="M232.333 56.3301C226.442 56.3301 221.667 51.8529 221.667 46.3301C221.667 40.8072 226.442 36.3301 232.333 36.3301C238.224 36.3301 243 40.8072 243 46.3301C243 51.8529 238.224 56.3301 232.333 56.3301Z" fill="white" fill-opacity="0.35"/>
<path d="M128.33 56.3301C134.221 56.3301 138.997 51.8529 138.997 46.3301C138.997 40.8072 134.221 36.3301 128.33 36.3301C122.439 36.3301 117.663 40.8072 117.663 46.3301C117.663 51.8529 122.439 56.3301 128.33 56.3301Z" fill="white" fill-opacity="0.35"/>
<path d="M127 304.33C132.891 304.33 137.666 308.807 137.666 314.33C137.666 319.853 132.891 324.33 127 324.33C121.109 324.33 116.333 319.853 116.333 314.33C116.333 308.807 121.109 304.33 127 304.33Z" fill="white" fill-opacity="0.35"/>
<path d="M235 304.33C229.109 304.33 224.333 308.807 224.333 314.33C224.333 319.853 229.109 324.33 235 324.33C240.891 324.33 245.667 319.853 245.667 314.33C245.667 308.807 240.891 304.33 235 304.33Z" fill="white" fill-opacity="0.35"/>
<path d="M260.333 77.6635C254.442 77.6635 249.667 72.8878 249.667 66.9968C249.667 61.1057 254.442 56.3301 260.333 56.3301C266.224 56.3301 271 61.1057 271 66.9968C271 72.8878 266.224 77.6635 260.333 77.6635Z" fill="white" fill-opacity="0.35"/>
<path d="M100.333 77.6667C106.224 77.6667 111 72.8911 111 67C111 61.1089 106.224 56.3333 100.333 56.3333C94.4419 56.3333 89.6663 61.1089 89.6663 67C89.6663 72.8911 94.4419 77.6667 100.333 77.6667Z" fill="white" fill-opacity="0.35"/>
<path d="M98.333 282.997C103.856 282.997 108.333 287.772 108.333 293.663C108.333 299.554 103.856 304.33 98.333 304.33C92.8102 304.33 88.333 299.554 88.333 293.663C88.333 287.772 92.8102 282.997 98.333 282.997Z" fill="white" fill-opacity="0.35"/>
<path d="M263.67 283.003C258.147 283.003 253.67 287.779 253.67 293.67C253.67 299.561 258.147 304.337 263.67 304.337C269.193 304.337 273.67 299.561 273.67 293.67C273.67 287.779 269.193 283.003 263.67 283.003Z" fill="white" fill-opacity="0.35"/>
<path d="M289 105.67C283.477 105.67 279 101.193 279 95.6699C279 90.1471 283.477 85.6699 289 85.6699C294.523 85.6699 299 90.1471 299 95.6699C299 101.193 294.523 105.67 289 105.67Z" fill="white" fill-opacity="0.35"/>
<path d="M71.667 105.67C77.1898 105.67 81.667 101.193 81.667 95.6699C81.667 90.1471 77.1898 85.6699 71.667 85.6699C66.1441 85.6699 61.667 90.1471 61.667 95.6699C61.667 101.193 66.1441 105.67 71.667 105.67Z" fill="white" fill-opacity="0.35"/>
<path d="M70.333 255C75.8559 255 80.333 259.477 80.333 265C80.333 270.523 75.8559 275 70.333 275C64.8102 275 60.333 270.523 60.333 265C60.333 259.477 64.8102 255 70.333 255Z" fill="white" fill-opacity="0.35"/>
<path d="M291.67 255C286.147 255 281.67 259.477 281.67 265C281.67 270.523 286.147 275 291.67 275C297.193 275 301.67 270.523 301.67 265C301.67 259.477 297.193 255 291.67 255Z" fill="white" fill-opacity="0.35"/>
<path d="M309.663 139.003C303.772 139.003 298.997 134.228 298.997 128.337C298.997 122.446 303.772 117.67 309.663 117.67C315.554 117.67 320.33 122.446 320.33 128.337C320.33 134.228 315.554 139.003 309.663 139.003Z" fill="white" fill-opacity="0.35"/>
<path d="M50.9999 138.997C56.891 138.997 61.6666 134.221 61.6666 128.33C61.6666 122.439 56.891 117.663 50.9999 117.663C45.1089 117.663 40.3333 122.439 40.3333 128.33C40.3333 134.221 45.1089 138.997 50.9999 138.997Z" fill="white" fill-opacity="0.35"/>
<path d="M49.6667 221.667C55.5578 221.667 60.3334 226.442 60.3334 232.333C60.3334 238.224 55.5578 243 49.6667 243C43.7756 243 39 238.224 39 232.333C39 226.442 43.7756 221.667 49.6667 221.667Z" fill="white" fill-opacity="0.35"/>
<path d="M312.33 221.663C306.439 221.663 301.663 226.439 301.663 232.33C301.663 238.221 306.439 242.997 312.33 242.997C318.221 242.997 322.997 238.221 322.997 232.33C322.997 226.439 318.221 221.663 312.33 221.663Z" fill="white" fill-opacity="0.35"/>
<path d="M323.003 164.333C317.112 164.333 312.337 159.558 312.337 153.667C312.337 147.776 317.112 143 323.003 143C328.894 143 333.67 147.776 333.67 153.667C333.67 159.558 328.894 164.333 323.003 164.333Z" fill="white" fill-opacity="0.35"/>
<path d="M37.6669 164.337C43.558 164.337 48.3336 159.561 48.3336 153.67C48.3336 147.779 43.558 143.003 37.6669 143.003C31.7759 143.003 27.0002 147.779 27.0002 153.67C27.0002 159.561 31.7759 164.337 37.6669 164.337Z" fill="white" fill-opacity="0.35"/>
<path d="M36.3337 196.337C42.2247 196.337 47.0004 201.112 47.0004 207.003C47.0004 212.894 42.2247 217.67 36.3337 217.67C30.4426 217.67 25.667 212.894 25.667 207.003C25.667 201.112 30.4426 196.337 36.3337 196.337Z" fill="white" fill-opacity="0.35"/>
<path d="M326.33 196.333C320.807 196.333 316.33 201.109 316.33 207C316.33 212.891 320.807 217.667 326.33 217.667C331.853 217.667 336.33 212.891 336.33 207C336.33 201.109 331.853 196.333 326.33 196.333Z" fill="white" fill-opacity="0.35"/>
<path d="M205.663 47.0033C199.772 47.0033 194.997 42.2277 194.997 36.3366C194.997 30.4456 199.772 25.6699 205.663 25.6699C211.554 25.6699 216.33 30.4456 216.33 36.3366C216.33 42.2277 211.554 47.0033 205.663 47.0033Z" fill="white" fill-opacity="0.35"/>
<path d="M210.33 21.6635C204.807 21.6635 200.33 16.8878 200.33 10.9968C200.33 5.10572 204.807 0.330078 210.33 0.330078C215.853 0.330078 220.33 5.10572 220.33 10.9968C220.33 16.8878 215.853 21.6635 210.33 21.6635Z" fill="white" fill-opacity="0.25"/>
<path d="M210.33 339.003C204.807 339.003 200.33 343.779 200.33 349.67C200.33 355.561 204.807 360.337 210.33 360.337C215.853 360.337 220.33 355.561 220.33 349.67C220.33 343.779 215.853 339.003 210.33 339.003Z" fill="white" fill-opacity="0.25"/>
<path d="M152.337 338.997C158.228 338.997 163.003 343.772 163.003 349.663C163.003 355.554 158.228 360.33 152.337 360.33C146.446 360.33 141.67 355.554 141.67 349.663C141.67 343.772 146.446 338.997 152.337 338.997Z" fill="white" fill-opacity="0.25"/>
<path d="M150.33 21.6667C155.853 21.6667 160.33 16.8911 160.33 11C160.33 5.10894 155.853 0.333252 150.33 0.333252C144.807 0.333252 140.33 5.10894 140.33 11C140.33 16.8911 144.807 21.6667 150.33 21.6667Z" fill="white" fill-opacity="0.25"/>
<path d="M238.33 28.3301C232.807 28.3301 228.33 23.8529 228.33 18.3301C228.33 12.8072 232.807 8.33008 238.33 8.33008C243.853 8.33008 248.33 12.8072 248.33 18.3301C248.33 23.8529 243.853 28.3301 238.33 28.3301Z" fill="white" fill-opacity="0.25"/>
<path d="M238.33 332.33C232.807 332.33 228.33 336.807 228.33 342.33C228.33 347.853 232.807 352.33 238.33 352.33C243.853 352.33 248.33 347.853 248.33 342.33C248.33 336.807 243.853 332.33 238.33 332.33Z" fill="white" fill-opacity="0.25"/>
<path d="M123.667 332.33C129.19 332.33 133.667 336.807 133.667 342.33C133.667 347.853 129.19 352.33 123.667 352.33C118.144 352.33 113.667 347.853 113.667 342.33C113.667 336.807 118.144 332.33 123.667 332.33Z" fill="white" fill-opacity="0.25"/>
<path d="M122.33 28.3301C127.853 28.3301 132.33 23.8529 132.33 18.3301C132.33 12.8072 127.853 8.33008 122.33 8.33008C116.807 8.33008 112.33 12.8072 112.33 18.3301C112.33 23.8529 116.807 28.3301 122.33 28.3301Z" fill="white" fill-opacity="0.25"/>
<path d="M267.003 47.0033C261.112 47.0033 256.337 42.2277 256.337 36.3366C256.337 30.4456 261.112 25.6699 267.003 25.6699C272.894 25.6699 277.67 30.4456 277.67 36.3366C277.67 42.2277 272.894 47.0033 267.003 47.0033Z" fill="white" fill-opacity="0.25"/>
<path d="M263.67 316.33C258.147 316.33 253.67 320.807 253.67 326.33C253.67 331.853 258.147 336.33 263.67 336.33C269.193 336.33 273.67 331.853 273.67 326.33C273.67 320.807 269.193 316.33 263.67 316.33Z" fill="white" fill-opacity="0.25"/>
<path d="M98.333 316.33C103.856 316.33 108.333 320.807 108.333 326.33C108.333 331.853 103.856 336.33 98.333 336.33C92.8102 336.33 88.333 331.853 88.333 326.33C88.333 320.807 92.8102 316.33 98.333 316.33Z" fill="white" fill-opacity="0.25"/>
<path d="M97 44.3301C102.523 44.3301 107 39.8529 107 34.3301C107 28.8072 102.523 24.3301 97 24.3301C91.4772 24.3301 87 28.8072 87 34.3301C87 39.8529 91.4772 44.3301 97 44.3301Z" fill="white" fill-opacity="0.25"/>
<path d="M295.003 68.3301C289.112 68.3301 284.337 63.8529 284.337 58.3301C284.337 52.8072 289.112 48.3301 295.003 48.3301C300.894 48.3301 305.67 52.8072 305.67 58.3301C305.67 63.8529 300.894 68.3301 295.003 68.3301Z" fill="white" fill-opacity="0.25"/>
<path d="M295 292.33C289.109 292.33 284.333 296.807 284.333 302.33C284.333 307.853 289.109 312.33 295 312.33C300.891 312.33 305.667 307.853 305.667 302.33C305.667 296.807 300.891 292.33 295 292.33Z" fill="white" fill-opacity="0.25"/>
<path d="M66.9997 292.33C72.8908 292.33 77.6664 296.807 77.6664 302.33C77.6664 307.853 72.8908 312.33 66.9997 312.33C61.1087 312.33 56.333 307.853 56.333 302.33C56.333 296.807 61.1087 292.33 66.9997 292.33Z" fill="white" fill-opacity="0.25"/>
<path d="M66.9999 69.6699C72.891 69.6699 77.6666 65.1928 77.6666 59.6699C77.6666 54.1471 72.891 49.6699 66.9999 49.6699C61.1089 49.6699 56.3333 54.1471 56.3333 59.6699C56.3333 65.1928 61.1089 69.6699 66.9999 69.6699Z" fill="white" fill-opacity="0.25"/>
<path d="M319.003 103.003C313.112 103.003 308.337 98.2277 308.337 92.3366C308.337 86.4456 313.112 81.6699 319.003 81.6699C324.894 81.6699 329.67 86.4456 329.67 92.3366C329.67 98.2277 324.894 103.003 319.003 103.003Z" fill="white" fill-opacity="0.25"/>
<path d="M319 257.663C313.109 257.663 308.333 262.439 308.333 268.33C308.333 274.221 313.109 278.997 319 278.997C324.891 278.997 329.667 274.221 329.667 268.33C329.667 262.439 324.891 257.663 319 257.663Z" fill="white" fill-opacity="0.25"/>
<path d="M43.667 257.667C49.1898 257.667 53.667 262.442 53.667 268.333C53.667 274.224 49.1898 279 43.667 279C38.1441 279 33.667 274.224 33.667 268.333C33.667 262.442 38.1441 257.667 43.667 257.667Z" fill="white" fill-opacity="0.25"/>
<path d="M41.6669 102.997C47.558 102.997 52.3336 98.2211 52.3336 92.3301C52.3336 86.439 47.558 81.6633 41.6669 81.6633C35.7759 81.6633 31.0002 86.439 31.0002 92.3301C31.0002 98.2211 35.7759 102.997 41.6669 102.997Z" fill="white" fill-opacity="0.25"/>
<path d="M339.67 132.33C334.147 132.33 329.67 127.853 329.67 122.33C329.67 116.807 334.147 112.33 339.67 112.33C345.193 112.33 349.67 116.807 349.67 122.33C349.67 127.853 345.193 132.33 339.67 132.33Z" fill="white" fill-opacity="0.25"/>
<path d="M339.67 228.33C334.147 228.33 329.67 232.807 329.67 238.33C329.67 243.853 334.147 248.33 339.67 248.33C345.193 248.33 349.67 243.853 349.67 238.33C349.67 232.807 345.193 228.33 339.67 228.33Z" fill="white" fill-opacity="0.25"/>
<path d="M22.9997 228.33C28.8908 228.33 33.6664 232.807 33.6664 238.33C33.6664 243.853 28.8908 248.33 22.9997 248.33C17.1087 248.33 12.333 243.853 12.333 238.33C12.333 232.807 17.1087 228.33 22.9997 228.33Z" fill="white" fill-opacity="0.25"/>
<path d="M21 132.33C26.5228 132.33 31 127.853 31 122.33C31 116.807 26.5228 112.33 21 112.33C15.4772 112.33 11 116.807 11 122.33C11 127.853 15.4772 132.33 21 132.33Z" fill="white" fill-opacity="0.25"/>
<path d="M349.663 163.003C343.772 163.003 338.997 158.228 338.997 152.337C338.997 146.446 343.772 141.67 349.663 141.67C355.554 141.67 360.33 146.446 360.33 152.337C360.33 158.228 355.554 163.003 349.663 163.003Z" fill="white" fill-opacity="0.25"/>
<path d="M349.67 196.66C343.779 196.66 339.003 201.435 339.003 207.326C339.003 213.217 343.779 217.993 349.67 217.993C355.561 217.993 360.337 213.217 360.337 207.326C360.337 201.435 355.561 196.66 349.67 196.66Z" fill="white" fill-opacity="0.25"/>
<path d="M12.3337 196.663C18.2247 196.663 23.0004 201.439 23.0004 207.33C23.0004 213.221 18.2247 217.997 12.3337 217.997C6.44264 217.997 1.66699 213.221 1.66699 207.33C1.66699 201.439 6.44264 196.663 12.3337 196.663Z" fill="white" fill-opacity="0.25"/>
<path d="M10.9999 162.997C16.891 162.997 21.6666 158.221 21.6666 152.33C21.6666 146.439 16.891 141.663 10.9999 141.663C5.10888 141.663 0.333252 146.439 0.333252 152.33C0.333252 158.221 5.10888 162.997 10.9999 162.997Z" fill="white" fill-opacity="0.25"/>
<path d="M155 46.9966C160.891 46.9966 165.667 42.2211 165.667 36.3301C165.667 30.439 160.891 25.6633 155 25.6633C149.109 25.6633 144.333 30.439 144.333 36.3301C144.333 42.2211 149.109 46.9966 155 46.9966Z" fill="white" fill-opacity="0.35"/>
<path d="M153.667 313.667C159.558 313.667 164.333 318.442 164.333 324.333C164.333 330.224 159.558 335 153.667 335C147.776 335 143 330.224 143 324.333C143 318.442 147.776 313.667 153.667 313.667Z" fill="white" fill-opacity="0.35"/>
<path d="M208.33 313.663C202.439 313.663 197.663 318.439 197.663 324.33C197.663 330.221 202.439 334.997 208.33 334.997C214.221 334.997 218.997 330.221 218.997 324.33C218.997 318.439 214.221 313.663 208.33 313.663Z" fill="white" fill-opacity="0.35"/>
<path d="M155 95C160.891 95 165.667 90.5228 165.667 85C165.667 79.4772 160.891 75 155 75C149.109 75 144.333 79.4772 144.333 85C144.333 90.5228 149.109 95 155 95Z" fill="white" fill-opacity="0.55"/>
<path d="M156.337 268.33C162.228 268.33 167.003 272.807 167.003 278.33C167.003 283.853 162.228 288.33 156.337 288.33C150.446 288.33 145.67 283.853 145.67 278.33C145.67 272.807 150.446 268.33 156.337 268.33Z" fill="white" fill-opacity="0.55"/>
<path d="M204.33 268.33C198.439 268.33 193.663 272.807 193.663 278.33C193.663 283.853 198.439 288.33 204.33 288.33C210.221 288.33 214.997 283.853 214.997 278.33C214.997 272.807 210.221 268.33 204.33 268.33Z" fill="white" fill-opacity="0.55"/>
<path d="M155 119C160.891 119 165.667 114.523 165.667 109C165.667 103.477 160.891 99 155 99C149.109 99 144.333 103.477 144.333 109C144.333 114.523 149.109 119 155 119Z" fill="white" fill-opacity="0.65"/>
<path d="M153.667 241.67C159.558 241.67 164.333 246.147 164.333 251.67C164.333 257.193 159.558 261.67 153.667 261.67C147.776 261.67 143 257.193 143 251.67C143 246.147 147.776 241.67 153.667 241.67Z" fill="white" fill-opacity="0.65"/>
<path d="M205.67 241.67C199.779 241.67 195.003 246.147 195.003 251.67C195.003 257.193 199.779 261.67 205.67 261.67C211.561 261.67 216.337 257.193 216.337 251.67C216.337 246.147 211.561 241.67 205.67 241.67Z" fill="white" fill-opacity="0.65"/>
<path d="M231.003 139.003C225.112 139.003 220.337 134.228 220.337 128.337C220.337 122.446 225.112 117.67 231.003 117.67C236.894 117.67 241.67 122.446 241.67 128.337C241.67 134.228 236.894 139.003 231.003 139.003Z" fill="white" fill-opacity="0.65"/>
<path d="M129.67 138.997C135.561 138.997 140.337 134.221 140.337 128.33C140.337 122.439 135.561 117.663 129.67 117.663C123.779 117.663 119.003 122.439 119.003 128.33C119.003 134.221 123.779 138.997 129.67 138.997Z" fill="white" fill-opacity="0.65"/>
<path d="M128.334 221.667C134.225 221.667 139 226.442 139 232.333C139 238.224 134.225 243 128.334 243C122.443 243 117.667 238.224 117.667 232.333C117.667 226.442 122.443 221.667 128.334 221.667Z" fill="white" fill-opacity="0.65"/>
<path d="M231 221.663C225.109 221.663 220.333 226.439 220.333 232.33C220.333 238.221 225.109 242.997 231 242.997C236.891 242.997 241.667 238.221 241.667 232.33C241.667 226.439 236.891 221.663 231 221.663Z" fill="white" fill-opacity="0.65"/>
<path d="M250.33 165.663C244.807 165.663 240.33 160.888 240.33 154.997C240.33 149.106 244.807 144.33 250.33 144.33C255.853 144.33 260.33 149.106 260.33 154.997C260.33 160.888 255.853 165.663 250.33 165.663Z" fill="white" fill-opacity="0.65"/>
<path d="M283.003 140.333C277.112 140.333 272.337 135.558 272.337 129.667C272.337 123.776 277.112 119 283.003 119C288.894 119 293.67 123.776 293.67 129.667C293.67 135.558 288.894 140.333 283.003 140.333Z" fill="white" fill-opacity="0.45"/>
<path d="M77.6669 140.337C83.558 140.337 88.3336 135.561 88.3336 129.67C88.3336 123.779 83.558 119.003 77.6669 119.003C71.7759 119.003 67.0002 123.779 67.0002 129.67C67.0002 135.561 71.7759 140.337 77.6669 140.337Z" fill="white" fill-opacity="0.45"/>
<path d="M77.6667 221.667C83.5578 221.667 88.3334 226.442 88.3334 232.333C88.3334 238.224 83.5578 243 77.6667 243C71.7756 243 67 238.224 67 232.333C67 226.442 71.7756 221.667 77.6667 221.667Z" fill="white" fill-opacity="0.45"/>
<path d="M283 221.663C277.109 221.663 272.333 226.439 272.333 232.33C272.333 238.221 277.109 242.997 283 242.997C288.891 242.997 293.667 238.221 293.667 232.33C293.667 226.439 288.891 221.663 283 221.663Z" fill="white" fill-opacity="0.45"/>
<path d="M299.003 167.003C293.112 167.003 288.337 162.228 288.337 156.337C288.337 150.446 293.112 145.67 299.003 145.67C304.894 145.67 309.67 150.446 309.67 156.337C309.67 162.228 304.894 167.003 299.003 167.003Z" fill="white" fill-opacity="0.45"/>
<path d="M61.6669 166.997C67.558 166.997 72.3336 162.221 72.3336 156.33C72.3336 150.439 67.558 145.663 61.6669 145.663C55.7759 145.663 51.0002 150.439 51.0002 156.33C51.0002 162.221 55.7759 166.997 61.6669 166.997Z" fill="white" fill-opacity="0.45"/>
<path d="M61.6667 194.997C67.5578 194.997 72.3334 199.772 72.3334 205.663C72.3334 211.554 67.5578 216.33 61.6667 216.33C55.7756 216.33 51 211.554 51 205.663C51 199.772 55.7756 194.997 61.6667 194.997Z" fill="white" fill-opacity="0.45"/>
<path d="M299 195.003C293.109 195.003 288.333 199.779 288.333 205.67C288.333 211.561 293.109 216.337 299 216.337C304.891 216.337 309.667 211.561 309.667 205.67C309.667 199.779 304.891 195.003 299 195.003Z" fill="white" fill-opacity="0.45"/>
<path d="M110.333 165.667C115.856 165.667 120.333 160.891 120.333 155C120.333 149.109 115.856 144.333 110.333 144.333C104.81 144.333 100.333 149.109 100.333 155C100.333 160.891 104.81 165.667 110.333 165.667Z" fill="white" fill-opacity="0.65"/>
<path d="M109 194.997C114.523 194.997 119 199.772 119 205.663C119 211.554 114.523 216.33 109 216.33C103.477 216.33 99 211.554 99 205.663C99 199.772 103.477 194.997 109 194.997Z" fill="white" fill-opacity="0.65"/>
<path d="M250.33 195.003C244.807 195.003 240.33 199.779 240.33 205.67C240.33 211.561 244.807 216.337 250.33 216.337C255.853 216.337 260.33 211.561 260.33 205.67C260.33 199.779 255.853 195.003 250.33 195.003Z" fill="white" fill-opacity="0.65"/>
<path d="M225 196.333C219.477 196.333 215 201.109 215 207C215 212.891 219.477 217.667 225 217.667C230.523 217.667 235 212.891 235 207C235 201.109 230.523 196.333 225 196.333Z" fill="white" fill-opacity="0.75"/>
<path d="M134.33 196.337C139.853 196.337 144.33 201.112 144.33 207.003C144.33 212.894 139.853 217.67 134.33 217.67C128.807 217.67 124.33 212.894 124.33 207.003C124.33 201.112 128.807 196.337 134.33 196.337Z" fill="white" fill-opacity="0.75"/>
<path d="M155 145.67C160.891 145.67 165.667 141.193 165.667 135.67C165.667 130.147 160.891 125.67 155 125.67C149.109 125.67 144.333 130.147 144.333 135.67C144.333 141.193 149.109 145.67 155 145.67Z" fill="white" fill-opacity="0.75"/>
<path d="M205.663 145.67C199.772 145.67 194.997 141.193 194.997 135.67C194.997 130.147 199.772 125.67 205.663 125.67C211.554 125.67 216.33 130.147 216.33 135.67C216.33 141.193 211.554 145.67 205.663 145.67Z" fill="white" fill-opacity="0.75"/>
<path d="M205.67 215C199.779 215 195.003 219.477 195.003 225C195.003 230.523 199.779 235 205.67 235C211.561 235 216.337 230.523 216.337 225C216.337 219.477 211.561 215 205.67 215Z" fill="white" fill-opacity="0.75"/>
<path d="M153.667 215C159.558 215 164.333 219.477 164.333 225C164.333 230.523 159.558 235 153.667 235C147.776 235 143 230.523 143 225C143 219.477 147.776 215 153.667 215Z" fill="white" fill-opacity="0.75"/>
<path d="M204.33 190.997C210.221 190.997 214.997 186.221 214.997 180.33C214.997 174.439 210.221 169.663 204.33 169.663C198.439 169.663 193.663 174.439 193.663 180.33C193.663 186.221 198.439 190.997 204.33 190.997Z" fill="white" fill-opacity="0.9"/>
<path d="M228.33 190.997C234.221 190.997 238.997 186.221 238.997 180.33C238.997 174.439 234.221 169.663 228.33 169.663C222.439 169.663 217.663 174.439 217.663 180.33C217.663 186.221 222.439 190.997 228.33 190.997Z" fill="white" fill-opacity="0.75"/>
<path d="M251.67 190.997C257.193 190.997 261.67 186.221 261.67 180.33C261.67 174.439 257.193 169.663 251.67 169.663C246.147 169.663 241.67 174.439 241.67 180.33C241.67 186.221 246.147 190.997 251.67 190.997Z" fill="white" fill-opacity="0.65"/>
<path d="M275.67 190.997C281.193 190.997 285.67 186.221 285.67 180.33C285.67 174.439 281.193 169.663 275.67 169.663C270.147 169.663 265.67 174.439 265.67 180.33C265.67 186.221 270.147 190.997 275.67 190.997Z" fill="white" fill-opacity="0.55"/>
<path d="M299 190.997C304.891 190.997 309.667 186.221 309.667 180.33C309.667 174.439 304.891 169.663 299 169.663C293.109 169.663 288.333 174.439 288.333 180.33C288.333 186.221 293.109 190.997 299 190.997Z" fill="white" fill-opacity="0.45"/>
<path d="M323 190.997C328.891 190.997 333.667 186.221 333.667 180.33C333.667 174.439 328.891 169.663 323 169.663C317.109 169.663 312.333 174.439 312.333 180.33C312.333 186.221 317.109 190.997 323 190.997Z" fill="white" fill-opacity="0.35"/>
<path d="M347 190.997C352.891 190.997 357.667 186.221 357.667 180.33C357.667 174.439 352.891 169.663 347 169.663C341.109 169.663 336.333 174.439 336.333 180.33C336.333 186.221 341.109 190.997 347 190.997Z" fill="white" fill-opacity="0.25"/>
<path d="M201 169.67C206.523 169.67 211 165.193 211 159.67C211 154.147 206.523 149.67 201 149.67C195.477 149.67 191 154.147 191 159.67C191 165.193 195.477 169.67 201 169.67Z" fill="white" fill-opacity="0.9"/>
</svg>
