<svg  viewBox="0 0 684 362" fill="none" xmlns="http://www.w3.org/2000/svg">
<mask id="mask0_4_723" style="mask-type:luminance" maskUnits="userSpaceOnUse" x="0" y="0" width="684" height="362">
<path d="M683.334 0.329834H0.666992V361.663H683.334V0.329834Z" fill="white"/>
</mask>
<g mask="url(#mask0_4_723)">
<path d="M129.403 312.25C198.563 345.08 295.14 347.66 360.815 316.9C390.53 302.99 403.223 287.26 443.525 278.73C491.16 268.64 509.237 283.02 553.786 269.83C556.811 268.93 623.502 248.56 625.342 216.84C626.6 195.08 596.279 186.29 598.832 163.59C601.373 141.01 632.734 137.09 635.565 122.98C643.527 83.3199 424.179 -28.9301 199.374 9.0999C141.866 18.8399 43.244 35.5199 11.665 99.7099C-24.125 172.47 43.377 271.42 129.403 312.26V312.25Z" stroke="#E8EAE7" stroke-width="2.41986" stroke-miterlimit="10"/>
<path d="M152.682 322.17C221.842 355.01 318.419 357.59 384.094 326.83C413.81 312.92 426.502 297.19 466.804 288.65C514.439 278.56 532.516 292.94 577.065 279.75C580.09 278.86 646.782 258.49 648.621 226.76C649.879 205 619.558 196.22 622.111 173.51C624.652 150.94 656.013 147.01 658.845 132.91C666.806 93.2399 447.458 -19.0002 222.653 19.0198C165.133 28.7598 66.511 45.4398 34.944 109.64C-0.84602 182.4 66.656 281.35 152.682 322.18V322.17Z" stroke="#E8EAE7" stroke-width="2.41986" stroke-miterlimit="10"/>
<path d="M150.517 333.16C223.318 367.33 324.819 370.22 393.749 338.51C424.929 324.16 438.226 307.89 480.561 299.14C530.592 288.79 549.636 303.74 596.424 290.18C599.606 289.26 669.625 268.3 671.452 235.44C672.71 212.9 640.817 203.74 643.43 180.21C646.031 156.83 678.978 152.83 681.906 138.23C690.145 97.1398 459.254 -19.6502 223.1 19.2398C162.676 29.1798 59.082 46.2399 26.112 112.68C-11.263 187.99 59.99 290.66 150.529 333.17L150.517 333.16Z" stroke="#E8EAE7" stroke-width="2.41986" stroke-miterlimit="10"/>
</g>
</svg>
