<svg viewBox="0 0 1343 503" fill="none" xmlns="http://www.w3.org/2000/svg">
<path d="M863.67 119V495" stroke="white" stroke-width="4"/>
<path d="M318.333 113.67V496.33" stroke="white" stroke-width="1.33333"/>
<path d="M69 289.67V497.67" stroke="white" stroke-width="1.33333"/>
<path d="M3 268.33V503" stroke="white" stroke-width="5.33333"/>
<path d="M1137.67 255V495" stroke="white" stroke-width="8"/>
<path d="M591 68.3298V496.33" stroke="white" stroke-width="2.66667"/>
<path d="M1271 188.33V495" stroke="white" stroke-width="2.66667"/>
<path d="M726.33 144.33V496.33" stroke="white" stroke-width="1.33333"/>
<path d="M999.67 203V495" stroke="white" stroke-width="4"/>
<path d="M454.333 6.99988V496.33" stroke="white" stroke-width="1.33333"/>
<path d="M205 275V497.67" stroke="white" stroke-width="1.33333"/>
<path d="M1205.67 233.67V495" stroke="white" stroke-width="8"/>
<path d="M658.33 119V496.33" stroke="white" stroke-width="1.33333"/>
<path d="M1340.33 101.67V495" stroke="white" stroke-width="5.33333"/>
<path d="M794.33 144.33V496.33" stroke="white" stroke-width="1.33333"/>
<path d="M930.33 119V495" stroke="white" stroke-width="1.33333"/>
<path d="M387 52.3298V496.33" stroke="white" stroke-width="2.66667"/>
<path d="M137.667 299V497.67" stroke="white" stroke-width="2.66667"/>
<path d="M1157.84 249.62L1160.52 494.96" stroke="white" stroke-width="8"/>
<path d="M613.67 91V496.33" stroke="white" stroke-width="2.66667"/>
<path d="M1293.67 151V495" stroke="white" stroke-width="2.66667"/>
<path d="M750.33 149.67V496.33" stroke="white" stroke-width="4"/>
<path d="M1067 243V495" stroke="white" stroke-width="2.66667"/>
<path d="M523.67 12.3298V496.33" stroke="white" stroke-width="4"/>
<path d="M275 211V497.67" stroke="white" stroke-width="5.33333"/>
<path d="M1225 217.67V495" stroke="white" stroke-width="1.33333"/>
<path d="M681 127V496.33" stroke="white" stroke-width="1.33333"/>
<path d="M818.33 137.67V496.33" stroke="white" stroke-width="4"/>
<path d="M885.48 113.66L886.86 494.99" stroke="white" stroke-width="4"/>
<path d="M341.667 99V496.33" stroke="white" stroke-width="2.66667"/>
<path d="M91.667 292.33V497.67" stroke="white" stroke-width="1.33333"/>
<path d="M25.667 275V503" stroke="white" stroke-width="5.33333"/>
<path d="M1112.95 255.03L1111.6 495" stroke="white" stroke-width="1.33333"/>
<path d="M567.67 52.3298V496.33" stroke="white" stroke-width="1.33333"/>
<path d="M1247.67 203V495" stroke="white" stroke-width="1.33333"/>
<path d="M703.67 137.67V496.33" stroke="white" stroke-width="1.33333"/>
<path d="M1021 217.67V495" stroke="white" stroke-width="1.33333"/>
<path d="M477 0.329834V496.33" stroke="white" stroke-width="1.33333"/>
<path d="M229.667 260.33V497.67" stroke="white" stroke-width="5.33333"/>
<path d="M1183 243V495" stroke="white" stroke-width="8"/>
<path d="M638.33 113.67L635.67 496.34" stroke="white" stroke-width="1.33333"/>
<path d="M1315.67 127V495" stroke="white" stroke-width="1.33333"/>
<path d="M773 149.67V496.33" stroke="white" stroke-width="4"/>
<path d="M953 151V495" stroke="white" stroke-width="1.33333"/>
<path d="M409.667 34.9999V496.33" stroke="white" stroke-width="2.66667"/>
<path d="M160.333 292.33V497.67" stroke="white" stroke-width="2.66667"/>
<path d="M1089 249.67V495" stroke="white" stroke-width="1.33333"/>
<path d="M546.33 29.6699V496.33" stroke="white" stroke-width="4"/>
<path d="M841 127V495" stroke="white" stroke-width="4"/>
<path d="M297.667 164.33V496.33" stroke="white" stroke-width="5.33333"/>
<path d="M48.333 284.33V497.67" stroke="white" stroke-width="5.33333"/>
<path d="M977 179V495" stroke="white" stroke-width="4"/>
<path d="M431.667 17.6699V496.33" stroke="white" stroke-width="1.33333"/>
<path d="M182.333 284.33V497.67" stroke="white" stroke-width="1.33333"/>
<path d="M907.67 101.67V495" stroke="white" stroke-width="1.33333"/>
<path d="M363.667 72.3298V496.33" stroke="white" stroke-width="1.33333"/>
<path d="M114.333 299V497.67" stroke="white" stroke-width="1.33333"/>
<path d="M1044.33 233.67V495" stroke="white" stroke-width="2.66667"/>
<path d="M501 0.329834V496.33" stroke="white" stroke-width="4"/>
<path d="M252.333 240.33V497.67" stroke="white" stroke-width="5.33333"/>
</svg>
