<svg  viewBox="0 0 642 783" fill="none" xmlns="http://www.w3.org/2000/svg">
<path d="M203.149 464.315C134.767 425.444 77.5714 382.016 40.3748 343.24C21.7733 323.849 8.2008 305.651 0.721129 289.792C-6.76813 273.913 -8.08353 260.532 -2.45651 250.633C3.17051 240.734 15.3417 235.018 32.8166 233.33C50.2692 231.644 72.8498 233.996 99.0271 240.06C151.373 252.185 217.948 279.113 286.33 317.984C354.711 356.855 411.907 400.284 449.104 439.059C467.705 458.45 481.278 476.649 488.758 492.507C496.247 508.386 497.562 521.768 491.935 531.667C486.308 541.566 474.137 547.281 456.662 548.969C439.209 550.655 416.629 548.303 390.452 542.239C338.106 530.115 271.53 503.186 203.149 464.315Z" stroke="white" stroke-width="1.33333"/>
<path d="M191.847 456.507C131.223 406.262 82.3221 353.42 52.263 308.62C37.2309 286.216 26.9331 265.856 22.2227 248.86C17.5063 231.842 18.4312 218.358 25.5869 209.516C32.7425 200.674 45.6232 197.099 63.0392 198.425C80.4328 199.748 102.187 205.953 126.854 216.451C176.179 237.445 237.008 275.547 297.632 325.792C358.256 376.037 407.156 428.879 437.215 473.679C452.247 496.083 462.545 516.443 467.256 533.439C471.972 550.457 471.047 563.941 463.891 572.783C456.736 581.625 443.855 585.2 426.439 583.874C409.045 582.55 387.292 576.346 362.625 565.848C313.299 544.854 252.47 506.752 191.847 456.507Z" stroke="white" stroke-width="1.33333"/>
<path d="M227.421 473.218C149.858 458.542 81.6148 436.006 33.9856 411.45C10.1669 399.17 -8.46165 386.402 -20.5256 373.886C-32.6055 361.354 -37.9923 349.197 -35.6498 338.096C-33.3074 326.995 -23.4004 317.732 -7.16206 310.558C9.05479 303.393 31.4344 298.385 58.4078 295.715C112.345 290.377 184.494 294.405 262.057 309.081C339.621 323.757 407.864 346.293 455.493 370.849C479.312 383.129 497.94 395.897 510.004 408.413C522.084 420.945 527.471 433.102 525.128 444.203C522.786 455.303 512.879 464.567 496.641 471.741C480.424 478.905 458.044 483.914 431.071 486.583C377.133 491.922 304.985 487.894 227.421 473.218Z" stroke="white" stroke-width="1.33333"/>
<path d="M214.174 469.494C140.543 441.647 77.3523 407.611 34.7102 375.11C13.3856 358.856 -2.76885 343.011 -12.5276 328.541C-22.2988 314.052 -25.5706 301.082 -21.4355 290.482C-17.3004 279.883 -6.05082 272.405 11.0591 268.083C28.147 263.766 50.9215 262.643 77.8137 264.625C131.589 268.589 201.673 284.957 275.304 312.804C348.936 340.652 412.126 374.688 454.768 407.189C476.093 423.443 492.247 439.288 502.006 453.758C511.777 468.247 515.049 481.217 510.914 491.816C506.779 502.416 495.529 509.894 478.419 514.216C461.331 518.533 438.557 519.656 411.665 517.673C357.889 513.71 287.806 497.342 214.174 469.494Z" stroke="white" stroke-width="1.33333"/>
<path d="M198.02 461.133C132.816 417.111 79.074 369.38 44.8917 327.812C27.7977 307.025 15.6204 287.809 9.33487 271.393C3.04125 254.957 2.70855 241.482 9.02935 232.014C15.3502 222.546 27.8773 217.753 45.3879 217.388C62.8762 217.022 85.1723 221.08 110.776 229.12C161.976 245.197 226.254 277.145 291.458 321.166C356.663 365.188 410.405 412.919 444.587 454.487C461.681 475.274 473.858 494.49 480.144 510.906C486.437 527.343 486.77 540.817 480.449 550.285C474.128 559.754 461.601 564.546 444.091 564.912C426.602 565.277 404.306 561.219 378.702 553.179C327.502 537.103 263.224 505.154 198.02 461.133Z" stroke="white" stroke-width="1.33333"/>
<path d="M187.344 452.474C130.689 397.671 85.8868 341.158 59.2457 294.108C45.9229 270.579 37.1616 249.451 33.7144 232.107C30.2628 214.741 32.1669 201.334 39.931 193.039C47.6951 184.743 60.7716 182.144 78.0042 184.785C95.2144 187.424 116.407 195.27 140.185 207.628C187.732 232.34 245.478 275.022 302.134 329.826C358.79 384.629 403.591 441.141 430.233 488.191C443.555 511.72 452.317 532.848 455.764 550.192C459.215 567.558 457.311 580.965 449.547 589.26C441.783 597.556 428.707 600.156 411.474 597.514C394.264 594.876 373.071 587.03 349.293 574.671C301.746 549.959 244 507.277 187.344 452.474Z" stroke="white" stroke-width="1.33333"/>
<path d="M221.521 471.868C145.417 451.335 79.1594 423.65 33.5598 395.505C10.7562 381.431 -6.84781 367.261 -17.9384 353.84C-29.0434 340.401 -33.5172 327.842 -30.3764 316.923C-27.2356 306.004 -16.7017 297.495 -0.0219052 291.552C16.6362 285.618 39.2691 282.304 66.302 281.675C120.359 280.418 191.852 289.899 267.957 310.432C344.062 330.965 410.319 358.65 455.919 386.794C478.723 400.869 496.326 415.039 507.417 428.46C518.522 441.899 522.996 454.457 519.855 465.376C516.714 476.295 506.18 484.805 489.501 490.747C472.842 496.682 450.21 499.996 423.177 500.624C369.12 501.882 297.626 492.401 221.521 471.868Z" stroke="white" stroke-width="1.33333"/>
<path d="M208.612 467.143C137.38 433.743 76.9889 394.946 36.9308 359.238C16.8985 341.381 1.98074 324.322 -6.6737 309.121C-15.3392 293.902 -17.6487 280.69 -12.761 270.409C-7.8733 260.127 3.86583 253.503 21.2052 250.477C38.5224 247.455 61.2647 248.054 87.8778 252.069C141.095 260.097 209.634 281.755 280.866 315.156C352.098 348.556 412.489 387.353 452.547 423.061C472.58 440.919 487.497 457.978 496.152 473.178C504.817 488.398 507.127 501.609 502.239 511.89C497.351 522.172 485.612 528.796 468.273 531.822C450.956 534.844 428.213 534.245 401.6 530.23C348.383 522.202 279.844 500.544 208.612 467.143Z" stroke="white" stroke-width="1.33333"/>
<path d="M169.346 426.192C138.215 352.864 118.543 282.549 111.893 228.155C108.567 200.953 108.503 177.772 111.869 160.201C115.239 142.604 122.01 130.807 132.201 126.07C142.392 121.333 155.297 123.985 170.035 133.165C184.752 142.332 201.148 157.922 218.209 178.74C252.325 220.368 289.001 282.779 320.132 356.107C351.264 429.435 370.936 499.75 377.586 554.145C380.911 581.346 380.975 604.527 377.61 622.098C374.24 639.695 367.469 651.493 357.278 656.229C347.087 660.966 334.181 658.314 319.443 649.134C304.727 639.967 288.331 624.377 271.27 603.56C237.154 561.931 200.477 499.52 169.346 426.192Z" stroke="white" stroke-width="1.33333"/>
<path d="M165.011 412.935C146.618 334.939 138.964 261.895 141.445 206.858C142.685 179.336 146.459 156.356 152.667 139.523C158.885 122.664 167.477 112.14 178.249 109.196C189.021 106.253 201.236 111.092 214.171 122.717C227.086 134.325 240.585 152.585 253.87 176.139C280.437 223.238 306.074 291.369 324.467 369.364C342.86 447.36 350.514 520.404 348.034 575.441C346.793 602.964 343.02 625.943 336.811 642.776C330.594 659.636 322.002 670.159 311.23 673.103C300.458 676.046 288.243 671.208 275.308 659.582C262.393 647.974 248.894 629.714 235.608 606.16C209.042 559.061 183.404 490.93 165.011 412.935Z" stroke="white" stroke-width="1.33333"/>
<path d="M183.243 448.196C130.776 389.223 90.2267 329.419 67.0747 280.418C55.4967 255.913 48.2867 234.145 46.0948 216.554C43.9001 198.939 46.7528 185.68 55.0708 177.964C63.3888 170.248 76.587 168.617 93.548 172.533C110.487 176.445 131.016 185.856 153.797 199.97C199.349 228.191 253.767 275.13 306.235 334.103C358.703 393.076 399.252 452.88 422.404 501.882C433.982 526.387 441.192 548.154 443.384 565.746C445.578 583.36 442.726 596.619 434.408 604.335C426.09 612.051 412.892 613.682 395.931 609.766C378.992 605.854 358.462 596.443 335.682 582.33C290.129 554.108 235.711 507.17 183.243 448.196Z" stroke="white" stroke-width="1.33333"/>
<path d="M174.997 437.121C133.305 369.688 103.438 303.477 88.8438 250.953C81.5454 224.686 78.0773 201.881 78.8392 184.075C79.6021 166.244 84.5943 153.599 94.0248 147.383C103.455 141.167 116.666 141.814 132.651 148.604C148.615 155.386 167.19 168.233 187.194 186.125C227.194 221.903 272.79 277.746 314.482 345.179C356.174 412.611 386.041 478.822 400.635 531.346C407.933 557.613 411.401 580.418 410.639 598.224C409.877 616.055 404.884 628.7 395.454 634.916C386.023 641.132 372.813 640.485 356.827 633.695C340.863 626.913 322.288 614.066 302.285 596.174C262.285 560.396 216.688 504.553 174.997 437.121Z" stroke="white" stroke-width="1.33333"/>
<path d="M167.169 420.473C141.542 344.828 127.097 273.061 124.448 218.192C123.123 190.752 124.75 167.578 129.38 150.27C134.017 132.936 141.615 121.658 152.098 117.695C162.581 113.733 175.228 117.358 189.223 127.648C203.198 137.923 218.375 154.745 233.832 176.842C264.742 221.029 296.683 286.182 322.31 361.826C347.937 437.471 362.381 509.238 365.031 564.107C366.356 591.547 364.728 614.721 360.098 632.029C355.461 649.363 347.863 660.641 337.38 664.604C326.897 668.566 314.251 664.941 300.255 654.651C286.28 644.376 271.103 627.554 255.646 605.457C224.737 561.27 192.796 496.117 167.169 420.473Z" stroke="white" stroke-width="1.33333"/>
<path d="M163.823 406.895C151.211 327.548 148.923 253.962 155.405 199.141C158.647 171.726 164.078 149.043 171.483 132.688C178.9 116.306 188.217 106.439 199.147 104.312C210.077 102.185 221.877 107.944 233.9 120.542C245.904 133.121 258.004 152.393 269.505 176.939C292.503 226.023 313.044 296.058 325.656 375.404C338.268 454.751 340.556 528.337 334.073 583.158C330.831 610.573 325.4 633.256 317.995 649.611C310.578 665.993 301.262 675.86 290.332 677.987C279.402 680.114 267.601 674.355 255.578 661.757C243.574 649.178 231.474 629.906 219.973 605.36C196.975 556.276 176.435 486.241 163.823 406.895Z" stroke="white" stroke-width="1.33333"/>
<path d="M179.391 443.517C131.487 380.607 95.5027 317.767 76.0405 267.04C66.3078 241.672 60.7215 219.37 59.8237 201.622C58.9247 183.85 62.7306 170.814 71.5685 163.732C80.4065 156.65 93.6568 156.017 110.248 161.214C126.817 166.404 146.558 177.363 168.195 193.192C211.461 224.844 262.184 275.873 310.087 338.783C357.991 401.693 393.976 464.532 413.438 515.26C423.17 540.628 428.757 562.93 429.655 580.678C430.554 598.45 426.748 611.485 417.91 618.568C409.072 625.65 395.821 626.282 379.23 621.085C362.662 615.895 342.921 604.936 321.284 589.108C278.017 557.456 227.295 506.427 179.391 443.517Z" stroke="white" stroke-width="1.33333"/>
<path d="M171.994 431.823C135.429 361.272 110.541 292.836 99.8504 239.235C94.5043 212.43 92.717 189.374 94.7738 171.635C96.8336 153.87 102.723 141.61 112.558 136.111C122.393 130.612 135.489 132.257 150.901 140.253C166.29 148.238 183.835 162.484 202.434 181.879C239.625 220.663 280.92 279.926 317.485 350.476C354.05 421.027 378.938 489.463 389.628 543.063C394.974 569.868 396.761 592.925 394.705 610.664C392.645 628.429 386.755 640.689 376.92 646.188C367.085 651.687 353.989 650.042 338.578 642.046C323.188 634.06 305.643 619.815 287.044 600.42C249.854 561.636 208.558 502.373 171.994 431.823Z" stroke="white" stroke-width="1.33333"/>
</svg>
