<svg viewBox="0 0 1920 1263" fill="none" xmlns="http://www.w3.org/2000/svg">
<path d="M-184 649.72C-117.556 286.83 125.067 -305.61 564 227.72C1112.67 894.39 1276 415.72 1468.67 557.05C1661.33 698.39 1316.67 1016.39 1550 1168.39C1736.67 1289.99 2054.89 964.83 2190.67 787.05" stroke="white" stroke-width="1.33333"/>
<path d="M-192 668.39C-125.556 305.5 117.067 -286.95 556 246.39C1104.67 913.05 1268 434.39 1460.67 575.72C1653.33 717.05 1308.67 1035.05 1542 1187.05C1728.67 1308.65 2046.89 983.5 2182.67 805.72" stroke="white" stroke-width="1.33333"/>
<path d="M-188.828 658.51C-110.849 297.93 150.537 -286.48 572.245 260.57C1099.38 944.39 1277.89 471.18 1465.95 618.58C1654.02 765.98 1299.39 1072.83 1527.76 1232.19C1710.45 1359.68 2038.88 1044.84 2180.25 871.48" stroke="white" stroke-width="1.33333"/>
<path d="M-170.618 632.06C-92.6387 271.48 168.747 -312.93 590.455 234.12C1117.59 917.94 1296.1 444.73 1484.16 592.13C1672.23 739.53 1317.6 1046.39 1545.97 1205.75C1728.66 1333.24 2057.09 1018.39 2198.46 845.03" stroke="white" stroke-width="1.33333"/>
<path d="M-184.057 779.26C-138.11 413.21 70.8358 -191.93 539.047 315.89C1124.31 950.67 1260.49 463.58 1460.79 593.86C1661.1 724.15 1334.84 1061.01 1576.35 1199.66C1769.55 1310.58 2069 968.05 2194.57 782.93" stroke="white" stroke-width="1.33333"/>
<path d="M-188.313 712.83C-142.366 346.78 66.5799 -258.36 534.791 249.46C1120.05 884.24 1256.23 397.15 1456.53 527.44C1656.84 657.72 1330.59 994.59 1572.09 1133.23C1765.3 1244.15 2064.75 901.63 2190.32 716.5" stroke="white" stroke-width="1.33333"/>
<path d="M-185.646 740.83C-139.7 374.78 69.2465 -230.36 537.457 277.46C1122.72 912.24 1258.9 425.15 1459.2 555.44C1659.51 685.72 1333.25 1022.59 1574.76 1161.23C1767.97 1272.15 2067.41 929.63 2192.99 744.5" stroke="white" stroke-width="1.33333"/>
<path d="M-172 636.39C-105.556 273.5 137.067 -318.95 576 214.39C1124.67 881.05 1288 402.39 1480.67 543.72C1673.33 685.05 1328.67 1003.05 1562 1155.05C1748.67 1276.65 2066.89 951.5 2202.67 773.72" stroke="white" stroke-width="1.33333"/>
</svg>
