<svg viewBox="0 0 1007 80" fill="none" xmlns="http://www.w3.org/2000/svg">
<mask id="mask0_4_861" style="mask-type:luminance" maskUnits="userSpaceOnUse" x="0" y="-1" width="1008" height="81">
<path d="M1007 -0.00012207H0.333008V79.4337H1007V-0.00012207Z" fill="white"/>
</mask>
<g mask="url(#mask0_4_861)">
<path d="M80.38 38.4299C82.964 38.4299 85.058 36.3299 85.058 33.7499C85.058 31.1599 82.964 29.0698 80.38 29.0698C77.796 29.0698 75.702 31.1599 75.702 33.7499C75.702 36.3299 77.796 38.4299 80.38 38.4299Z" fill="#E8EAE7" stroke="#E8EAE7" stroke-width="3.22639" stroke-miterlimit="10"/>
<path d="M146.23 66.8499C148.81 66.8499 150.91 64.7599 150.91 62.1699C150.91 59.5899 148.81 57.4899 146.23 57.4899C143.65 57.4899 141.55 59.5899 141.55 62.1699C141.55 64.7599 143.65 66.8499 146.23 66.8499Z" fill="#E8EAE7" stroke="#E8EAE7" stroke-width="3.22639" stroke-miterlimit="10"/>
<path d="M7.69 15.6799C10.861 15.6799 13.432 13.1098 13.432 9.93982C13.432 6.76982 10.861 4.18982 7.69 4.18982C4.518 4.18982 1.94702 6.76982 1.94702 9.93982C1.94702 13.1098 4.518 15.6799 7.69 15.6799Z" fill="#E8EAE7" stroke="#E8EAE7" stroke-width="3.22639" stroke-miterlimit="10"/>
<path d="M98.448 15.6499C101.887 15.6499 104.675 12.8599 104.675 9.41992C104.675 5.97992 101.887 3.18982 98.448 3.18982C95.009 3.18982 92.221 5.97992 92.221 9.41992C92.221 12.8599 95.009 15.6499 98.448 15.6499Z" fill="#E8EAE7" stroke="#E8EAE7" stroke-width="3.22639" stroke-miterlimit="10"/>
<path d="M70.798 19.7799C72.526 19.7799 73.927 18.3799 73.927 16.6499C73.927 14.9199 72.526 13.5199 70.798 13.5199C69.069 13.5199 67.668 14.9199 67.668 16.6499C67.668 18.3799 69.069 19.7799 70.798 19.7799Z" fill="#E8EAE7" stroke="#E8EAE7" stroke-width="3.22639" stroke-miterlimit="10"/>
<path d="M49.794 18.2599C54.391 18.2599 58.118 14.5298 58.118 9.93982C58.118 5.33982 54.391 1.60986 49.794 1.60986C45.197 1.60986 41.47 5.33982 41.47 9.93982C41.47 14.5298 45.197 18.2599 49.794 18.2599Z" fill="#E8EAE7" stroke="#E8EAE7" stroke-width="3.22639" stroke-miterlimit="10"/>
<path d="M117.13 53.9799C124.01 53.9799 129.58 48.3999 129.58 41.5199C129.58 34.6499 124.01 29.0698 117.13 29.0698C110.251 29.0698 104.675 34.6499 104.675 41.5199C104.675 48.3999 110.251 53.9799 117.13 53.9799Z" fill="#E8EAE7" stroke="#E8EAE7" stroke-width="3.22639" stroke-miterlimit="10"/>
<path d="M63.571 34.0399C66.315 34.0399 68.539 31.8098 68.539 29.0698C68.539 26.3298 66.315 24.0999 63.571 24.0999C60.827 24.0999 58.602 26.3298 58.602 29.0698C58.602 31.8098 60.827 34.0399 63.571 34.0399Z" fill="#E8EAE7" stroke="#E8EAE7" stroke-width="3.22639" stroke-miterlimit="10"/>
<path d="M25.854 41.5199C32.732 41.5199 38.308 35.9498 38.308 29.0698C38.308 22.1898 32.732 16.6199 25.854 16.6199C18.976 16.6199 13.4 22.1898 13.4 29.0698C13.4 35.9498 18.976 41.5199 25.854 41.5199Z" fill="#E8EAE7" stroke="#E8EAE7" stroke-width="3.22639" stroke-miterlimit="10"/>
<path d="M213.21 39.7198C215.79 39.7198 217.89 37.6199 217.89 35.0399C217.89 32.4499 215.79 30.3599 213.21 30.3599C210.63 30.3599 208.53 32.4499 208.53 35.0399C208.53 37.6199 210.63 39.7198 213.21 39.7198Z" fill="#E8EAE7" stroke="#E8EAE7" stroke-width="3.22639" stroke-miterlimit="10"/>
<path d="M140.49 16.9698C143.66 16.9698 146.23 14.3999 146.23 11.2299C146.23 8.05986 143.66 5.47986 140.49 5.47986C137.32 5.47986 134.74 8.05986 134.74 11.2299C134.74 14.3999 137.32 16.9698 140.49 16.9698Z" fill="#E8EAE7" stroke="#E8EAE7" stroke-width="3.22639" stroke-miterlimit="10"/>
<path d="M231.28 16.9398C234.72 16.9398 237.51 14.1498 237.51 10.7098C237.51 7.26984 234.72 4.47986 231.28 4.47986C227.84 4.47986 225.05 7.26984 225.05 10.7098C225.05 14.1498 227.84 16.9398 231.28 16.9398Z" fill="#E8EAE7" stroke="#E8EAE7" stroke-width="3.22639" stroke-miterlimit="10"/>
<path d="M203.63 21.0698C205.36 21.0698 206.76 19.6698 206.76 17.9398C206.76 16.2098 205.36 14.8099 203.63 14.8099C201.9 14.8099 200.5 16.2098 200.5 17.9398C200.5 19.6698 201.9 21.0698 203.63 21.0698Z" fill="#E8EAE7" stroke="#E8EAE7" stroke-width="3.22639" stroke-miterlimit="10"/>
<path d="M182.62 19.5499C187.22 19.5499 190.95 15.8299 190.95 11.2299C190.95 6.62986 187.22 2.8999 182.62 2.8999C178.03 2.8999 174.3 6.62986 174.3 11.2299C174.3 15.8299 178.03 19.5499 182.62 19.5499Z" fill="#E8EAE7" stroke="#E8EAE7" stroke-width="3.22639" stroke-miterlimit="10"/>
<path d="M249.96 55.2699C256.84 55.2699 262.41 49.6899 262.41 42.8099C262.41 35.9399 256.84 30.3599 249.96 30.3599C243.08 30.3599 237.51 35.9399 237.51 42.8099C237.51 49.6899 243.08 55.2699 249.96 55.2699Z" fill="#E8EAE7" stroke="#E8EAE7" stroke-width="3.22639" stroke-miterlimit="10"/>
<path d="M196.4 35.3298C199.15 35.3298 201.37 33.0999 201.37 30.3599C201.37 27.6199 199.15 25.3899 196.4 25.3899C193.66 25.3899 191.43 27.6199 191.43 30.3599C191.43 33.0999 193.66 35.3298 196.4 35.3298Z" fill="#E8EAE7" stroke="#E8EAE7" stroke-width="3.22639" stroke-miterlimit="10"/>
<path d="M179.27 51.8198C182.01 51.8198 184.24 49.5899 184.24 46.8499C184.24 44.0999 182.01 41.8799 179.27 41.8799C176.52 41.8799 174.3 44.0999 174.3 46.8499C174.3 49.5899 176.52 51.8198 179.27 51.8198Z" fill="#E8EAE7" stroke="#E8EAE7" stroke-width="3.22639" stroke-miterlimit="10"/>
<path d="M158.68 42.8099C165.56 42.8099 171.14 37.2399 171.14 30.3599C171.14 23.4799 165.56 17.9099 158.68 17.9099C151.81 17.9099 146.23 23.4799 146.23 30.3599C146.23 37.2399 151.81 42.8099 158.68 42.8099Z" fill="#E8EAE7" stroke="#E8EAE7" stroke-width="3.22639" stroke-miterlimit="10"/>
<path d="M348.3 40.3599C350.88 40.3599 352.98 38.2699 352.98 35.6799C352.98 33.0999 350.88 31.0099 348.3 31.0099C345.72 31.0099 343.62 33.0999 343.62 35.6799C343.62 38.2699 345.72 40.3599 348.3 40.3599Z" fill="#E8EAE7" stroke="#E8EAE7" stroke-width="3.22639" stroke-miterlimit="10"/>
<path d="M275.58 17.6199C278.75 17.6199 281.32 15.0399 281.32 11.8699C281.32 8.69987 278.75 6.12988 275.58 6.12988C272.41 6.12988 269.83 8.69987 269.83 11.8699C269.83 15.0399 272.41 17.6199 275.58 17.6199Z" fill="#E8EAE7" stroke="#E8EAE7" stroke-width="3.22639" stroke-miterlimit="10"/>
<path d="M366.37 17.5798C369.81 17.5798 372.59 14.7999 372.59 11.3599C372.59 7.91986 369.81 5.12988 366.37 5.12988C362.93 5.12988 360.14 7.91986 360.14 11.3599C360.14 14.7999 362.93 17.5798 366.37 17.5798Z" fill="#E8EAE7" stroke="#E8EAE7" stroke-width="3.22639" stroke-miterlimit="10"/>
<path d="M338.72 21.7098C340.45 21.7098 341.85 20.3098 341.85 18.5798C341.85 16.8598 340.45 15.4498 338.72 15.4498C336.99 15.4498 335.59 16.8598 335.59 18.5798C335.59 20.3098 336.99 21.7098 338.72 21.7098Z" fill="#E8EAE7" stroke="#E8EAE7" stroke-width="3.22639" stroke-miterlimit="10"/>
<path d="M317.68 20.1998C322.28 20.1998 326.01 16.4699 326.01 11.8699C326.01 7.27987 322.28 3.54993 317.68 3.54993C313.08 3.54993 309.36 7.27987 309.36 11.8699C309.36 16.4699 313.08 20.1998 317.68 20.1998Z" fill="#E8EAE7" stroke="#E8EAE7" stroke-width="3.22639" stroke-miterlimit="10"/>
<path d="M385.05 55.9099C391.93 55.9099 397.5 50.3398 397.5 43.4598C397.5 36.5798 391.93 31.0099 385.05 31.0099C378.17 31.0099 372.59 36.5798 372.59 43.4598C372.59 50.3398 378.17 55.9099 385.05 55.9099Z" fill="#E8EAE7" stroke="#E8EAE7" stroke-width="3.22639" stroke-miterlimit="10"/>
<path d="M331.49 35.9698C334.23 35.9698 336.46 33.7499 336.46 31.0099C336.46 28.2599 334.23 26.0399 331.49 26.0399C328.75 26.0399 326.52 28.2599 326.52 31.0099C326.52 33.7499 328.75 35.9698 331.49 35.9698Z" fill="#E8EAE7" stroke="#E8EAE7" stroke-width="3.22639" stroke-miterlimit="10"/>
<path d="M301.23 70.4999C303.97 70.4999 306.2 68.2699 306.2 65.5299C306.2 62.7799 303.97 60.5599 301.23 60.5599C298.48 60.5599 296.26 62.7799 296.26 65.5299C296.26 68.2699 298.48 70.4999 301.23 70.4999Z" fill="#E8EAE7" stroke="#E8EAE7" stroke-width="3.22639" stroke-miterlimit="10"/>
<path d="M293.77 43.4598C300.65 43.4598 306.23 37.8799 306.23 31.0099C306.23 24.1299 300.65 18.5499 293.77 18.5499C286.9 18.5499 281.32 24.1299 281.32 31.0099C281.32 37.8799 286.9 43.4598 293.77 43.4598Z" fill="#E8EAE7" stroke="#E8EAE7" stroke-width="3.22639" stroke-miterlimit="10"/>
<path d="M481.1 41.6499C483.68 41.6499 485.78 39.5598 485.78 36.9698C485.78 34.3898 483.68 32.2999 481.1 32.2999C478.51 32.2999 476.42 34.3898 476.42 36.9698C476.42 39.5598 478.51 41.6499 481.1 41.6499Z" fill="#E8EAE7" stroke="#E8EAE7" stroke-width="3.22639" stroke-miterlimit="10"/>
<path d="M450.51 77.5299C453.1 77.5299 455.19 75.4399 455.19 72.8499C455.19 70.2699 453.1 68.1699 450.51 68.1699C447.93 68.1699 445.83 70.2699 445.83 72.8499C445.83 75.4399 447.93 77.5299 450.51 77.5299Z" fill="#E8EAE7" stroke="#E8EAE7" stroke-width="3.22639" stroke-miterlimit="10"/>
<path d="M408.41 18.8699C411.58 18.8699 414.15 16.2999 414.15 13.1299C414.15 9.95988 411.58 7.38989 408.41 7.38989C405.24 7.38989 402.66 9.95988 402.66 13.1299C402.66 16.2999 405.24 18.8699 408.41 18.8699Z" fill="#E8EAE7" stroke="#E8EAE7" stroke-width="3.22639" stroke-miterlimit="10"/>
<path d="M499.2 18.8699C502.64 18.8699 505.42 16.0899 505.42 12.6499C505.42 9.2099 502.64 6.41992 499.2 6.41992C495.76 6.41992 492.97 9.2099 492.97 12.6499C492.97 16.0899 495.76 18.8699 499.2 18.8699Z" fill="#E8EAE7" stroke="#E8EAE7" stroke-width="3.22639" stroke-miterlimit="10"/>
<path d="M471.52 22.9999C473.24 22.9999 474.65 21.5999 474.65 19.8699C474.65 18.1499 473.24 16.7399 471.52 16.7399C469.79 16.7399 468.39 18.1499 468.39 19.8699C468.39 21.5999 469.79 22.9999 471.52 22.9999Z" fill="#E8EAE7" stroke="#E8EAE7" stroke-width="3.22639" stroke-miterlimit="10"/>
<path d="M450.51 21.4598C455.11 21.4598 458.84 17.7299 458.84 13.1299C458.84 8.52988 455.11 4.80994 450.51 4.80994C445.91 4.80994 442.19 8.52988 442.19 13.1299C442.19 17.7299 445.91 21.4598 450.51 21.4598Z" fill="#E8EAE7" stroke="#E8EAE7" stroke-width="3.22639" stroke-miterlimit="10"/>
<path d="M517.85 57.1998C524.72 57.1998 530.3 51.6299 530.3 44.7499C530.3 37.8699 524.72 32.2999 517.85 32.2999C510.97 32.2999 505.39 37.8699 505.39 44.7499C505.39 51.6299 510.97 57.1998 517.85 57.1998Z" fill="#E8EAE7" stroke="#E8EAE7" stroke-width="3.22639" stroke-miterlimit="10"/>
<path d="M464.32 37.2599C467.06 37.2599 469.29 35.0399 469.29 32.2999C469.29 29.5499 467.06 27.3298 464.32 27.3298C461.58 27.3298 459.35 29.5499 459.35 32.2999C459.35 35.0399 461.58 37.2599 464.32 37.2599Z" fill="#E8EAE7" stroke="#E8EAE7" stroke-width="3.22639" stroke-miterlimit="10"/>
<path d="M468.39 62.1699C471.13 62.1699 473.35 59.9498 473.35 57.1998C473.35 54.4598 471.13 52.2399 468.39 52.2399C465.64 52.2399 463.42 54.4598 463.42 57.1998C463.42 59.9498 465.64 62.1699 468.39 62.1699Z" fill="#E8EAE7" stroke="#E8EAE7" stroke-width="3.22639" stroke-miterlimit="10"/>
<path d="M426.57 44.7499C433.45 44.7499 439.03 39.1699 439.03 32.2999C439.03 25.4199 433.45 19.8398 426.57 19.8398C419.69 19.8398 414.12 25.4199 414.12 32.2999C414.12 39.1699 419.69 44.7499 426.57 44.7499Z" fill="#E8EAE7" stroke="#E8EAE7" stroke-width="3.22639" stroke-miterlimit="10"/>
<path d="M611.67 43.7499C614.25 43.7499 616.35 41.6598 616.35 39.0698C616.35 36.4898 614.25 34.3899 611.67 34.3899C609.09 34.3899 606.99 36.4898 606.99 39.0698C606.99 41.6598 609.09 43.7499 611.67 43.7499Z" fill="#E8EAE7" stroke="#E8EAE7" stroke-width="3.22639" stroke-miterlimit="10"/>
<path d="M538.98 20.9698C542.15 20.9698 544.72 18.3999 544.72 15.2299C544.72 12.0599 542.15 9.48987 538.98 9.48987C535.81 9.48987 533.24 12.0599 533.24 15.2299C533.24 18.3999 535.81 20.9698 538.98 20.9698Z" fill="#E8EAE7" stroke="#E8EAE7" stroke-width="3.22639" stroke-miterlimit="10"/>
<path d="M629.77 20.9698C633.21 20.9698 636 18.1799 636 14.7399C636 11.3099 633.21 8.5199 629.77 8.5199C626.33 8.5199 623.54 11.3099 623.54 14.7399C623.54 18.1799 626.33 20.9698 629.77 20.9698Z" fill="#E8EAE7" stroke="#E8EAE7" stroke-width="3.22639" stroke-miterlimit="10"/>
<path d="M602.09 25.0999C603.82 25.0999 605.22 23.6998 605.22 21.9698C605.22 20.2398 603.82 18.8398 602.09 18.8398C600.36 18.8398 598.96 20.2398 598.96 21.9698C598.96 23.6998 600.36 25.0999 602.09 25.0999Z" fill="#E8EAE7" stroke="#E8EAE7" stroke-width="3.22639" stroke-miterlimit="10"/>
<path d="M575.92 58.3999C577.65 58.3999 579.05 56.9999 579.05 55.2699C579.05 53.5399 577.65 52.1399 575.92 52.1399C574.19 52.1399 572.79 53.5399 572.79 55.2699C572.79 56.9999 574.19 58.3999 575.92 58.3999Z" fill="#E8EAE7" stroke="#E8EAE7" stroke-width="3.22639" stroke-miterlimit="10"/>
<path d="M581.08 23.5499C585.68 23.5499 589.41 19.8299 589.41 15.2299C589.41 10.6299 585.68 6.8999 581.08 6.8999C576.49 6.8999 572.76 10.6299 572.76 15.2299C572.76 19.8299 576.49 23.5499 581.08 23.5499Z" fill="#E8EAE7" stroke="#E8EAE7" stroke-width="3.22639" stroke-miterlimit="10"/>
<path d="M648.42 59.2999C655.3 59.2999 660.87 53.7299 660.87 46.8499C660.87 39.9699 655.3 34.3899 648.42 34.3899C641.54 34.3899 635.96 39.9699 635.96 46.8499C635.96 53.7299 641.54 59.2999 648.42 59.2999Z" fill="#E8EAE7" stroke="#E8EAE7" stroke-width="3.22639" stroke-miterlimit="10"/>
<path d="M594.86 39.3599C597.6 39.3599 599.83 37.1399 599.83 34.3899C599.83 31.6499 597.6 29.4199 594.86 29.4199C592.12 29.4199 589.89 31.6499 589.89 34.3899C589.89 37.1399 592.12 39.3599 594.86 39.3599Z" fill="#E8EAE7" stroke="#E8EAE7" stroke-width="3.22639" stroke-miterlimit="10"/>
<path d="M621.32 73.1399C624.06 73.1399 626.29 70.9199 626.29 68.1699C626.29 65.4299 624.06 63.2098 621.32 63.2098C618.57 63.2098 616.35 65.4299 616.35 68.1699C616.35 70.9199 618.57 73.1399 621.32 73.1399Z" fill="#E8EAE7" stroke="#E8EAE7" stroke-width="3.22639" stroke-miterlimit="10"/>
<path d="M557.14 46.8499C564.02 46.8499 569.6 41.2699 569.6 34.3899C569.6 27.5199 564.02 21.9398 557.14 21.9398C550.27 21.9398 544.69 27.5199 544.69 34.3899C544.69 41.2699 550.27 46.8499 557.14 46.8499Z" fill="#E8EAE7" stroke="#E8EAE7" stroke-width="3.22639" stroke-miterlimit="10"/>
<path d="M744.5 45.0399C747.08 45.0399 749.18 42.9499 749.18 40.3599C749.18 37.7799 747.08 35.6799 744.5 35.6799C741.92 35.6799 739.82 37.7799 739.82 40.3599C739.82 42.9499 741.92 45.0399 744.5 45.0399Z" fill="#E8EAE7" stroke="#E8EAE7" stroke-width="3.22639" stroke-miterlimit="10"/>
<path d="M671.81 22.2599C674.98 22.2599 677.55 19.6899 677.55 16.5199C677.55 13.3499 674.98 10.7799 671.81 10.7799C668.64 10.7799 666.07 13.3499 666.07 16.5199C666.07 19.6899 668.64 22.2599 671.81 22.2599Z" fill="#E8EAE7" stroke="#E8EAE7" stroke-width="3.22639" stroke-miterlimit="10"/>
<path d="M762.57 22.2599C766.01 22.2599 768.8 19.4699 768.8 16.0399C768.8 12.5999 766.01 9.80994 762.57 9.80994C759.13 9.80994 756.34 12.5999 756.34 16.0399C756.34 19.4699 759.13 22.2599 762.57 22.2599Z" fill="#E8EAE7" stroke="#E8EAE7" stroke-width="3.22639" stroke-miterlimit="10"/>
<path d="M734.92 26.3899C736.65 26.3899 738.05 24.9899 738.05 23.2599C738.05 21.5299 736.65 20.1299 734.92 20.1299C733.19 20.1299 731.79 21.5299 731.79 23.2599C731.79 24.9899 733.19 26.3899 734.92 26.3899Z" fill="#E8EAE7" stroke="#E8EAE7" stroke-width="3.22639" stroke-miterlimit="10"/>
<path d="M713.91 24.8398C718.51 24.8398 722.24 21.1199 722.24 16.5199C722.24 11.9199 718.51 8.18982 713.91 8.18982C709.32 8.18982 705.59 11.9199 705.59 16.5199C705.59 21.1199 709.32 24.8398 713.91 24.8398Z" fill="#E8EAE7" stroke="#E8EAE7" stroke-width="3.22639" stroke-miterlimit="10"/>
<path d="M781.25 60.5898C788.13 60.5898 793.7 55.0199 793.7 48.1399C793.7 41.2599 788.13 35.6799 781.25 35.6799C774.37 35.6799 768.8 41.2599 768.8 48.1399C768.8 55.0199 774.37 60.5898 781.25 60.5898Z" fill="#E8EAE7" stroke="#E8EAE7" stroke-width="3.22639" stroke-miterlimit="10"/>
<path d="M727.69 40.6499C730.44 40.6499 732.66 38.4299 732.66 35.6799C732.66 32.9399 730.44 30.7198 727.69 30.7198C724.95 30.7198 722.72 32.9399 722.72 35.6799C722.72 38.4299 724.95 40.6499 727.69 40.6499Z" fill="#E8EAE7" stroke="#E8EAE7" stroke-width="3.22639" stroke-miterlimit="10"/>
<path d="M689.97 48.1399C696.85 48.1399 702.43 42.5599 702.43 35.6799C702.43 28.8099 696.85 23.2299 689.97 23.2299C683.1 23.2299 677.52 28.8099 677.52 35.6799C677.52 42.5599 683.1 48.1399 689.97 48.1399Z" fill="#E8EAE7" stroke="#E8EAE7" stroke-width="3.22639" stroke-miterlimit="10"/>
<path d="M879.01 44.3899C881.59 44.3899 883.69 42.2998 883.69 39.7198C883.69 37.1298 881.59 35.0399 879.01 35.0399C876.43 35.0399 874.33 37.1298 874.33 39.7198C874.33 42.2998 876.43 44.3899 879.01 44.3899Z" fill="#E8EAE7" stroke="#E8EAE7" stroke-width="3.22639" stroke-miterlimit="10"/>
<path d="M806.32 21.6199C809.49 21.6199 812.06 19.0499 812.06 15.8699C812.06 12.6999 809.49 10.1299 806.32 10.1299C803.15 10.1299 800.58 12.6999 800.58 15.8699C800.58 19.0499 803.15 21.6199 806.32 21.6199Z" fill="#E8EAE7" stroke="#E8EAE7" stroke-width="3.22639" stroke-miterlimit="10"/>
<path d="M897.11 21.6199C900.55 21.6199 903.34 18.8299 903.34 15.3899C903.34 11.9499 900.55 9.15991 897.11 9.15991C893.67 9.15991 890.88 11.9499 890.88 15.3899C890.88 18.8299 893.67 21.6199 897.11 21.6199Z" fill="#E8EAE7" stroke="#E8EAE7" stroke-width="3.22639" stroke-miterlimit="10"/>
<path d="M869.43 25.7499C871.15 25.7499 872.56 24.3499 872.56 22.6199C872.56 20.8899 871.15 19.4899 869.43 19.4899C867.7 19.4899 866.3 20.8899 866.3 22.6199C866.3 24.3499 867.7 25.7499 869.43 25.7499Z" fill="#E8EAE7" stroke="#E8EAE7" stroke-width="3.22639" stroke-miterlimit="10"/>
<path d="M851.55 60.3298C853.28 60.3298 854.68 58.9298 854.68 57.1998C854.68 55.4798 853.28 54.0698 851.55 54.0698C849.82 54.0698 848.42 55.4798 848.42 57.1998C848.42 58.9298 849.82 60.3298 851.55 60.3298Z" fill="#E8EAE7" stroke="#E8EAE7" stroke-width="3.22639" stroke-miterlimit="10"/>
<path d="M848.42 24.1998C853.02 24.1998 856.75 20.4699 856.75 15.8699C856.75 11.2799 853.02 7.54993 848.42 7.54993C843.83 7.54993 840.1 11.2799 840.1 15.8699C840.1 20.4699 843.83 24.1998 848.42 24.1998Z" fill="#E8EAE7" stroke="#E8EAE7" stroke-width="3.22639" stroke-miterlimit="10"/>
<path d="M915.76 59.9498C922.64 59.9498 928.21 54.3699 928.21 47.4899C928.21 40.6099 922.64 35.0399 915.76 35.0399C908.88 35.0399 903.3 40.6099 903.3 47.4899C903.3 54.3699 908.88 59.9498 915.76 59.9498Z" fill="#E8EAE7" stroke="#E8EAE7" stroke-width="3.22639" stroke-miterlimit="10"/>
<path d="M862.2 40.0099C864.94 40.0099 867.17 37.7799 867.17 35.0399C867.17 32.2899 864.94 30.0698 862.2 30.0698C859.46 30.0698 857.23 32.2899 857.23 35.0399C857.23 37.7799 859.46 40.0099 862.2 40.0099Z" fill="#E8EAE7" stroke="#E8EAE7" stroke-width="3.22639" stroke-miterlimit="10"/>
<path d="M836.94 77.8198C839.68 77.8198 841.91 75.5999 841.91 72.8499C841.91 70.1099 839.68 67.8799 836.94 67.8799C834.19 67.8799 831.97 70.1099 831.97 72.8499C831.97 75.5999 834.19 77.8198 836.94 77.8198Z" fill="#E8EAE7" stroke="#E8EAE7" stroke-width="3.22639" stroke-miterlimit="10"/>
<path d="M824.48 47.4899C831.36 47.4899 836.94 41.9199 836.94 35.0399C836.94 28.1599 831.36 22.5798 824.48 22.5798C817.6 22.5798 812.03 28.1599 812.03 35.0399C812.03 41.9199 817.6 47.4899 824.48 47.4899Z" fill="#E8EAE7" stroke="#E8EAE7" stroke-width="3.22639" stroke-miterlimit="10"/>
<path d="M939.15 22.9099C942.32 22.9099 944.89 20.3399 944.89 17.1599C944.89 13.9899 942.32 11.4199 939.15 11.4199C935.98 11.4199 933.41 13.9899 933.41 17.1599C933.41 20.3399 935.98 22.9099 939.15 22.9099Z" fill="#E8EAE7" stroke="#E8EAE7" stroke-width="3.22639" stroke-miterlimit="10"/>
<path d="M1002.26 27.0399C1003.99 27.0399 1005.39 25.6399 1005.39 23.9099C1005.39 22.1799 1003.99 20.7799 1002.26 20.7799C1000.53 20.7799 999.13 22.1799 999.13 23.9099C999.13 25.6399 1000.53 27.0399 1002.26 27.0399Z" fill="#E8EAE7" stroke="#E8EAE7" stroke-width="3.22639" stroke-miterlimit="10"/>
<path d="M981.25 25.4899C985.85 25.4899 989.58 21.7599 989.58 17.1599C989.58 12.5699 985.85 8.83984 981.25 8.83984C976.66 8.83984 972.93 12.5699 972.93 17.1599C972.93 21.7599 976.66 25.4899 981.25 25.4899Z" fill="#E8EAE7" stroke="#E8EAE7" stroke-width="3.22639" stroke-miterlimit="10"/>
<path d="M995.03 41.2999C997.77 41.2999 1000 39.0698 1000 36.3298C1000 33.5798 997.77 31.3599 995.03 31.3599C992.29 31.3599 990.06 33.5798 990.06 36.3298C990.06 39.0698 992.29 41.2999 995.03 41.2999Z" fill="#E8EAE7" stroke="#E8EAE7" stroke-width="3.22639" stroke-miterlimit="10"/>
<path d="M969.77 77.5299C972.51 77.5299 974.74 75.3099 974.74 72.5599C974.74 69.8199 972.51 67.5898 969.77 67.5898C967.02 67.5898 964.8 69.8199 964.8 72.5599C964.8 75.3099 967.02 77.5299 969.77 77.5299Z" fill="#E8EAE7" stroke="#E8EAE7" stroke-width="3.22639" stroke-miterlimit="10"/>
<path d="M957.31 48.7799C964.19 48.7799 969.77 43.2098 969.77 36.3298C969.77 29.4498 964.19 23.8799 957.31 23.8799C950.44 23.8799 944.86 29.4498 944.86 36.3298C944.86 43.2098 950.44 48.7799 957.31 48.7799Z" fill="#E8EAE7" stroke="#E8EAE7" stroke-width="3.22639" stroke-miterlimit="10"/>
</g>
</svg>
