<svg viewBox="0 0 296 295" fill="none" xmlns="http://www.w3.org/2000/svg">
<path d="M148.67 219.997C188.803 219.997 221.337 187.463 221.337 147.33C221.337 107.197 188.803 74.6633 148.67 74.6633C108.537 74.6633 76.0033 107.197 76.0033 147.33C76.0033 187.463 108.537 219.997 148.67 219.997Z" stroke="white" stroke-width="2.66667"/>
<path d="M148.67 293.337C188.803 293.337 221.337 260.803 221.337 220.67C221.337 180.537 188.803 148.003 148.67 148.003C108.537 148.003 76.0033 180.537 76.0033 220.67C76.0033 260.803 108.537 293.337 148.67 293.337Z" stroke="white" stroke-width="2.66667"/>
<path d="M222 219.997C262.133 219.997 294.667 187.463 294.667 147.33C294.667 107.197 262.133 74.6633 222 74.6633C181.867 74.6633 149.333 107.197 149.333 147.33C149.333 187.463 181.867 219.997 222 219.997Z" stroke="white" stroke-width="2.66667"/>
<path d="M200.67 167.997C240.803 167.997 273.337 135.463 273.337 95.3301C273.337 55.1974 240.803 22.6633 200.67 22.6633C160.537 22.6633 128.003 55.1974 128.003 95.3301C128.003 135.463 160.537 167.997 200.67 167.997Z" stroke="white" stroke-width="2.66667"/>
<path d="M200.67 269.337C240.803 269.337 273.337 236.803 273.337 196.67C273.337 156.537 240.803 124.003 200.67 124.003C160.537 124.003 128.003 156.537 128.003 196.67C128.003 236.803 160.537 269.337 200.67 269.337Z" stroke="white" stroke-width="2.66667"/>
<path d="M94 167.997C134.133 167.997 166.667 135.463 166.667 95.3301C166.667 55.1974 134.133 22.6633 94 22.6633C53.8673 22.6633 21.3333 55.1974 21.3333 95.3301C21.3333 135.463 53.8673 167.997 94 167.997Z" stroke="white" stroke-width="2.66667"/>
<path d="M94 269.337C134.133 269.337 166.667 236.803 166.667 196.67C166.667 156.537 134.133 124.003 94 124.003C53.8673 124.003 21.3333 156.537 21.3333 196.67C21.3333 236.803 53.8673 269.337 94 269.337Z" stroke="white" stroke-width="2.66667"/>
<path d="M74 218.667C114.133 218.667 146.667 186.133 146.667 146C146.667 105.867 114.133 73.3333 74 73.3333C33.8673 73.3333 1.33325 105.867 1.33325 146C1.33325 186.133 33.8673 218.667 74 218.667Z" stroke="white" stroke-width="2.66667"/>
<path d="M148.67 146.667C188.803 146.667 221.337 114.133 221.337 74C221.337 33.8673 188.803 1.33325 148.67 1.33325C108.537 1.33325 76.0033 33.8673 76.0033 74C76.0033 114.133 108.537 146.667 148.67 146.667Z" stroke="white" stroke-width="2.66667"/>
</svg>
