<svg  viewBox="0 0 570 693" fill="none" xmlns="http://www.w3.org/2000/svg">
<path d="M217.986 448.44C122.938 442.85 37.5884 426.33 -23.5634 404.14C-54.1435 393.05 -78.6353 380.56 -95.2613 367.33C-111.905 354.1 -120.541 340.24 -119.728 326.41C-118.916 312.58 -108.716 299.83 -90.6362 288.63C-72.5758 277.45 -46.7891 267.91 -15.1202 260.47C48.2089 245.61 134.907 239.2 229.955 244.78C325.002 250.37 410.353 266.89 471.504 289.07C502.085 300.16 526.576 312.66 543.202 325.88C559.846 339.12 568.482 352.98 567.669 366.81C566.857 380.63 556.657 393.39 538.577 404.58C520.517 415.77 494.73 425.31 463.061 432.74C399.732 447.61 313.034 454.02 217.986 448.44Z" stroke="white" stroke-width="1.33333"/>
<path d="M201.515 446.01C108.799 423.92 27.4143 392.74 -29.2141 360.19C-57.5321 343.91 -79.6251 327.32 -93.8515 311.38C-108.093 295.41 -114.345 280.24 -111.296 266.74C-108.247 253.24 -96.1261 242.44 -76.4963 234.55C-56.8872 226.67 -29.935 221.76 2.46879 219.95C67.2675 216.33 153.71 225.12 246.426 247.21C339.142 269.3 420.526 300.48 477.155 333.03C505.473 349.3 527.566 365.9 541.792 381.84C556.034 397.8 562.285 412.98 559.236 426.48C556.188 439.97 544.067 450.77 524.437 458.66C504.828 466.55 477.876 471.46 445.472 473.27C380.673 476.89 294.231 468.09 201.515 446.01Z" stroke="white" stroke-width="1.33333"/>
<path d="M249.143 445.1C157.082 470.7 70.9256 482.77 6.06074 481.62C-26.3761 481.04 -53.4495 477.15 -73.2651 470.02C-93.1024 462.87 -105.512 452.54 -108.929 439.17C-112.347 425.8 -106.516 410.39 -92.7198 393.9C-78.9384 377.42 -57.3125 359.99 -29.4559 342.65C26.2496 307.97 106.736 273.71 198.797 248.12C290.859 222.52 377.015 210.44 441.88 211.6C474.317 212.18 501.39 216.07 521.206 223.2C541.043 230.34 553.453 240.68 556.87 254.05C560.287 267.42 554.457 282.83 540.66 299.32C526.879 315.8 505.253 333.22 477.396 350.57C421.691 385.25 341.204 419.51 249.143 445.1Z" stroke="white" stroke-width="1.33333"/>
<path d="M232.748 448.16C137.903 457.35 51.0738 454.23 -12.6307 441.78C-44.4874 435.55 -70.5227 426.99 -88.8809 416.5C-107.259 406 -117.803 393.64 -118.995 379.85C-120.186 366.06 -111.936 351.88 -95.6646 338.02C-79.4104 324.17 -55.2744 310.75 -25.0147 298.5C35.4962 274.01 120.348 254.26 215.193 245.06C310.038 235.87 396.867 238.99 460.572 251.44C492.428 257.67 518.464 266.22 536.822 276.72C555.2 287.22 565.744 299.58 566.936 313.37C568.127 327.16 559.877 341.34 543.606 355.2C527.351 369.05 503.215 382.47 472.956 394.71C412.445 419.21 327.593 438.96 232.748 448.16Z" stroke="white" stroke-width="1.33333"/>
<path d="M210.705 447.73C116.349 434.85 32.445 411.81 -26.9293 384.98C-56.6206 371.56 -80.1416 357.21 -95.7689 342.74C-111.412 328.26 -119.028 313.77 -117.227 300.04C-115.426 286.31 -104.343 274.37 -85.5165 264.59C-66.7097 254.82 -40.3181 247.29 -8.21336 242.31C55.9874 232.34 142.879 232.61 237.235 245.49C331.592 258.37 415.496 281.41 474.87 308.24C504.561 321.66 528.083 336 543.71 350.47C559.353 364.96 566.969 379.45 565.168 393.18C563.367 406.91 552.284 418.85 533.457 428.63C514.651 438.39 488.259 445.93 456.154 450.91C391.953 460.87 305.062 460.6 210.705 447.73Z" stroke="white" stroke-width="1.33333"/>
<path d="M194.459 444.04C103.61 414.88 24.7101 377.51 -29.4119 340.69C-56.4767 322.28 -77.3123 304.03 -90.3524 287.03C-103.407 270.01 -108.55 254.39 -104.544 241.17C-100.537 227.94 -87.6798 218.09 -67.544 211.73C-47.4299 205.37 -20.208 202.55 12.2264 203.23C77.0862 204.6 162.633 220.02 253.482 249.18C344.33 278.34 423.231 315.7 477.353 352.52C504.417 370.94 525.253 389.19 538.293 406.19C551.347 423.2 556.491 438.83 552.485 452.05C548.478 465.28 535.621 475.12 515.485 481.49C495.371 487.84 468.149 490.67 435.714 489.99C370.855 488.62 285.307 473.2 194.459 444.04Z" stroke="white" stroke-width="1.33333"/>
<path d="M242.006 446.8C148.392 465.25 61.635 470.68 -2.94779 464.54C-35.2436 461.46 -61.9552 455.51 -81.1985 446.87C-100.463 438.22 -112.094 426.95 -114.543 413.35C-116.991 399.75 -110.074 384.83 -95.1377 369.44C-80.2176 354.06 -57.4089 338.34 -28.3947 323.18C29.6258 292.87 112.321 264.88 205.935 246.42C299.549 227.96 386.306 222.54 450.889 228.68C483.185 231.75 509.896 237.71 529.14 246.35C548.404 255 560.035 266.26 562.484 279.87C564.933 293.47 558.015 308.39 543.079 323.78C528.159 339.16 505.35 354.88 476.336 370.04C418.315 400.35 335.62 428.34 242.006 446.8Z" stroke="white" stroke-width="1.33333"/>
<path d="M225.442 448.58C130.229 450.46 43.8892 440.68 -18.7272 423.36C-50.0397 414.7 -75.382 404.16 -92.9317 392.28C-110.5 380.39 -120.126 367.25 -120.326 353.4C-120.526 339.56 -111.284 326.05 -94.0688 313.47C-76.8717 300.9 -51.8479 289.37 -20.8031 279.48C41.278 259.7 127.286 246.52 222.499 244.64C317.712 242.76 404.052 252.54 466.668 269.86C497.981 278.52 523.323 289.06 540.873 300.94C558.441 312.83 568.067 325.97 568.267 339.81C568.467 353.66 559.225 367.17 542.01 379.75C524.813 392.31 499.789 403.84 468.744 413.74C406.663 433.52 320.655 446.7 225.442 448.58Z" stroke="white" stroke-width="1.33333"/>
<path d="M160.804 425.12C87.7467 362.18 28.7388 296.38 -7.60992 240.88C-25.7869 213.13 -38.2754 187.98 -44.0352 167.09C-49.8019 146.17 -48.7812 129.68 -40.211 119.02C-31.6408 108.37 -16.1528 104.34 4.77553 106.42C25.6787 108.49 51.838 116.65 81.5093 130.11C140.844 157.04 214.08 205.16 287.137 268.1C360.195 331.04 419.202 396.84 455.551 452.34C473.728 480.09 486.217 505.23 491.976 526.13C497.743 547.05 496.722 563.54 488.152 574.19C479.582 584.85 464.094 588.87 443.166 586.8C422.263 584.72 396.103 576.57 366.432 563.11C307.098 536.18 233.862 488.06 160.804 425.12Z" stroke="white" stroke-width="1.33333"/>
<path d="M148.984 413.03C87.2565 338.21 39.8341 263.01 13.0556 201.92C-0.335664 171.37 -8.54825 144.39 -10.8234 122.78C-13.1015 101.13 -9.41263 85.05 0.757467 76.04C10.9276 67.03 26.8357 65.7599 47.1153 71.4499C67.3688 77.1499 91.8114 89.75 118.849 108.21C172.915 145.12 237.229 205.36 298.957 280.18C360.684 355.01 408.107 430.21 434.885 491.3C448.277 521.84 456.489 548.82 458.764 570.44C461.042 592.09 457.354 608.17 447.183 617.18C437.013 626.19 421.105 627.46 400.826 621.76C380.572 616.07 356.13 603.47 329.092 585.01C275.026 548.1 210.712 487.86 148.984 413.03Z" stroke="white" stroke-width="1.33333"/>
<path d="M187.708 441.59C99.1732 405.66 23.1276 362.44 -28.2511 321.64C-53.944 301.23 -73.4373 281.45 -85.2461 263.51C-97.0677 245.55 -101.1 229.58 -96.1768 216.69C-91.2541 203.79 -77.7444 194.94 -57.2208 190.11C-36.7195 185.28 -9.37897 184.51 22.912 187.63C87.4849 193.88 171.698 215.7 260.233 251.63C348.768 287.56 424.813 330.77 476.192 371.58C501.885 391.99 521.378 411.77 533.187 429.71C545.008 447.67 549.04 463.64 544.118 476.53C539.195 489.42 525.685 498.28 505.162 503.11C484.66 507.94 457.32 508.71 425.029 505.59C360.456 499.34 276.243 477.52 187.708 441.59Z" stroke="white" stroke-width="1.33333"/>
<path d="M172.805 433.97C91.4399 383.09 23.561 327.2 -20.4119 277.98C-42.4014 253.37 -58.3861 230.46 -67.1007 210.7C-75.825 190.93 -77.1974 174.47 -70.2534 162.61C-63.3095 150.76 -48.5646 144.38 -27.5607 143.19C-6.58091 142.01 20.4766 146.01 51.7762 154.73C114.366 172.15 193.77 208.37 275.135 259.25C356.501 310.13 424.38 366.02 468.353 415.23C490.342 439.85 506.327 462.76 515.042 482.51C523.766 502.29 525.138 518.75 518.194 530.6C511.25 542.46 496.506 548.84 475.502 550.02C454.522 551.21 427.464 547.2 396.165 538.49C333.575 521.06 254.171 484.85 172.805 433.97Z" stroke="white" stroke-width="1.33333"/>
<path d="M155.371 420.07C87.0484 351.67 32.938 281.49 0.678635 223.33C-15.4533 194.25 -26.1015 168.21 -30.3458 146.92C-34.5954 125.61 -32.395 109.24 -23.0892 99.2701C-13.7833 89.3101 1.94459 86.48 22.661 90.16C43.3517 93.83 68.847 103.98 97.4623 119.69C154.685 151.12 224.247 204.75 292.57 273.15C360.892 341.55 415.003 411.73 447.262 469.88C463.394 498.97 474.042 525.01 478.286 546.29C482.536 567.61 480.336 583.98 471.03 593.94C461.724 603.91 445.996 606.74 425.28 603.06C404.589 599.38 379.094 589.24 350.478 573.53C293.256 542.1 223.693 488.47 155.371 420.07Z" stroke="white" stroke-width="1.33333"/>
<path d="M144.454 407.1C88.2789 327.72 46.3923 249.06 24.0743 186.06C12.9137 154.56 6.66012 127.01 5.9415 105.27C5.22193 83.5101 10.053 67.7501 20.8358 59.5401C31.6185 51.3401 47.568 51.2901 67.3779 58.5301C87.1617 65.7701 110.626 80.22 136.258 100.71C187.513 141.69 247.312 206.73 303.487 286.11C359.662 365.5 401.549 444.16 423.867 507.16C435.027 538.66 441.281 566.2 442 587.94C442.719 609.71 437.888 625.47 427.105 633.68C416.323 641.88 400.373 641.93 380.563 634.68C360.779 627.45 337.315 613 311.683 592.51C260.428 551.53 200.629 486.49 144.454 407.1Z" stroke="white" stroke-width="1.33333"/>
<path d="M181.012 438.57C95.3235 395.92 22.6082 346.96 -25.6881 302.31C-49.8396 279.98 -67.8554 258.75 -78.3421 239.94C-88.8405 221.12 -91.7145 204.88 -85.8833 192.39C-80.052 179.91 -65.9501 172.12 -45.1423 168.88C-24.3576 165.64 2.95485 166.97 34.923 172.57C98.8504 183.76 181.242 212.01 266.93 254.65C352.618 297.3 425.333 346.25 473.629 390.91C497.781 413.24 515.797 434.47 526.283 453.27C536.782 472.1 539.656 488.34 533.824 500.82C527.993 513.3 513.891 521.1 493.084 524.34C472.299 527.58 444.986 526.25 413.018 520.65C349.091 509.45 266.7 481.21 181.012 438.57Z" stroke="white" stroke-width="1.33333"/>
<path d="M166.701 429.82C89.2317 372.81 25.5667 311.84 -14.7439 259.36C-34.9021 233.12 -49.1957 209.04 -56.4674 188.66C-63.7476 168.26 -63.9353 151.74 -56.164 140.45C-48.3926 129.16 -33.2372 123.93 -12.2116 124.36C8.78932 124.79 35.4771 130.86 66.0563 141.96C127.206 164.16 203.771 206.38 281.24 263.4C358.709 320.41 422.374 381.38 462.685 433.85C482.843 460.09 497.136 484.18 504.408 504.56C511.688 524.96 511.876 541.48 504.105 552.77C496.333 564.06 481.178 569.29 460.152 568.86C439.151 568.43 412.464 562.35 381.884 551.26C320.735 529.06 244.17 486.83 166.701 429.82Z" stroke="white" stroke-width="1.33333"/>
<path d="M122.539 335.83C132.599 241.15 153.127 156.68 178.167 96.6399C190.689 66.6099 204.325 42.74 218.317 26.75C232.324 10.75 246.577 2.78001 260.349 4.24001C274.122 5.71001 286.381 16.5001 296.713 35.0801C307.033 53.6501 315.347 79.8601 321.28 111.84C333.145 175.8 335.463 262.71 325.403 357.39C315.342 452.07 294.814 536.54 269.774 596.58C257.252 626.6 243.616 650.48 229.624 666.46C215.617 682.46 201.365 690.44 187.592 688.97C173.819 687.51 161.56 676.72 151.229 658.13C140.908 639.56 132.594 613.36 126.661 581.37C114.796 517.41 112.478 430.51 122.539 335.83Z" stroke="white" stroke-width="1.33333"/>
<path d="M125.741 319.49C152.174 227.92 187.16 148.1 222.339 93.0602C239.932 65.5402 257.551 44.2601 274.148 30.8001C290.761 17.3301 306.218 11.8001 319.555 15.4801C332.892 19.1601 343.11 31.7801 350.067 51.7601C357.017 71.7201 360.654 98.8702 360.934 131.32C361.495 196.22 348.634 282.15 322.201 373.72C295.767 465.3 260.782 545.12 225.602 600.15C208.01 627.67 190.39 648.96 173.794 662.41C157.18 675.89 141.723 681.42 128.386 677.74C115.049 674.05 104.831 661.44 97.874 641.46C90.9243 621.5 87.2873 594.34 87.0068 561.89C86.4459 496.99 99.3074 411.06 125.741 319.49Z" stroke="white" stroke-width="1.33333"/>
<path d="M124.401 367.11C103.172 273.94 95.1725 187.31 99.3859 122.58C101.493 90.2 106.652 63.3398 114.712 43.8898C122.781 24.4098 133.691 12.4999 147.208 9.70991C160.724 6.92991 175.84 13.48 191.664 28.04C207.472 42.58 223.86 65.0099 239.87 93.6499C271.886 150.93 302.312 232.94 323.541 326.11C344.769 419.27 352.769 505.9 348.555 570.64C346.448 603.01 341.29 629.87 333.229 649.33C325.16 668.81 314.251 680.72 300.734 683.5C287.217 686.28 272.102 679.73 256.277 665.18C240.469 650.63 224.081 628.21 208.071 599.57C176.055 542.29 145.629 460.28 124.401 367.11Z" stroke="white" stroke-width="1.33333"/>
<path d="M122.123 350.59C117.412 255.42 124.618 168.83 140.061 105.78C147.784 74.26 157.557 48.65 168.904 30.81C180.263 12.95 193.106 2.99994 206.935 2.45994C220.763 1.91994 234.54 10.83 247.62 27.73C260.686 44.62 272.952 69.3599 283.76 100.17C305.373 161.77 321.107 247.45 325.818 342.63C330.529 437.8 323.324 524.39 307.88 587.43C300.158 618.96 290.384 644.56 279.037 662.41C267.678 680.27 254.835 690.22 241.007 690.76C227.179 691.3 213.402 682.39 200.322 665.48C187.256 648.59 174.99 623.85 164.182 593.05C142.568 531.45 126.835 445.76 122.123 350.59Z" stroke="white" stroke-width="1.33333"/>
<path d="M123.591 328.59C140.903 234.95 167.876 152.22 197.474 94.18C212.275 65.15 227.714 42.33 242.904 27.41C258.109 12.46 272.943 5.54004 286.572 7.98004C300.202 10.43 311.605 22.0601 320.486 41.3301C329.357 60.5801 335.639 87.2902 339.102 119.6C346.027 184.2 341.662 270.98 324.35 364.62C307.038 458.27 280.065 540.99 250.467 599.04C235.667 628.06 220.227 650.88 205.037 665.81C189.832 680.75 174.998 687.68 161.369 685.23C147.739 682.78 136.336 671.15 127.455 651.88C118.584 632.64 112.302 605.92 108.839 573.62C101.914 509.02 106.279 422.23 123.591 328.59Z" stroke="white" stroke-width="1.33333"/>
<path d="M128.042 312.54C161.452 223.16 202.493 146.11 241.823 93.79C261.491 67.62 280.707 47.6699 298.301 35.4399C315.914 23.2099 331.76 18.7999 344.784 23.4299C357.808 28.0599 367.034 41.36 372.441 61.78C377.842 82.17 379.385 109.49 377.171 141.86C372.745 206.58 353.31 291.31 319.9 380.68C286.489 470.05 245.448 547.1 206.118 599.43C186.45 625.6 167.234 645.55 149.64 657.77C132.028 670.01 116.181 674.41 103.157 669.79C90.1335 665.16 80.907 651.85 75.5002 631.44C70.0993 611.05 68.5565 583.72 70.77 551.36C75.1963 486.63 94.6315 401.91 128.042 312.54Z" stroke="white" stroke-width="1.33333"/>
<path d="M123.044 359.9C109.021 265.52 107.694 178.6 116.872 114.38C121.462 82.2698 128.673 55.87 138.21 37.05C147.758 18.22 159.558 7.13 173.26 5.32C186.962 3.52 201.541 11.13 216.212 26.78C230.867 42.41 245.497 65.9298 259.271 95.6298C286.815 155.01 310.873 238.94 324.896 333.32C338.92 427.7 340.246 514.61 331.068 578.83C326.479 610.95 319.268 637.35 309.73 656.16C300.183 675 288.383 686.09 274.68 687.89C260.978 689.7 246.399 682.08 231.728 666.44C217.073 650.81 202.444 627.28 188.67 597.59C161.126 538.2 137.068 454.28 123.044 359.9Z" stroke="white" stroke-width="1.33333"/>
<path d="M122.042 343.27C124.653 248.07 138.495 162.29 158.748 100.56C168.876 69.69 180.595 44.8799 193.288 27.9099C205.994 10.9199 219.573 1.9201 233.413 2.3701C247.253 2.8301 260.315 12.7 272.067 30.48C283.806 48.25 294.144 73.79 302.562 105.27C319.395 168.22 328.51 254.75 325.899 349.95C323.288 445.14 309.446 530.92 289.193 592.65C279.065 623.52 267.346 648.34 254.653 665.31C241.948 682.3 228.368 691.3 214.528 690.84C200.688 690.39 187.626 680.52 175.874 662.73C164.135 644.96 153.797 619.42 145.379 587.94C128.546 525 119.431 438.47 122.042 343.27Z" stroke="white" stroke-width="1.33333"/>
<path d="M148.525 279.81C214.836 209.8 283.349 153.96 340.5 120.27C369.079 103.42 394.783 92.13 415.927 87.36C437.096 82.59 453.521 84.3898 463.757 93.4498C473.993 102.51 477.286 118.17 474.226 138.98C471.169 159.76 461.794 185.51 446.943 214.51C417.246 272.51 365.727 343.4 299.416 413.41C233.105 483.41 164.592 539.25 107.441 572.95C78.8622 589.79 53.1585 601.08 32.0146 605.85C10.8452 610.63 -5.5794 608.83 -15.8156 599.77C-26.0519 590.7 -29.3451 575.04 -26.2846 554.24C-23.2278 533.45 -13.8524 507.71 0.998127 478.7C30.6949 420.71 82.214 349.82 148.525 279.81Z" stroke="white" stroke-width="1.33333"/>
<path d="M161.155 268.57C238.806 210.44 316.161 166.62 378.44 142.75C409.584 130.81 436.922 123.88 458.622 122.63C480.35 121.37 496.244 125.82 504.763 136.4C513.283 146.98 513.805 162.93 507.157 182.92C500.517 202.88 486.775 226.7 467.062 252.84C427.642 305.11 364.437 366.51 286.786 424.64C209.135 482.77 131.781 526.6 69.5012 550.47C38.357 562.4 11.0197 569.34 -10.6806 570.59C-32.4087 571.84 -48.3025 567.4 -56.8219 556.82C-65.3414 546.23 -65.8638 530.28 -59.2154 510.3C-52.5755 490.33 -38.8339 466.51 -19.1209 440.37C20.2996 388.11 83.5044 326.71 161.155 268.57Z" stroke="white" stroke-width="1.33333"/>
<path d="M130.808 305.91C170.871 219.17 217.622 145.24 260.806 95.84C282.401 71.14 303.077 52.5999 321.554 41.6499C340.05 30.6899 356.194 27.4199 368.841 32.9399C381.488 38.4699 389.694 52.3801 393.554 73.1101C397.41 93.8101 396.894 121.16 392.25 153.27C382.964 217.47 357.197 300.57 317.133 387.31C277.07 474.05 230.319 547.97 187.135 597.37C165.541 622.07 144.864 640.61 126.387 651.56C107.891 662.53 91.7471 665.8 79.0999 660.27C66.4528 654.75 58.2468 640.84 54.3869 620.11C50.5312 599.4 51.0473 572.06 55.6909 539.95C64.9767 475.74 90.7446 392.65 130.808 305.91Z" stroke="white" stroke-width="1.33333"/>
<path d="M139.119 291.38C193.781 212.51 252.809 147.34 304.042 105.73C329.661 84.9299 353.301 70.0399 373.445 62.2699C393.613 54.4899 410.115 53.8898 421.631 61.3898C433.147 68.8798 438.821 83.9099 439.018 104.95C439.214 125.96 433.937 152.8 423.757 183.65C403.4 245.35 363.483 322.96 308.822 401.83C254.16 480.71 195.132 545.88 143.9 587.48C118.28 608.29 94.6405 623.18 74.4958 630.95C54.328 638.73 37.8258 639.33 26.3101 631.83C14.7943 624.34 9.11971 609.31 8.92348 588.27C8.72748 567.26 14.0039 540.42 24.184 509.57C44.5413 447.87 84.4577 370.26 139.119 291.38Z" stroke="white" stroke-width="1.33333"/>
<path d="M153.825 274.62C225.369 209.6 298.021 158.86 357.634 129.38C387.445 114.63 413.959 105.22 435.423 101.99C456.914 98.7499 473.163 101.72 482.678 111.48C492.194 121.25 494.277 137.09 489.625 157.61C484.978 178.11 473.645 203.09 456.599 230.94C422.512 286.61 365.66 353.57 294.116 418.59C222.573 483.62 149.92 534.36 90.3073 563.84C60.4965 578.58 33.9819 587.99 12.518 591.23C-8.97253 594.47 -25.2214 591.5 -34.737 581.73C-44.2526 571.97 -46.3361 556.12 -41.6835 535.6C-37.0367 515.11 -25.7038 490.12 -8.65769 462.28C25.4298 406.6 82.2814 339.64 153.825 274.62Z" stroke="white" stroke-width="1.33333"/>
<path d="M167.29 264.33C249.236 211.96 329.787 173.83 393.763 154.5C425.756 144.84 453.566 139.89 475.315 140.2C497.093 140.51 512.608 146.07 520.295 157.23C527.981 168.39 527.277 184.32 519.108 203.77C510.949 223.19 495.407 245.95 473.729 270.58C430.38 319.85 362.597 376.52 280.651 428.89C198.706 481.26 118.154 519.39 54.1782 538.71C22.1855 548.38 -5.62433 553.32 -27.3733 553.02C-49.1509 552.71 -64.6668 547.14 -72.3528 535.98C-80.0389 524.83 -79.3357 508.89 -71.1659 489.45C-63.0068 470.03 -47.4652 447.27 -25.7875 422.63C17.5618 373.36 85.3447 316.7 167.29 264.33Z" stroke="white" stroke-width="1.33333"/>
<path d="M134.141 299.36C180.78 215.78 233.108 145.45 279.992 99.3201C303.437 76.2401 325.492 59.25 344.769 49.66C364.068 40.06 380.427 37.9602 392.62 44.3702C404.813 50.7802 411.933 65.24 414.191 86.17C416.448 107.09 413.832 134.31 406.732 165.98C392.533 229.3 360.438 310.27 313.8 393.85C267.161 477.44 214.833 547.76 167.949 593.9C144.504 616.97 122.448 633.97 103.171 643.56C83.873 653.16 67.514 655.26 55.3207 648.85C43.1274 642.43 36.0081 627.98 33.7493 607.04C31.4929 586.13 34.1089 558.91 41.2091 527.24C55.4074 463.91 87.5022 382.94 134.141 299.36Z" stroke="white" stroke-width="1.33333"/>
<path d="M143.551 285.48C204.152 210.78 268.057 150.06 322.373 112.27C349.535 93.3701 374.266 80.23 394.964 73.93C415.686 67.62 432.196 68.2101 443.109 76.5001C454.022 84.8001 458.529 100.18 457.109 121.17C455.69 142.12 448.363 168.5 435.835 198.52C410.782 258.55 364.991 333.04 304.39 407.74C243.789 482.43 179.884 543.15 125.568 580.94C98.4068 599.84 73.6756 612.98 52.9778 619.29C32.2558 625.6 15.7455 625.01 4.83277 616.71C-6.08 608.42 -10.5879 593.03 -9.16742 572.05C-7.7486 551.09 -0.421702 524.72 12.1065 494.7C37.1593 434.66 82.9502 360.17 143.551 285.48Z" stroke="white" stroke-width="1.33333"/>
<path d="M253.713 444.18C162.638 471.94 76.8611 486.08 11.8118 486.51C-20.7174 486.72 -48.0237 483.51 -68.2065 476.88C-88.4105 470.25 -101.322 460.25 -105.36 447C-109.399 433.75 -104.261 418.25 -91.1939 401.47C-78.1403 384.71 -57.27 366.81 -30.1524 348.84C24.0755 312.91 103.154 276.8 194.228 249.04C285.303 221.28 371.08 207.14 436.13 206.71C468.659 206.49 495.965 209.71 516.148 216.34C536.352 222.97 549.263 232.97 553.301 246.22C557.34 259.47 552.202 274.97 539.135 291.75C526.082 308.51 505.211 326.41 478.094 344.37C423.866 380.3 344.787 416.42 253.713 444.18Z" stroke="white" stroke-width="1.33333"/>
<path d="M237.423 447.62C142.806 459.1 55.6575 458.11 -8.74815 447.25C-40.9553 441.82 -67.4362 433.93 -86.3131 423.91C-105.21 413.89 -116.343 401.83 -118.169 388.11C-119.996 374.4 -112.379 360.06 -96.7104 345.84C-81.0581 331.64 -57.4882 317.68 -27.7286 304.73C31.7823 278.84 115.901 257.07 210.518 245.6C305.135 234.12 392.284 235.11 456.689 245.97C488.897 251.4 515.377 259.29 534.254 269.3C553.151 279.33 564.284 291.39 566.11 305.1C567.937 318.82 560.32 333.16 544.651 347.37C528.999 361.57 505.429 375.54 475.67 388.49C416.159 414.38 332.04 436.14 237.423 447.62Z" stroke="white" stroke-width="1.33333"/>
<path d="M281.774 430.23C204.327 486.2 127.722 527.44 66.4909 548.88C35.871 559.59 9.13227 565.35 -11.9276 565.54C-33.0105 565.73 -48.2369 560.34 -56.0838 548.99C-63.9308 537.64 -63.8124 521.17 -56.6007 500.91C-49.3968 480.67 -35.1669 456.82 -15.0645 430.89C25.1349 379.02 88.7199 318.95 166.167 262.98C243.614 207.01 320.219 165.78 381.45 144.34C412.07 133.62 438.809 127.87 459.869 127.68C480.952 127.49 496.178 132.87 504.025 144.23C511.872 155.58 511.753 172.05 504.542 192.31C497.338 212.54 483.108 236.4 463.005 262.33C422.806 314.19 359.221 374.27 281.774 430.23Z" stroke="white" stroke-width="1.33333"/>
<path d="M267.459 438.79C181.705 480.34 99.196 507.57 35.1304 518C3.09315 523.23 -24.2931 524.24 -45.1524 520.77C-66.0339 517.3 -80.2137 509.37 -86.1183 496.86C-92.0228 484.34 -89.2096 468.18 -78.7633 449.53C-68.328 430.9 -50.3524 409.94 -26.2277 387.94C22.015 343.96 94.7296 295.98 180.483 254.43C266.236 212.88 348.745 185.65 412.811 175.21C444.848 169.99 472.234 168.98 493.094 172.44C513.975 175.91 528.155 183.84 534.06 196.36C539.964 208.87 537.151 225.04 526.705 243.69C516.269 262.32 498.294 283.28 474.169 305.27C425.926 349.25 353.212 397.24 267.459 438.79Z" stroke="white" stroke-width="1.33333"/>
<path d="M246.639 446.04C153.681 466.72 66.9958 474.25 2.00017 469.7C-30.5022 467.43 -57.5412 462.14 -77.2198 454C-96.9191 445.85 -109.092 434.9 -112.17 421.4C-115.248 407.9 -109 392.85 -94.7395 377.15C-80.4944 361.46 -58.3605 345.23 -29.9825 329.41C26.7655 297.78 108.345 267.86 201.303 247.18C294.261 226.49 380.946 218.97 445.942 223.52C478.444 225.79 505.483 231.08 525.162 239.22C544.861 247.37 557.034 258.32 560.112 271.82C563.19 285.32 556.941 300.36 542.681 316.07C528.436 331.76 506.302 347.99 477.924 363.81C421.176 395.44 339.596 425.36 246.639 446.04Z" stroke="white" stroke-width="1.33333"/>
<path d="M230.122 448.22C134.801 452.42 47.8363 444.77 -15.7025 429.04C-47.4764 421.17 -73.3537 411.28 -91.4842 399.87C-109.634 388.44 -119.882 375.58 -120.717 361.78C-121.552 347.99 -112.912 334.29 -96.2382 321.33C-79.5822 308.39 -55.036 296.29 -24.3814 285.67C36.9193 264.43 122.498 249.19 217.82 244.99C313.141 240.8 400.105 248.44 463.644 264.18C495.418 272.05 521.295 281.94 539.426 293.35C557.576 304.77 567.824 317.64 568.659 331.43C569.494 345.23 560.854 358.92 544.18 371.88C527.524 384.83 502.978 396.93 472.323 407.55C411.022 428.78 325.443 444.03 230.122 448.22Z" stroke="white" stroke-width="1.33333"/>
<path d="M275.669 434.3C194.287 484.11 114.81 519.32 52.1125 535.98C20.7596 544.32 -6.35906 548 -27.405 546.58C-48.4736 545.16 -63.2927 538.64 -70.3115 526.73C-77.3303 514.82 -76.0237 498.43 -67.3608 478.81C-58.7073 459.21 -42.7761 436.55 -20.8298 412.26C23.0568 363.69 90.8905 308.73 172.272 258.92C253.654 209.1 333.132 173.9 395.829 157.23C427.182 148.9 454.301 145.21 475.347 146.63C496.415 148.06 511.235 154.58 518.253 166.49C525.272 178.39 523.966 194.79 515.303 214.41C506.649 234.01 490.718 256.67 468.772 280.96C424.885 329.53 357.051 384.49 275.669 434.3Z" stroke="white" stroke-width="1.33333"/>
<path d="M260.755 441.73C172.117 476.55 87.7525 497.35 23.0177 502.85C-9.35416 505.6 -36.7779 504.51 -57.36 499.47C-77.9638 494.42 -91.5537 485.44 -96.5483 472.52C-101.543 459.61 -97.5674 443.72 -85.7901 425.95C-74.0252 408.2 -54.5613 388.7 -28.8822 368.64C22.4688 328.54 98.5488 286.31 187.186 251.49C275.824 216.67 360.189 195.87 424.924 190.37C457.296 187.62 484.719 188.7 505.301 193.75C525.905 198.8 539.495 207.78 544.49 220.7C549.484 233.61 545.509 249.49 533.732 267.26C521.967 285.02 502.503 304.52 476.824 324.58C425.473 364.68 349.393 406.91 260.755 441.73Z" stroke="white" stroke-width="1.33333"/>
<path d="M191.993 442.17C101.628 408.51 23.444 367.29 -29.9125 327.86C-56.5945 308.14 -77.0357 288.9 -89.6921 271.31C-102.364 253.69 -107.132 237.87 -102.793 224.9C-98.4547 211.94 -85.3287 202.78 -64.9814 197.47C-44.6586 192.15 -17.2965 190.71 15.2046 193.04C80.1977 197.7 165.585 217.39 255.949 251.05C346.314 284.71 424.498 325.93 477.854 365.36C504.536 385.07 524.978 404.32 537.634 421.91C550.306 439.53 555.074 455.35 550.735 468.31C546.397 481.28 533.271 490.43 512.923 495.75C492.601 501.07 465.238 502.5 432.737 500.18C367.744 495.52 282.357 475.82 191.993 442.17Z" stroke="white" stroke-width="1.33333"/>
<path d="M176.712 434.94C92.8452 386.2 22.2627 332.14 -24.0586 284.15C-47.2226 260.15 -64.2917 237.7 -73.9307 218.22C-83.5821 198.71 -85.7074 182.35 -79.2979 170.37C-72.8883 158.39 -58.4121 151.67 -37.4155 149.97C-16.4459 148.28 10.852 151.61 42.6162 159.54C106.135 175.38 187.364 209.54 271.23 258.28C355.096 307.02 425.679 361.08 472 409.07C495.164 433.06 512.233 455.51 521.872 475C531.524 494.5 533.649 510.87 527.24 522.85C520.83 534.83 506.354 541.55 485.357 543.24C464.387 544.94 437.089 541.6 405.325 533.68C341.806 517.84 260.578 483.67 176.712 434.94Z" stroke="white" stroke-width="1.33333"/>
<path d="M222.94 448.27C127.438 445.31 41.1194 431.19 -21.2312 410.76C-52.4108 400.54 -77.5589 388.76 -94.8617 376.04C-112.183 363.3 -121.51 349.72 -121.37 335.92C-121.23 322.12 -111.634 309.13 -94.0652 297.47C-76.5154 285.83 -51.1442 275.61 -19.7771 267.33C42.9484 250.77 129.5 241.99 225.001 244.95C320.503 247.9 406.822 262.03 469.172 282.46C500.352 292.67 525.5 304.45 542.803 317.18C560.125 329.92 569.451 343.49 569.311 357.29C569.171 371.1 559.575 384.09 542.006 395.75C524.457 407.39 499.085 417.61 467.718 425.89C404.993 442.45 318.442 451.22 222.94 448.27Z" stroke="white" stroke-width="1.33333"/>
<path d="M206.32 446.3C112.35 426.83 29.2881 397.98 -29.0363 367.1C-58.2025 351.65 -81.1476 335.72 -96.1792 320.22C-111.228 304.7 -118.228 289.74 -115.833 276.21C-113.437 262.68 -101.824 251.58 -82.5387 243.18C-63.2758 234.78 -36.5109 229.14 -4.13284 226.45C60.6141 221.06 147.651 227.45 241.622 246.92C335.592 266.39 418.653 295.23 476.978 326.12C506.144 341.56 529.089 357.5 544.12 373C559.169 388.52 566.169 403.47 563.774 417C561.378 430.53 549.765 441.63 530.48 450.04C511.217 458.44 484.452 464.07 452.074 466.77C387.327 472.16 300.29 465.77 206.32 446.3Z" stroke="white" stroke-width="1.33333"/>
<path d="M185.144 439.32C97.3239 398.89 22.2135 351.87 -28.231 308.53C-53.4569 286.86 -72.4842 266.13 -83.8554 247.64C-95.2408 229.13 -98.8612 213.01 -93.5941 200.44C-88.3271 187.86 -74.5595 179.75 -53.8542 176.01C-33.1744 172.27 -5.74382 172.93 26.5475 177.73C91.1208 187.33 174.977 213.48 262.797 253.9C350.617 294.32 425.727 341.35 476.172 384.69C501.398 406.36 520.425 427.08 531.796 445.57C543.182 464.09 546.802 480.2 541.535 492.78C536.268 505.36 522.501 513.47 501.795 517.21C481.115 520.95 453.685 520.29 421.394 515.49C356.82 505.88 272.964 479.74 185.144 439.32Z" stroke="white" stroke-width="1.33333"/>
<path d="M170.405 430.95C90.1614 376.01 23.5686 316.78 -19.2324 265.45C-40.636 239.78 -56.0643 216.12 -64.286 195.99C-72.5186 175.82 -73.4602 159.36 -66.1965 147.93C-58.9328 136.49 -43.9924 130.91 -22.8998 130.82C-1.83484 130.74 25.1876 136.14 56.3393 146.46C118.634 167.1 197.293 207.32 277.536 262.27C357.78 317.21 424.372 376.44 467.173 427.77C488.577 453.43 504.005 477.09 512.227 497.23C520.46 517.39 521.401 533.85 514.137 545.29C506.874 556.73 491.933 562.31 470.841 562.39C449.776 562.48 422.753 557.07 391.602 546.75C329.307 526.12 250.648 485.89 170.405 430.95Z" stroke="white" stroke-width="1.33333"/>
<path d="M215.611 447.76C120.447 437.52 35.2581 416.85 -25.5384 391.74C-55.9409 379.19 -80.207 365.53 -96.5699 351.54C-112.951 337.53 -121.285 323.3 -120.15 309.57C-119.016 295.84 -108.497 283.63 -90.1093 273.37C-71.7425 263.11 -45.6673 254.88 -13.7438 249.03C50.0945 237.33 137.166 235.21 232.33 245.46C327.495 255.7 412.683 276.36 473.48 301.47C503.882 314.03 528.149 327.68 544.511 341.68C560.893 355.69 569.227 369.92 568.092 383.65C566.957 397.38 556.438 409.58 538.051 419.85C519.684 430.1 493.609 438.34 461.685 444.19C397.847 455.88 310.776 458 215.611 447.76Z" stroke="white" stroke-width="1.33333"/>
<path d="M199.155 444.53C106.71 417.96 25.8365 382.88 -30.1853 347.67C-58.2001 330.06 -79.9664 312.44 -93.8609 295.85C-107.772 279.25 -113.683 263.82 -110.316 250.53C-106.948 237.25 -94.5508 227.08 -74.684 220.18C-54.8404 213.3 -27.7034 209.73 4.827 209.52C69.8788 209.1 156.342 222.12 248.787 248.69C341.231 275.26 422.105 310.33 478.126 345.55C506.141 363.16 527.908 380.78 541.802 397.36C555.713 413.97 561.624 429.4 558.257 442.68C554.889 455.97 542.492 466.14 522.625 473.03C502.782 479.92 475.645 483.49 443.114 483.7C378.062 484.11 291.599 471.1 199.155 444.53Z" stroke="white" stroke-width="1.33333"/>
<path d="M125.106 371.72C101.668 279.44 91.5893 193.09 94.227 128.09C95.5461 95.59 100.044 68.46 107.616 48.61C115.196 28.75 125.794 16.3198 139.218 12.9098C152.642 9.49984 167.885 15.3599 184.027 29.2099C200.152 43.0399 217.048 64.7298 233.717 92.6598C267.051 148.52 299.397 229.22 322.834 321.5C346.272 413.78 356.351 500.13 353.714 565.13C352.394 597.63 347.897 624.75 340.325 644.6C332.744 664.47 322.146 676.9 308.723 680.31C295.299 683.72 280.056 677.85 263.914 664.01C247.788 650.18 230.892 628.49 214.223 600.55C180.89 544.69 148.544 464 125.106 371.72Z" stroke="white" stroke-width="1.33333"/>
<path d="M122.436 355.28C115.432 260.23 120.527 173.23 134.411 109.4C141.355 77.4899 150.488 51.41 161.379 33.02C172.281 14.62 184.856 4.06992 198.642 2.88992C212.427 1.70992 226.391 10.0001 239.852 26.3201C253.299 42.6201 266.137 66.8299 277.668 97.1599C300.726 157.83 318.5 242.88 325.505 337.93C332.509 432.98 327.414 519.99 313.53 583.81C306.586 615.73 297.453 641.81 286.562 660.19C275.66 678.59 263.085 689.15 249.299 690.32C235.513 691.5 221.55 683.22 208.089 666.9C194.642 650.59 181.803 626.39 170.273 596.05C147.215 535.39 129.441 450.34 122.436 355.28Z" stroke="white" stroke-width="1.33333"/>
<path d="M137.712 400.4C85.4579 320.41 47.8783 241.94 29.3527 179.77C20.0887 148.68 15.6009 121.7 16.4044 100.65C17.2087 79.58 23.3046 64.6302 35.0143 57.3202C46.7241 50.0202 63.1733 50.9202 83.0684 59.0702C102.942 67.2202 126.096 82.5602 151.055 103.87C200.966 146.47 257.974 212.81 310.228 292.81C362.483 372.81 400.063 451.27 418.588 513.45C427.852 544.54 432.34 571.52 431.537 592.56C430.732 613.63 424.636 628.59 412.927 635.89C401.217 643.19 384.768 642.3 364.873 634.14C344.999 625.99 321.845 610.65 296.886 589.35C246.975 546.75 189.967 480.4 137.712 400.4Z" stroke="white" stroke-width="1.33333"/>
<path d="M129.841 385.7C92.3789 298.09 69.074 214.38 61.6671 149.9C57.963 117.65 58.2394 90.25 62.6852 69.57C67.1358 48.88 75.7256 35.0899 88.506 29.7799C101.286 24.4699 117.3 28.04 135.436 39.36C153.553 50.66 173.646 69.5999 194.477 94.7399C236.132 145 280.638 219.9 318.1 307.51C355.562 395.13 378.867 478.83 386.274 543.32C389.978 575.57 389.702 602.97 385.256 623.64C380.805 644.34 372.215 658.13 359.435 663.44C346.655 668.74 330.641 665.17 312.505 653.86C294.388 642.56 274.295 623.61 253.464 598.48C211.808 548.21 167.303 473.32 129.841 385.7Z" stroke="white" stroke-width="1.33333"/>
<path d="M123.58 364.56C107.302 270.73 103.875 183.79 111.479 119.08C115.282 86.7201 121.838 59.96 130.9 40.69C139.971 21.4 151.478 9.75008 165.109 7.31008C178.74 4.88008 193.473 11.8301 208.491 26.8101C223.492 41.7801 238.66 64.66 253.123 93.75C282.046 151.92 308.083 234.82 324.361 328.65C340.639 422.48 344.066 509.43 336.462 574.13C332.659 606.49 326.102 633.25 317.041 652.53C307.97 671.82 296.463 683.46 282.832 685.9C269.201 688.34 254.468 681.39 239.45 666.4C224.448 651.43 209.281 628.56 194.818 599.47C165.895 541.29 139.857 458.39 123.58 364.56Z" stroke="white" stroke-width="1.33333"/>
<path d="M122.179 347.96C122.481 252.55 134.218 166.04 152.934 103.32C162.293 71.95 173.387 46.5699 185.642 28.9899C197.91 11.3999 211.242 1.77002 225.062 1.59002C238.881 1.40002 252.154 10.6799 264.312 27.9499C276.457 45.1899 287.391 70.2798 296.552 101.4C314.873 163.64 326.063 249.84 325.761 345.25C325.46 440.67 313.723 527.17 295.007 589.9C285.648 621.27 274.554 646.65 262.299 664.22C250.031 681.81 236.698 691.44 222.879 691.63C209.059 691.81 195.787 682.54 183.629 665.27C171.484 648.02 160.55 622.93 151.388 591.81C133.068 529.58 121.877 443.38 122.179 347.96Z" stroke="white" stroke-width="1.33333"/>
<path d="M133.938 394.12C88.0182 310.48 56.5972 229.43 42.9066 166.01C36.0604 134.3 33.6565 107.04 36.0682 86.08C38.4825 65.11 45.699 50.6098 57.9222 44.1598C70.1454 37.7098 86.4608 39.79 105.651 49.37C124.821 58.94 146.707 75.9199 169.935 98.9899C216.384 145.11 268.083 215.46 314.003 299.1C359.922 382.74 391.343 463.79 405.034 527.2C411.88 558.91 414.284 586.18 411.872 607.13C409.458 628.11 402.242 642.61 390.018 649.05C377.795 655.5 361.48 653.43 342.29 643.85C323.12 634.28 301.233 617.3 278.005 594.23C231.557 548.1 179.857 477.76 133.938 394.12Z" stroke="white" stroke-width="1.33333"/>
<path d="M127.224 378.87C96.621 288.69 79.8185 203.44 77.379 138.51C76.159 106.05 78.5326 78.7098 84.5436 58.3798C90.5609 38.0398 100.172 24.8899 113.308 20.5099C126.444 16.1299 142.12 20.8499 159.318 33.4499C176.497 46.0399 195.059 66.3999 213.881 92.9999C251.521 146.18 290.114 224.17 320.717 314.35C351.32 404.53 368.122 489.78 370.562 554.7C371.782 587.17 369.408 614.51 363.397 634.83C357.38 655.17 347.769 668.33 334.632 672.71C321.496 677.09 305.82 672.37 288.623 659.77C271.444 647.18 252.882 626.81 234.06 600.22C196.419 547.03 157.827 469.05 127.224 378.87Z" stroke="white" stroke-width="1.33333"/>
<path d="M130.026 310.16C167.905 221.48 212.769 145.33 254.666 93.8899C275.618 68.1699 295.803 48.6601 313.976 36.8401C332.171 25.0201 348.198 21 360.944 25.94C373.69 30.89 382.216 44.43 386.57 65.01C390.919 85.56 391.066 112.96 387.209 145.31C379.496 210.01 355.794 294.38 317.915 383.06C280.036 471.73 235.172 547.89 193.274 599.33C172.323 625.05 152.138 644.56 133.965 656.37C115.77 668.2 99.7428 672.22 86.9967 667.27C74.2507 662.33 65.725 648.78 61.3709 628.21C57.0221 607.66 56.8753 580.26 60.7321 547.9C68.4446 483.2 92.1473 398.84 130.026 310.16Z" stroke="white" stroke-width="1.33333"/>
<path d="M137.969 295.24C190.607 213.76 247.934 145.81 298.051 101.8C323.114 79.79 346.344 63.8 366.259 55.09C386.2 46.37 402.648 45.0199 414.312 51.9799C425.976 58.9499 432.004 73.73 432.709 94.78C433.413 115.81 428.797 142.92 419.385 174.27C400.563 236.98 362.609 316.5 309.972 397.98C257.335 479.45 200.008 547.41 149.89 591.42C124.827 613.42 101.597 629.42 81.682 638.13C61.7413 646.85 45.2936 648.2 33.6296 641.23C21.9655 634.26 15.9376 619.49 15.2326 598.43C14.5284 577.41 19.1445 550.3 28.5566 518.94C47.378 456.24 85.3322 376.71 137.969 295.24Z" stroke="white" stroke-width="1.33333"/>
<path d="M122.472 340.79C129.926 245.53 148.103 159.97 171.45 98.6499C183.125 67.9899 196.078 43.43 209.604 26.74C223.144 10.04 237.146 1.36994 250.925 2.15994C264.704 2.94994 277.229 13.14 288.046 31.24C298.851 49.32 307.862 75.1501 314.655 106.87C328.239 170.31 332.923 257.17 325.469 352.43C318.015 447.69 299.838 533.24 276.491 594.56C264.816 625.22 251.862 649.79 238.337 666.47C224.797 683.18 210.795 691.85 197.016 691.06C183.237 690.27 170.711 680.07 159.895 661.97C149.09 643.89 140.079 618.07 133.286 586.35C119.702 522.91 115.018 436.04 122.472 340.79Z" stroke="white" stroke-width="1.33333"/>
<path d="M125.223 324.28C149.099 231.33 181.829 149.72 215.429 92.9198C232.232 64.5098 249.232 42.34 265.425 28.06C281.636 13.76 296.905 7.4699 310.306 10.4999C323.708 13.5299 334.248 25.66 341.736 45.32C349.215 64.95 353.585 91.9498 354.751 124.42C357.081 189.35 346.593 275.99 322.718 368.94C298.842 461.89 266.112 543.5 232.512 600.3C215.709 628.71 198.709 650.87 182.516 665.16C166.305 679.46 151.036 685.75 137.635 682.72C124.233 679.68 113.693 667.56 106.205 647.9C98.7261 628.26 94.356 601.26 93.1904 568.79C90.8596 503.86 101.348 417.23 125.223 324.28Z" stroke="white" stroke-width="1.33333"/>
<path d="M133.195 303.45C177.712 217.64 228.228 144.83 273.897 96.48C296.734 72.31 318.333 54.28 337.338 43.79C356.366 33.29 372.636 30.43 384.95 36.29C397.264 42.14 404.719 56.2799 407.48 77.1299C410.238 97.9699 408.286 125.34 401.967 157.37C389.331 221.41 359.263 303.94 314.746 389.76C270.228 475.58 219.713 548.39 174.044 596.73C151.206 620.91 129.608 638.94 110.603 649.43C91.5741 659.93 75.305 662.78 62.9909 656.93C50.6767 651.07 43.2219 636.94 40.4606 616.08C37.7027 595.25 39.6546 567.88 45.9735 535.85C58.6094 471.8 88.6772 389.27 133.195 303.45Z" stroke="white" stroke-width="1.33333"/>
<path d="M142.249 289.13C200.914 211.56 263.215 147.84 316.502 107.5C343.15 87.33 367.512 73.0401 388.014 65.7701C408.544 58.5001 425.028 58.3399 436.11 66.1299C447.192 73.9199 452.064 89.11 451.155 110.19C450.246 131.23 443.572 157.97 431.797 188.6C408.25 249.85 364.358 326.53 305.692 404.09C247.027 481.65 184.726 545.38 131.439 585.71C104.791 605.88 80.4294 620.18 59.9268 627.44C39.3972 634.72 22.9131 634.88 11.8313 627.09C0.749572 619.29 -4.12325 604.1 -3.21339 583.03C-2.30471 561.99 4.36883 535.25 16.1442 504.62C39.6916 443.37 83.5835 366.69 142.249 289.13Z" stroke="white" stroke-width="1.33333"/>
<path d="M123.325 333.49C138.043 238.91 162.699 154.79 190.647 95.2499C204.623 65.4699 219.406 41.8798 234.155 26.1898C248.92 10.4898 263.531 2.83001 277.192 4.62001C290.853 6.40001 302.548 17.48 311.936 36.33C321.313 55.16 328.31 81.5899 332.647 113.76C341.32 178.08 339.333 265.15 324.615 359.73C309.897 454.3 285.242 538.42 257.293 597.97C243.317 627.74 228.534 651.34 213.785 667.02C199.02 682.73 184.41 690.38 170.748 688.6C157.087 686.82 145.392 675.74 136.005 656.89C126.627 638.06 119.63 611.62 115.293 579.46C106.621 515.14 108.607 428.06 123.325 333.49Z" stroke="white" stroke-width="1.33333"/>
<path d="M127.33 317.2C158.227 226.11 197.075 146.98 234.891 92.6799C253.801 65.5299 272.431 44.62 289.653 31.52C306.895 18.41 322.583 13.2299 335.697 17.2199C348.811 21.2099 358.38 34.0799 364.333 54.2499C370.279 74.3899 372.564 101.67 371.239 134.17C368.588 199.17 351.508 284.92 320.611 376.01C289.714 467.1 250.866 546.23 213.05 600.53C194.14 627.69 175.51 648.6 158.288 661.69C141.046 674.81 125.358 679.98 112.244 675.99C99.13 672 89.5609 659.14 83.6082 638.97C77.6624 618.82 75.3773 591.55 76.7026 559.05C79.3528 494.05 96.4329 408.29 127.33 317.2Z" stroke="white" stroke-width="1.33333"/>
</svg>
