<svg  viewBox="0 0 380 512" fill="none" xmlns="http://www.w3.org/2000/svg">
<path d="M252.07 331.54C181.6 327.4 118.33 315.15 73.01 298.71C50.34 290.48 32.2 281.23 19.89 271.44C7.56999 261.64 1.22003 251.41 1.81003 241.24C2.41003 231.07 9.92002 221.65 23.3 213.36C36.67 205.08 55.77 198.01 79.25 192.5C126.19 181.48 190.46 176.73 260.92 180.87C331.39 185.01 394.66 197.26 439.99 213.7C462.65 221.93 480.79 231.18 493.1 240.97C505.43 250.77 511.78 261 511.18 271.17C510.58 281.34 503.08 290.76 489.69 299.05C476.32 307.33 457.22 314.4 433.74 319.91C386.81 330.93 322.54 335.68 252.07 331.54Z" stroke="white" stroke-width="1.33333"/>
<path d="M239.88 329.74C171.15 313.37 110.81 290.25 68.8399 266.13C47.8499 254.06 31.4899 241.77 20.9599 229.96C10.4099 218.15 5.82001 206.95 8.06001 197.02C10.3 187.1 19.23 179.12 33.76 173.28C48.28 167.44 68.24 163.8 92.26 162.46C140.29 159.77 204.37 166.29 273.11 182.67C341.85 199.04 402.18 222.16 444.15 246.28C465.14 258.35 481.5 270.64 492.04 282.45C502.58 294.26 507.17 305.46 504.93 315.39C502.69 325.31 493.77 333.29 479.23 339.14C464.71 344.97 444.75 348.61 420.73 349.95C372.7 352.64 308.62 346.12 239.88 329.74Z" stroke="white" stroke-width="1.33333"/>
<path d="M275.12 329.07C206.87 348.05 143 357 94.9201 356.14C70.8801 355.71 50.8201 352.83 36.1501 347.55C21.4601 342.26 12.33 334.62 9.81999 324.79C7.29999 314.96 11.5801 303.59 21.8001 291.38C32.0001 279.18 48.0201 266.27 68.6701 253.42C109.96 227.71 169.62 202.32 237.87 183.34C306.13 164.36 369.99 155.41 418.07 156.27C442.11 156.7 462.17 159.58 476.84 164.86C491.53 170.15 500.66 177.79 503.18 187.62C505.69 197.45 501.41 208.82 491.19 221.03C480.99 233.23 464.97 246.14 444.32 258.99C403.04 284.7 343.37 310.09 275.12 329.07Z" stroke="white" stroke-width="1.33333"/>
<path d="M262.99 331.33C192.67 338.15 128.31 335.84 81.0899 326.6C57.4799 321.99 38.1899 315.65 24.5999 307.88C10.9899 300.1 3.22994 290.98 2.35994 280.84C1.47994 270.7 7.54993 260.23 19.5999 249.97C31.6299 239.72 49.5099 229.77 71.9399 220.7C116.79 202.54 179.69 187.9 250 181.08C320.32 174.26 384.69 176.58 431.9 185.81C455.52 190.42 474.8 196.76 488.39 204.53C502 212.31 509.76 221.43 510.64 231.57C511.51 241.71 505.45 252.18 493.4 262.44C481.36 272.7 463.49 282.64 441.06 291.72C396.21 309.87 333.31 324.52 262.99 331.33Z" stroke="white" stroke-width="1.33333"/>
<path d="M246.68 331.01C176.73 321.47 114.53 304.38 70.5201 284.5C48.5201 274.55 31.09 263.92 19.52 253.21C7.94005 242.49 2.34007 231.79 3.67007 221.7C4.99007 211.6 13.15 202.78 27.09 195.54C41.01 188.31 60.56 182.73 84.36 179.04C131.94 171.65 196.36 171.85 266.31 181.4C336.26 190.94 398.46 208.03 442.47 227.91C464.48 237.86 481.9 248.49 493.47 259.2C505.05 269.92 510.65 280.62 509.33 290.71C508 300.81 499.84 309.63 485.9 316.87C471.98 324.1 452.43 329.68 428.63 333.38C381.05 340.76 316.64 340.56 246.68 331.01Z" stroke="white" stroke-width="1.33333"/>
<path d="M234.66 328.28C167.31 306.67 108.82 278.97 68.71 251.68C48.65 238.03 33.2101 224.51 23.5601 211.92C13.8901 199.32 10.1199 187.8 13.0699 178.07C16.0099 168.34 25.48 161.07 40.39 156.36C55.28 151.65 75.44 149.56 99.49 150.06C147.56 151.08 210.98 162.51 278.33 184.13C345.68 205.75 404.17 233.44 444.29 260.73C464.35 274.38 479.78 287.91 489.43 300.49C499.1 313.09 502.87 324.61 499.93 334.34C496.98 344.07 487.51 351.34 472.6 356.05C457.71 360.76 437.55 362.86 413.51 362.35C365.43 361.33 302.02 349.9 234.66 328.28Z" stroke="white" stroke-width="1.33333"/>
<path d="M269.84 330.33C200.44 344.01 136.12 348.03 88.25 343.48C64.32 341.2 44.53 336.79 30.28 330.39C16.02 323.98 7.46005 315.66 5.66005 305.66C3.86005 295.66 8.94001 284.65 20 273.25C31.04 261.87 47.94 250.22 69.44 238.99C112.45 216.52 173.75 195.77 243.15 182.09C312.56 168.4 376.87 164.38 424.74 168.93C448.68 171.21 468.46 175.63 482.71 182.02C496.97 188.43 505.54 196.75 507.34 206.75C509.14 216.75 504.06 227.76 492.99 239.16C481.95 250.54 465.06 262.19 443.55 273.43C400.55 295.89 339.24 316.64 269.84 330.33Z" stroke="white" stroke-width="1.33333"/>
<path d="M257.58 331.65C187 333.04 122.99 325.79 76.5799 312.95C53.3699 306.53 34.6 298.72 21.61 289.93C8.59997 281.12 1.51998 271.42 1.36998 261.24C1.21998 251.06 8.02001 241.09 20.77 231.77C33.5 222.47 52.04 213.93 75.05 206.59C121.06 191.93 184.82 182.16 255.41 180.76C326 179.37 390 186.62 436.41 199.46C459.62 205.88 478.39 213.69 491.38 222.48C504.39 231.29 511.47 240.99 511.62 251.17C511.77 261.35 504.97 271.33 492.22 280.64C479.49 289.94 460.96 298.48 437.95 305.82C391.93 320.48 328.17 330.25 257.58 331.65Z" stroke="white" stroke-width="1.33333"/>
<path d="M209.77 314.29C155.6 267.63 111.86 218.84 84.92 177.71C71.44 157.14 62.2 138.51 57.93 123.04C53.66 107.55 54.43 95.3901 60.73 87.5601C67.04 79.7301 78.4499 76.7401 93.9499 78.2801C109.42 79.8101 128.8 85.8501 150.79 95.8301C194.77 115.79 249.06 151.46 303.23 198.12C357.39 244.78 401.13 293.57 428.07 334.7C441.55 355.27 450.8 373.9 455.06 389.37C459.33 404.86 458.56 417.02 452.26 424.85C445.96 432.68 434.55 435.67 419.05 434.13C403.57 432.6 384.19 426.56 362.2 416.58C318.22 396.62 263.93 360.95 209.77 314.29Z" stroke="white" stroke-width="1.33333"/>
<path d="M201.02 305.35C155.26 249.87 120.1 194.12 100.26 148.85C90.33 126.2 84.2501 106.22 82.5601 90.21C80.8801 74.18 83.62 62.33 91.09 55.71C98.57 49.09 110.29 48.1302 125.31 52.3502C140.31 56.5602 158.41 65.8901 178.45 79.5801C218.53 106.94 266.21 151.59 311.97 207.07C357.73 262.54 392.89 318.29 412.74 363.57C422.66 386.21 428.74 406.19 430.43 422.2C432.12 438.23 429.38 450.08 421.9 456.7C414.42 463.32 402.7 464.29 387.68 460.06C372.69 455.85 354.58 446.52 334.54 432.83C294.46 405.47 246.79 360.82 201.02 305.35Z" stroke="white" stroke-width="1.33333"/>
<path d="M229.67 326.47C164.03 299.83 107.66 267.8 69.58 237.55C50.53 222.43 36.09 207.77 27.35 194.49C18.6 181.19 15.64 169.41 19.26 159.93C22.88 150.45 32.8301 143.91 48.0301 140.33C63.2101 136.75 83.4601 136.18 107.4 138.49C155.26 143.13 217.69 159.3 283.32 185.94C348.96 212.58 405.33 244.61 443.42 274.86C462.46 289.98 476.9 304.64 485.64 317.92C494.39 331.22 497.35 343 493.73 352.48C490.11 361.96 480.16 368.5 464.96 372.08C449.78 375.66 429.53 376.23 405.6 373.92C357.74 369.28 295.31 353.11 229.67 326.47Z" stroke="white" stroke-width="1.33333"/>
<path d="M218.64 320.83C158.32 283.11 108 241.68 75.41 205.2C59.11 186.96 47.2699 169.99 40.8199 155.36C34.3599 140.71 33.37 128.58 38.47 119.86C43.58 111.15 54.44 106.43 70 105.55C85.53 104.67 105.57 107.63 128.77 114.09C175.16 127.01 234.03 153.85 294.35 191.58C354.67 229.3 404.99 270.73 437.58 307.21C453.88 325.45 465.72 342.42 472.17 357.05C478.63 371.7 479.62 383.83 474.52 392.55C469.41 401.26 458.55 405.98 443 406.86C427.47 407.74 407.42 404.78 384.22 398.32C337.83 385.4 278.97 358.56 218.64 320.83Z" stroke="white" stroke-width="1.33333"/>
<path d="M205.75 310.55C155.09 259.84 114.98 207.82 91.07 164.71C79.11 143.15 71.23 123.86 68.09 108.1C64.94 92.3201 66.5801 80.25 73.4201 72.93C80.2601 65.6 91.85 63.49 107.2 66.22C122.51 68.94 141.4 76.4501 162.61 88.1001C205.02 111.39 256.59 151.15 307.25 201.86C357.9 252.57 398.01 304.59 421.92 347.7C433.88 369.26 441.76 388.55 444.91 404.31C448.05 420.09 446.41 432.16 439.57 439.48C432.73 446.81 421.14 448.92 405.8 446.19C390.48 443.47 371.59 435.96 350.38 424.31C307.97 401.02 256.4 361.26 205.75 310.55Z" stroke="white" stroke-width="1.33333"/>
<path d="M197.67 300.96C156.02 242.1 124.97 183.79 108.43 137.1C100.16 113.75 95.53 93.3399 95 77.2499C94.46 61.1199 98.04 49.5099 105.97 43.4799C113.9 37.4499 125.65 37.3999 140.32 42.7599C154.97 48.1199 172.35 58.8199 191.35 74.0099C229.34 104.38 273.67 152.6 315.32 211.45C356.97 270.31 388.02 328.62 404.56 375.31C412.83 398.66 417.46 419.07 418 435.16C418.53 451.29 414.95 462.9 407.02 468.93C399.1 474.96 387.34 475.01 372.67 469.65C358.02 464.29 340.64 453.59 321.64 438.4C283.65 408.03 239.32 359.82 197.67 300.96Z" stroke="white" stroke-width="1.33333"/>
<path d="M224.71 324.24C161.19 292.62 107.28 256.33 71.49 223.23C53.58 206.68 40.24 190.95 32.48 177.03C24.7 163.09 22.6 151.11 26.89 141.93C31.18 132.75 41.57 126.99 56.98 124.59C72.36 122.19 92.59 123.17 116.29 127.32C163.67 135.62 224.75 156.56 288.28 188.18C351.81 219.79 405.71 256.08 441.51 289.18C459.41 305.74 472.75 321.46 480.51 335.38C488.29 349.32 490.39 361.3 486.1 370.48C481.81 379.66 471.43 385.42 456.02 387.82C440.63 390.22 420.4 389.24 396.7 385.09C349.32 376.79 288.24 355.85 224.71 324.24Z" stroke="white" stroke-width="1.33333"/>
<path d="M214.13 317.77C156.69 275.5 109.5 230.3 79.62 191.4C64.68 171.95 54.09 154.11 48.71 139.03C43.32 123.92 43.2001 111.74 48.9101 103.44C54.6301 95.1399 65.79 91.26 81.36 91.58C96.91 91.9 116.68 96.4001 139.35 104.62C184.67 121.07 241.43 152.38 298.86 194.65C356.3 236.91 403.49 282.11 433.37 321.01C448.31 340.46 458.9 358.3 464.28 373.38C469.67 388.49 469.79 400.67 464.08 408.97C458.36 417.28 447.2 421.15 431.63 420.83C416.08 420.51 396.31 416.01 373.65 407.79C328.32 391.34 271.56 360.03 214.13 317.77Z" stroke="white" stroke-width="1.33333"/>
<path d="M181.46 248.23C188.91 178.04 204.13 115.42 222.69 70.92C231.97 48.66 242.08 30.98 252.43 19.15C262.81 7.29998 273.32 1.44009 283.45 2.51009C293.58 3.59009 302.63 11.5301 310.28 25.2901C317.92 39.0401 324.08 58.45 328.48 82.16C337.28 129.56 339 193.99 331.54 264.18C324.08 334.37 308.86 396.99 290.3 441.49C281.02 463.75 270.92 481.43 260.56 493.27C250.19 505.11 239.67 510.98 229.54 509.9C219.41 508.82 210.36 500.88 202.71 487.12C195.07 473.37 188.91 453.96 184.51 430.25C175.72 382.85 174 318.42 181.46 248.23Z" stroke="white" stroke-width="1.33333"/>
<path d="M183.82 236.14C203.42 168.25 229.36 109.08 255.43 68.2901C268.47 47.8901 281.53 32.13 293.81 22.16C306.11 12.19 317.52 8.13018 327.32 10.8402C337.13 13.5402 344.68 22.83 349.83 37.63C354.98 52.4 357.68 72.5202 357.88 96.5702C358.3 144.67 348.77 208.38 329.17 276.27C309.57 344.16 283.64 403.33 257.56 444.12C244.52 464.52 231.47 480.28 219.18 490.25C206.88 500.22 195.48 504.28 185.67 501.57C175.86 498.87 168.31 489.58 163.16 474.78C158.01 460.01 155.32 439.89 155.11 415.84C154.69 367.74 164.23 304.03 183.82 236.14Z" stroke="white" stroke-width="1.33333"/>
<path d="M182.83 271.37C167.1 202.3 161.17 138.08 164.29 90.1002C165.85 66.1002 169.67 46.2101 175.64 31.8001C181.62 17.3801 189.67 8.61013 199.61 6.57013C209.55 4.52013 220.71 9.33017 232.42 20.1102C244.13 30.8802 256.27 47.49 268.14 68.72C291.86 111.17 314.42 171.97 330.16 241.04C345.9 310.11 351.83 374.33 348.7 422.31C347.14 446.31 343.32 466.2 337.35 480.61C331.38 495.03 323.32 503.8 313.38 505.85C303.44 507.89 292.29 503.08 280.57 492.3C268.87 481.53 256.72 464.92 244.86 443.69C221.13 401.24 198.57 340.44 182.83 271.37Z" stroke="white" stroke-width="1.33333"/>
<path d="M181.15 259.15C177.66 188.59 183 124.4 194.44 77.6699C200.17 54.3099 207.41 35.3398 215.81 22.1298C224.22 8.89984 233.7 1.5799 243.87 1.1899C254.04 0.789897 264.21 7.34006 273.9 19.8601C283.57 32.3601 292.66 50.69 300.67 73.52C316.69 119.18 328.35 182.7 331.84 253.26C335.34 323.82 329.99 388.01 318.55 434.74C312.82 458.1 305.58 477.07 297.18 490.28C288.77 503.51 279.29 510.83 269.12 511.22C258.95 511.62 248.78 505.07 239.1 492.55C229.42 480.05 220.34 461.72 212.33 438.89C196.31 393.23 184.64 329.71 181.15 259.15Z" stroke="white" stroke-width="1.33333"/>
<path d="M182.23 242.88C195.07 173.45 215.06 112.13 237 69.1001C247.97 47.5901 259.41 30.6899 270.66 19.6399C281.92 8.5699 292.86 3.48004 302.88 5.28004C312.91 7.08004 321.33 15.6499 327.91 29.9099C334.47 44.1599 339.13 63.9499 341.7 87.8999C346.83 135.78 343.59 200.11 330.76 269.53C317.92 338.96 297.93 400.28 275.99 443.31C265.02 464.82 253.58 481.72 242.34 492.77C231.08 503.84 220.13 508.93 210.11 507.13C200.08 505.33 191.66 496.76 185.09 482.5C178.52 468.25 173.86 448.46 171.3 424.51C166.16 376.63 169.4 312.3 182.23 242.88Z" stroke="white" stroke-width="1.33333"/>
<path d="M185.53 231C210.3 164.74 240.72 107.62 269.87 68.84C284.45 49.44 298.69 34.66 311.71 25.61C324.75 16.55 336.44 13.3299 346.02 16.7299C355.6 20.1299 362.42 29.93 366.42 45.05C370.42 60.14 371.56 80.38 369.92 104.37C366.64 152.34 352.24 215.15 327.47 281.41C302.7 347.67 272.27 404.79 243.12 443.57C228.54 462.97 214.31 477.75 201.28 486.8C188.24 495.86 176.55 499.08 166.97 495.68C157.4 492.28 150.58 482.48 146.57 467.36C142.57 452.27 141.43 432.03 143.07 408.04C146.35 360.07 160.76 297.26 185.53 231Z" stroke="white" stroke-width="1.33333"/>
<path d="M181.83 266.04C171.43 196.07 170.45 131.64 177.25 84.04C180.66 60.23 186 40.68 193.06 26.75C200.13 12.8 208.84 4.64004 218.92 3.31004C229 1.99004 239.75 7.5799 250.62 19.1699C261.47 30.7399 272.31 48.1599 282.51 70.1699C302.93 114.19 320.77 176.4 331.16 246.37C341.56 316.34 342.54 380.77 335.74 428.38C332.34 452.18 326.99 471.74 319.93 485.66C312.86 499.61 304.15 507.77 294.07 509.1C284 510.43 273.24 504.83 262.37 493.24C251.53 481.68 240.69 464.25 230.48 442.24C210.06 398.22 192.23 336.01 181.83 266.04Z" stroke="white" stroke-width="1.33333"/>
<path d="M181.09 253.74C183.02 183.16 193.29 119.57 208.3 73.8201C215.8 50.9301 224.49 32.55 233.88 19.99C243.29 7.41001 253.31 0.789903 263.49 1.1299C273.67 1.4599 283.31 8.71991 292.02 21.8899C300.71 35.0499 308.37 53.9701 314.61 77.3001C327.08 123.95 333.84 188.1 331.9 258.67C329.97 329.25 319.71 392.84 304.7 438.6C297.19 461.48 288.51 479.86 279.11 492.42C269.7 505 259.68 511.62 249.5 511.28C239.32 510.95 229.68 503.69 220.98 490.52C212.29 477.36 204.63 458.45 198.39 435.11C185.91 388.46 179.15 324.31 181.09 253.74Z" stroke="white" stroke-width="1.33333"/>
<path d="M200.68 206.79C249.84 154.88 300.63 113.49 342.99 88.5199C364.18 76.0299 383.22 67.6698 398.87 64.1398C414.55 60.5998 426.65 61.95 434.18 68.61C441.71 75.27 444.16 86.8099 441.89 102.22C439.63 117.61 432.68 136.68 421.67 158.18C399.66 201.17 361.47 253.72 312.31 305.62C263.15 357.53 212.36 398.92 170 423.89C148.81 436.38 129.77 444.74 114.12 448.27C98.44 451.81 86.3401 450.46 78.8101 443.8C71.2901 437.14 68.84 425.6 71.1 410.19C73.37 394.8 80.31 375.73 91.32 354.23C113.33 311.24 151.52 258.69 200.68 206.79Z" stroke="white" stroke-width="1.33333"/>
<path d="M210.03 198.48C267.6 155.38 324.94 122.89 371.1 105.2C394.19 96.3499 414.44 91.22 430.5 90.29C446.6 89.36 458.31 92.6599 464.57 100.44C470.83 108.22 471.24 119.97 466.31 134.78C461.4 149.56 451.22 167.2 436.61 186.58C407.39 225.32 360.54 270.84 302.97 313.93C245.4 357.03 188.05 389.52 141.89 407.21C118.81 416.06 98.55 421.19 82.49 422.12C66.4 423.05 54.69 419.75 48.42 411.97C42.16 404.19 41.7601 392.44 46.6801 377.63C51.5901 362.85 61.77 345.21 76.38 325.83C105.6 287.09 152.46 241.57 210.03 198.48Z" stroke="white" stroke-width="1.33333"/>
<path d="M187.57 226.1C217.28 161.79 251.93 106.99 283.94 70.3702C299.95 52.0602 315.27 38.3301 328.94 30.2301C342.64 22.1101 354.55 19.7101 363.85 23.7801C373.15 27.8401 379.21 38.0901 382.07 53.4401C384.93 68.7601 384.55 89.0202 381.1 112.82C374.22 160.41 355.12 222.01 325.42 286.32C295.72 350.62 261.06 405.42 229.05 442.04C213.05 460.35 197.73 474.08 184.05 482.18C170.35 490.3 158.45 492.7 149.15 488.63C139.85 484.57 133.78 474.33 130.92 458.97C128.07 443.65 128.45 423.39 131.89 399.59C138.77 352 157.87 290.4 187.57 226.1Z" stroke="white" stroke-width="1.33333"/>
<path d="M193.72 215.35C234.25 156.87 278.01 108.56 315.98 77.72C334.97 62.3 352.48 51.2801 367.4 45.5201C382.33 39.7601 394.5 39.3401 402.96 44.8501C411.43 50.3601 415.64 61.44 415.78 77.01C415.93 92.57 412.02 112.45 404.47 135.32C389.38 181.05 359.79 238.58 319.27 297.06C278.74 355.54 234.99 403.85 197.01 434.69C178.02 450.11 160.51 461.13 145.6 466.89C130.66 472.65 118.5 473.07 110.03 467.56C101.56 462.05 97.3599 450.98 97.2099 435.4C97.0699 419.84 100.97 399.96 108.52 377.09C123.61 331.36 153.2 273.83 193.72 215.35Z" stroke="white" stroke-width="1.33333"/>
<path d="M204.6 202.95C257.64 154.74 311.5 117.13 355.69 95.2801C377.79 84.3501 397.43 77.3801 413.32 74.9901C429.23 72.5901 441.21 74.8001 448.2 81.9701C455.2 89.1501 456.76 100.83 453.31 116.03C449.87 131.2 441.48 149.71 428.84 170.35C403.58 211.62 361.43 261.25 308.39 309.46C255.35 357.67 201.49 395.28 157.3 417.13C135.21 428.06 115.57 435.03 99.68 437.42C83.76 439.82 71.79 437.61 64.79 430.44C57.8 423.26 56.24 411.58 59.68 396.38C63.12 381.21 71.52 362.7 84.15 342.06C109.42 300.79 151.56 251.16 204.6 202.95Z" stroke="white" stroke-width="1.33333"/>
<path d="M214.57 195.34C275.32 156.51 335.03 128.24 382.45 113.92C406.17 106.76 426.77 103.09 442.87 103.32C459 103.55 470.43 107.67 476.08 115.87C481.73 124.08 481.23 135.82 475.18 150.22C469.14 164.6 457.63 181.46 441.56 199.72C409.43 236.24 359.18 278.25 298.43 317.07C237.67 355.9 177.96 384.17 130.54 398.49C106.83 405.65 86.22 409.32 70.12 409.09C53.99 408.86 42.57 404.74 36.92 396.54C31.27 388.33 31.76 376.59 37.81 362.19C43.85 347.81 55.36 330.95 71.43 312.69C103.56 276.17 153.81 234.16 214.57 195.34Z" stroke="white" stroke-width="1.33333"/>
<path d="M190.04 221.25C224.62 159.29 263.41 107.15 298.16 72.96C315.54 55.85 331.88 43.27 346.15 36.17C360.44 29.06 372.5 27.5301 381.47 32.2401C390.43 36.9601 395.7 47.6102 397.37 63.1102C399.04 78.5902 397.11 98.7601 391.84 122.23C381.32 169.17 357.53 229.19 322.95 291.16C288.38 353.12 249.58 405.26 214.83 439.45C197.46 456.56 181.12 469.14 166.85 476.24C152.55 483.35 140.49 484.88 131.53 480.17C122.56 475.45 117.29 464.8 115.62 449.3C113.95 433.82 115.88 413.65 121.15 390.18C131.67 343.24 155.46 283.22 190.04 221.25Z" stroke="white" stroke-width="1.33333"/>
<path d="M197 210.98C241.93 155.6 289.31 110.59 329.56 82.5801C349.7 68.5701 368.02 58.8399 383.34 54.1699C398.69 49.4999 410.86 49.9601 418.88 56.0601C426.9 62.1501 430.25 73.49 429.2 89.03C428.14 104.54 422.72 124.08 413.43 146.33C394.86 190.83 360.92 246.05 315.99 301.43C271.06 356.81 223.69 401.82 183.43 429.83C163.3 443.84 144.98 453.57 129.65 458.24C114.31 462.91 102.14 462.45 94.11 456.36C86.09 450.26 82.75 438.92 83.8 423.38C84.85 407.87 90.2701 388.33 99.5601 366.08C118.13 321.58 152.07 266.36 197 210.98Z" stroke="white" stroke-width="1.33333"/>
</svg>
