<svg width="383" height="384" viewBox="0 0 383 384" fill="none" xmlns="http://www.w3.org/2000/svg">
<path d="M191.406 383.333C233.727 383.333 268.036 297.67 268.036 192C268.036 86.3296 233.727 0.66687 191.406 0.66687C149.085 0.66687 114.776 86.3296 114.776 192C114.776 297.67 149.085 383.333 191.406 383.333Z" fill="#B2D6DD" fill-opacity="0.6"/>
<path d="M382.666 192C382.666 149.679 297.003 115.37 191.333 115.37C85.6627 115.37 0 149.679 0 192C0 234.321 85.6627 268.63 191.333 268.63C297.003 268.63 382.666 234.321 382.666 192Z" fill="#B2D6DD" fill-opacity="0.6"/>
<path d="M326.699 327.293C356.625 297.367 320.312 212.535 245.591 137.814C170.871 63.0943 86.0389 26.7812 56.1131 56.707C26.1874 86.6327 62.5004 171.465 137.221 246.185C211.941 320.905 296.773 357.218 326.699 327.293Z" fill="#B2D6DD" fill-opacity="0.6"/>
<path d="M56.1131 327.293C86.0389 357.218 170.871 320.905 245.591 246.185C320.312 171.465 356.625 86.6327 326.699 56.707C296.773 26.7812 211.941 63.0943 137.221 137.814C62.5004 212.535 26.1874 297.367 56.1131 327.293Z" fill="#B2D6DD" fill-opacity="0.6"/>
</svg>
