<svg width="1501" height="1305" viewBox="0 0 1501 1305" fill="none" xmlns="http://www.w3.org/2000/svg">
<path d="M-74.8397 481.007C-75.2973 745.579 54.4371 1218.67 430.955 898.82C901.602 499.012 917.495 833.821 1070.75 758.878C1224.01 683.935 1023.77 415.261 1206.89 338.022C1353.39 276.23 1534.17 546.552 1606.25 689.438" stroke="white" stroke-width="0.956424"/>
<path d="M-78.0258 466.808C-78.4833 731.38 32.0759 1218.21 408.594 898.362C879.241 498.553 914.309 819.622 1067.56 744.679C1220.82 669.736 1020.59 401.062 1203.71 323.822C1350.2 262.031 1530.99 532.353 1603.07 675.239" stroke="white" stroke-width="0.956424"/>
<path d="M-77.0829 474.182C-69.1626 738.613 84.738 1228.04 450.967 896.295C908.754 481.616 926 794.938 1076.82 715.121C1227.63 635.303 1018.98 373.214 1199.58 290.143C1344.05 223.685 1533.32 488.046 1609.89 628.533" stroke="white" stroke-width="0.956424"/>
<path d="M-67.7531 495.184C-59.8329 759.614 88.8933 1244.84 455.123 913.102C912.909 498.423 935.33 815.939 1086.15 736.122C1236.96 656.304 1028.31 394.216 1208.91 311.144C1353.38 244.687 1542.65 509.047 1619.22 649.535" stroke="white" stroke-width="0.956424"/>
<path d="M-58.103 389.607C-73.3273 653.774 33.9352 1181.35 427.656 883.264C919.808 510.658 912.827 798.059 1070 731.894C1227.17 665.73 1042.28 386.112 1229.4 319.344C1379.09 265.93 1544.48 546.093 1608.46 692.851" stroke="white" stroke-width="0.956424"/>
<path d="M-69.8584 435.886C-84.9923 700.092 30.8956 1184.55 424.449 886.546C916.39 514.043 901.037 844.738 1058.16 778.615C1215.29 712.493 1030.33 432.765 1217.39 366.048C1367.04 312.676 1532.49 592.943 1596.51 739.748" stroke="white" stroke-width="0.956425"/>
<path d="M-64.1934 416.515C-79.4176 680.681 5.92007 1186.05 399.641 887.967C891.792 515.361 906.737 824.966 1063.91 758.802C1221.08 692.638 1036.19 413.02 1223.31 346.252C1373 292.838 1538.39 573 1602.37 719.759" stroke="white" stroke-width="0.956424"/>
<path d="M-68.1612 491.956C-68.6188 756.529 100.716 1220.96 477.234 901.116C947.881 501.308 924.173 844.771 1077.43 769.828C1230.68 694.885 1030.45 426.211 1213.57 348.971C1360.07 287.179 1540.85 557.502 1612.93 700.387" stroke="white" stroke-width="0.956424"/>
</svg>
