<svg width="199" height="41" viewBox="0 0 199 41" fill="none" xmlns="http://www.w3.org/2000/svg">
<path d="M20.3853 0.589355L24.8319 14.2748H39.2216L27.5801 22.7328L32.0268 36.4182L20.3853 27.9602L8.74379 36.4182L13.1904 22.7328L1.54895 14.2748H15.9386L20.3853 0.589355Z" fill="#B2D6DD"/>
<path d="M59.9967 0.589355L64.4434 14.2748H78.8331L67.1916 22.7328L71.6382 36.4182L59.9967 27.9602L48.3552 36.4182L52.8019 22.7328L41.1604 14.2748H55.5501L59.9967 0.589355Z" fill="#B2D6DD"/>
<path d="M99.6081 0.589355L104.055 14.2748H118.444L106.803 22.7328L111.25 36.4182L99.6081 27.9602L87.9666 36.4182L92.4132 22.7328L80.7717 14.2748H95.1614L99.6081 0.589355Z" fill="#B2D6DD"/>
<path d="M139.219 0.589355L143.666 14.2748H158.056L146.414 22.7328L150.861 36.4182L139.219 27.9602L127.578 36.4182L132.025 22.7328L120.383 14.2748H134.773L139.219 0.589355Z" fill="#B2D6DD"/>
<path d="M178.831 0.589355L183.278 14.2748H197.667L186.026 22.7328L190.472 36.4182L178.831 27.9602L167.189 36.4182L171.636 22.7328L159.995 14.2748H174.384L178.831 0.589355Z" fill="#B2D6DD"/>
</svg>
