<svg width="1280" height="3704" viewBox="0 0 1280 3704" fill="none" xmlns="http://www.w3.org/2000/svg">
<g clip-path="url(#clip0_21_2)">
<rect width="1280" height="3704" fill="#DEDEDE"/>
<path d="M1289.85 1824.44C1289.85 1921.89 1258.21 2000.89 1219.18 2000.89C1180.15 2000.89 1148.51 1921.89 1148.51 1824.44C1148.51 1727 1180.15 1648 1219.18 1648C1258.21 1648 1289.85 1727 1289.85 1824.44Z" fill="#E3FAFF" fill-opacity="0.6"/>
<path d="M1219.11 1753.78C1316.56 1753.78 1395.56 1785.42 1395.56 1824.44C1395.56 1863.47 1316.56 1895.11 1219.11 1895.11C1121.66 1895.11 1042.67 1863.47 1042.67 1824.44C1042.67 1785.42 1121.66 1753.78 1219.11 1753.78Z" fill="#E3FAFF" fill-opacity="0.6"/>
<path d="M1269.15 1774.48C1338.05 1843.38 1371.54 1921.61 1343.94 1949.21C1316.35 1976.81 1238.12 1943.32 1169.21 1874.41C1100.3 1805.51 1066.82 1727.28 1094.41 1699.68C1122.01 1672.08 1200.24 1705.57 1269.15 1774.48Z" fill="#E3FAFF" fill-opacity="0.6"/>
<path d="M1269.15 1874.41C1200.24 1943.32 1122.01 1976.81 1094.41 1949.21C1066.82 1921.61 1100.3 1843.38 1169.21 1774.48C1238.12 1705.57 1316.35 1672.08 1343.94 1699.68C1371.54 1727.28 1338.05 1805.51 1269.15 1874.41Z" fill="#E3FAFF" fill-opacity="0.6"/>
<path d="M604 2129.5C604 2412.55 374.546 2642 91.5 2642C-191.546 2642 -421 2412.55 -421 2129.5C-421 1846.45 -191.546 1617 91.5 1617C374.546 1617 604 1846.45 604 2129.5Z" fill="#E3FAFF" fill-opacity="0.45"/>
<path d="M355.676 2126.86C355.676 2274.22 236.218 2393.68 88.859 2393.68C-58.5 2393.68 -177.958 2274.22 -177.958 2126.86C-177.958 1979.5 -58.5 1860.04 88.859 1860.04C236.218 1860.04 355.676 1979.5 355.676 2126.86Z" fill="#E3FAFF"/>
<path d="M401.337 549.335C401.337 799.337 198.671 1002 -51.3314 1002C-301.333 1002 -504 799.337 -504 549.335C-504 299.333 -301.333 96.6666 -51.3314 96.6666C198.671 96.6666 401.337 299.333 401.337 549.335Z" fill="#E3FAFF" fill-opacity="0.45"/>
<path d="M182.004 547.002C182.004 677.157 76.492 782.669 -53.6637 782.669C-183.819 782.669 -289.331 677.157 -289.331 547.002C-289.331 416.846 -183.819 311.334 -53.6637 311.334C76.492 311.334 182.004 416.846 182.004 547.002Z" fill="#E3FAFF"/>
<path d="M1662.83 2952.3C1662.83 3164.75 1490.61 3336.98 1278.16 3336.98C1065.7 3336.98 893.478 3164.75 893.478 2952.3C893.478 2739.85 1065.7 2567.62 1278.16 2567.62C1490.61 2567.62 1662.83 2739.85 1662.83 2952.3Z" fill="#E3FAFF" fill-opacity="0.45"/>
<path d="M1476.44 2950.32C1476.44 3060.92 1386.78 3150.59 1276.17 3150.59C1165.57 3150.59 1075.9 3060.92 1075.9 2950.32C1075.9 2839.71 1165.57 2750.05 1276.17 2750.05C1386.78 2750.05 1476.44 2839.71 1476.44 2950.32Z" fill="#E3FAFF"/>
<path d="M1120 3818C1120 3988.66 981.656 4127 811 4127C640.344 4127 502 3988.66 502 3818C502 3647.34 640.344 3509 811 3509C981.656 3509 1120 3647.34 1120 3818Z" fill="#E3FAFF" fill-opacity="0.45"/>
<path d="M970.279 3816.41C970.279 3905.25 898.255 3977.28 809.408 3977.28C720.561 3977.28 648.537 3905.25 648.537 3816.41C648.537 3727.56 720.561 3655.54 809.408 3655.54C898.255 3655.54 970.279 3727.56 970.279 3816.41Z" fill="#E3FAFF"/>
<path d="M1382.98 1183.82C1382.98 1370.4 1231.73 1521.65 1045.16 1521.65C858.583 1521.65 707.333 1370.4 707.333 1183.82C707.333 997.249 858.583 846 1045.16 846C1231.73 846 1382.98 997.249 1382.98 1183.82Z" fill="#E3FAFF" fill-opacity="0.45"/>
<path d="M1219.3 1182.08C1219.3 1279.22 1140.55 1357.96 1043.42 1357.96C946.283 1357.96 867.539 1279.22 867.539 1182.08C867.539 1084.95 946.283 1006.21 1043.42 1006.21C1140.55 1006.21 1219.3 1084.95 1219.3 1182.08Z" fill="#E3FAFF"/>
<path d="M1527.33 -91.8334C1527.33 72.2872 1394.29 205.333 1230.17 205.333C1066.05 205.333 933 72.2872 933 -91.8334C933 -255.954 1066.05 -389 1230.17 -389C1394.29 -389 1527.33 -255.954 1527.33 -91.8334Z" fill="#E3FAFF" fill-opacity="0.45"/>
<path d="M1383.35 -93.3652C1383.35 -7.92101 1314.08 61.3452 1228.64 61.3452C1143.19 61.3452 1073.93 -7.92101 1073.93 -93.3652C1073.93 -178.809 1143.19 -248.076 1228.64 -248.076C1314.08 -248.076 1383.35 -178.809 1383.35 -93.3652Z" fill="#E3FAFF"/>
<path d="M2593.44 3338.54C2027.69 4241.63 1440.05 5775.32 1310 4000C1147.44 1780.86 -310.797 2737.53 -482.071 2203.32C-653.346 1669.11 355.697 1116.91 124.681 520.566C-60.1326 43.4905 -1030.6 636.67 -1492.73 992.893M2630.75 3295.91C2065 4199 1499.55 5878.32 1369.5 4103C1206.94 1883.86 -273.484 2694.9 -444.758 2160.69C-616.033 1626.48 393.01 1074.28 161.994 477.938C-22.8196 0.862152 -993.284 594.041 -1455.42 950.265M2612.91 3319.34C2029.33 4206.72 1364.3 5863.18 1282.01 4066C1179.15 1819.53 -245.923 2589.47 -401.477 2043.06C-557.03 1496.66 456.141 982.235 243.082 370.591C72.6339 -118.724 -903.425 438.7 -1370.15 778.577M2547.73 3374C1964.14 4261.38 1393.07 5807.7 1310.78 4010.52C1207.91 1764.05 -311.109 2644.12 -466.662 2097.72C-622.216 1551.32 390.956 1036.89 177.896 425.249C7.44832 -64.0661 -968.611 493.359 -1435.33 833.235M2752.99 2996.41C2220.08 3924.97 1653.91 5919.88 1440 4187.5C1172.61 2022.02 -224.083 2624.06 -422.646 2112.66C-621.21 1601.26 378.058 983.851 115.961 415.953C-93.7172 -38.3656 -1051.92 616.371 -1504.81 1000.53M2678.9 3175.46C2145.96 4104.01 1560.89 5750.31 1347 4018C1079.64 1852.61 -293.911 2799.87 -492.472 2288.5C-691.033 1777.13 303.928 1163.09 41.8313 595.223C-167.846 140.931 -1126.09 795.695 -1579 1179.86M-467.1 2215.49C-665.663 1704.09 333.605 1086.69 71.5072 518.788C-138.171 64.4689 -1096.37 719.206 -1549.26 1103.36M2555.52 3363.74C1989.78 4266.83 1403.55 5736.82 1273.5 3961.5C1110.94 1742.36 -348.712 2762.73 -519.987 2228.52C-691.261 1694.31 317.782 1142.11 86.7654 545.766C-98.0478 68.6904 -1068.51 661.87 -1530.64 1018.09" stroke="#E3FAFF" stroke-width="3.30108"/>
<path d="M139.667 3391.33V2398M113 3578V2669.33M91 3462V2586.67" stroke="#E3FAFF" stroke-width="4.44444"/>
<path d="M521.482 547.927L1202.99 547.927M708.601 572.548H1332M652.465 599.138H1253.21" stroke="#E3FAFF" stroke-width="4.92416"/>
<path d="M456.29 109.643H441.089V108.803C441.921 108.803 442.594 108.72 443.108 108.554C443.623 108.372 444.024 108.138 444.311 107.85C444.613 107.563 444.818 107.23 444.924 106.852C445.029 106.474 445.082 106.073 445.082 105.649V78.8775H442.201C441.399 78.8775 440.552 78.9456 439.66 79.0817C438.783 79.2027 437.905 79.4523 437.028 79.8304C436.151 80.1934 435.304 80.7001 434.487 81.3505C433.67 82.0009 432.929 82.8479 432.264 83.8916L431.333 83.7554C431.742 83.1202 432.052 82.4244 432.264 81.6681C432.49 80.8967 432.664 80.1707 432.785 79.4901C432.906 78.7036 432.982 77.9095 433.012 77.1078H464.639C464.428 77.5314 464.261 77.97 464.14 78.4237C464.019 78.8775 463.921 79.3313 463.845 79.785C463.77 80.2237 463.717 80.6472 463.687 81.0556C463.671 81.4488 463.664 81.7967 463.664 82.0992C463.664 82.2656 463.664 82.4169 463.664 82.553C463.664 82.674 463.671 82.7799 463.687 82.8706C463.702 82.9765 463.717 83.0748 463.732 83.1656L462.892 83.3017C462.832 82.621 462.635 82.0387 462.303 81.5547C461.985 81.0707 461.584 80.6699 461.1 80.3522C460.631 80.0195 460.109 79.7548 459.535 79.5582C458.96 79.3615 458.393 79.2178 457.833 79.1271C457.289 79.0212 456.774 78.9531 456.29 78.9229C455.806 78.8926 455.421 78.8775 455.133 78.8775H452.297V105.649C452.297 105.952 452.343 106.285 452.433 106.648C452.524 107.011 452.713 107.351 453 107.669C453.288 107.986 453.689 108.259 454.203 108.485C454.732 108.697 455.428 108.803 456.29 108.803V109.643Z" fill="#FFEC7F"/>
<path d="M503.368 108.44C501.992 109 500.736 109.378 499.602 109.574C498.467 109.771 497.446 109.869 496.539 109.869C495.813 109.869 495.185 109.824 494.656 109.733C494.126 109.658 493.673 109.559 493.295 109.438C492.856 109.302 492.478 109.151 492.16 108.985C491.495 108.606 490.912 108.115 490.413 107.51C489.914 106.905 489.46 106.254 489.052 105.559C488.659 104.863 488.303 104.144 487.985 103.403C487.668 102.662 487.358 101.966 487.055 101.316L486.488 100.114C484.96 100.552 483.531 101.059 482.2 101.634C480.884 102.193 479.712 102.753 478.683 103.313C477.655 103.857 476.785 104.364 476.074 104.833C475.378 105.286 474.887 105.619 474.6 105.831C474.04 106.451 473.412 107.003 472.716 107.487C472.021 107.971 471.242 108.387 470.38 108.735C469.517 109.068 468.557 109.325 467.498 109.506C466.439 109.688 465.275 109.779 464.004 109.779L463.777 108.803C465.244 108.561 466.507 108.092 467.566 107.396C468.64 106.701 469.563 105.846 470.334 104.833C471.106 103.804 471.764 102.655 472.308 101.384C472.853 100.098 473.337 98.7447 473.76 97.3229C474.002 96.5062 474.32 95.644 474.713 94.7365C475.121 93.829 475.605 92.9517 476.165 92.1047C476.74 91.2425 477.39 90.4409 478.116 89.6997C478.857 88.9435 479.697 88.3082 480.635 87.7939C480.377 87.3099 480.12 86.8183 479.863 86.3192C479.621 85.8049 479.387 85.2907 479.16 84.7764C478.842 84.1714 478.525 83.5059 478.207 82.7799C477.889 82.0387 477.511 81.3581 477.073 80.7379C476.649 80.1027 476.142 79.5733 475.552 79.1498C474.978 78.7263 474.259 78.5145 473.397 78.5145C472.792 78.5145 472.195 78.5826 471.605 78.7187C471.03 78.8548 470.478 79.0212 469.948 79.2178L469.631 78.2876C470.947 77.849 472.278 77.4784 473.624 77.1759C474.985 76.8583 476.331 76.6995 477.662 76.6995C478.298 76.6995 478.925 76.7448 479.546 76.8356C480.166 76.9112 480.763 77.0549 481.338 77.2667C481.837 77.4482 482.321 77.7507 482.79 78.1742C483.259 78.5826 483.705 79.0741 484.129 79.6489C484.552 80.2085 484.945 80.8136 485.308 81.464C485.686 82.1143 486.034 82.7647 486.352 83.4151C486.685 84.0655 486.98 84.6857 487.237 85.2756C487.509 85.8503 487.743 86.3495 487.94 86.773C489.271 89.6317 490.595 92.4979 491.911 95.3718C493.226 98.2304 494.641 101.051 496.153 103.834C496.425 104.334 496.713 104.825 497.015 105.309C497.333 105.793 497.681 106.224 498.059 106.602C498.452 106.98 498.883 107.283 499.352 107.51C499.821 107.737 500.351 107.843 500.94 107.828C501.152 107.828 501.44 107.805 501.803 107.759C502.181 107.714 502.589 107.601 503.028 107.419L503.368 108.44ZM481.905 90.4031C481.512 91.0383 481.149 91.6963 480.816 92.3769C480.498 93.0576 480.203 93.7533 479.931 94.4642C479.659 95.16 479.409 95.8558 479.183 96.5515C478.956 97.2473 478.729 97.9128 478.502 98.5481C478.275 99.2439 478.025 99.9245 477.753 100.59C477.496 101.24 477.201 101.876 476.868 102.496C478.003 101.83 479.334 101.135 480.861 100.409C482.389 99.6825 484.023 99.0623 485.762 98.5481L481.905 90.4031Z" fill="#FFEC7F"/>
<path d="M502.347 67.8738H513.532V107.873H530.027C529.452 108.433 528.968 109.083 528.574 109.824C528.181 110.565 527.864 111.276 527.622 111.957C527.349 112.758 527.13 113.568 526.964 114.384L525.897 114.611C525.973 114.339 526.018 114.067 526.033 113.794C526.064 113.522 526.079 113.273 526.079 113.046C526.079 112.047 525.761 111.306 525.126 110.822C524.506 110.338 523.613 110.006 522.449 109.824C521.284 109.658 519.862 109.59 518.183 109.62C516.504 109.635 514.614 109.643 512.511 109.643H502.347V108.803C503.149 108.803 503.807 108.727 504.321 108.576C504.835 108.41 505.244 108.191 505.546 107.918C505.849 107.631 506.053 107.306 506.159 106.943C506.28 106.58 506.34 106.194 506.34 105.786V71.6854C506.34 71.3829 506.28 71.0577 506.159 70.7098C506.053 70.3619 505.849 70.0443 505.546 69.7569C505.259 69.4544 504.858 69.2048 504.344 69.0082C503.829 68.8116 503.164 68.7132 502.347 68.7132V67.8738Z" fill="#FFEC7F"/>
<path d="M559.022 84.368C558.583 83.4151 558.008 82.5681 557.298 81.827C556.602 81.0858 555.815 80.4581 554.938 79.9438C554.076 79.4296 553.161 79.0439 552.193 78.7868C551.225 78.5145 550.264 78.3784 549.311 78.3784C548.268 78.3784 547.285 78.5674 546.362 78.9456C545.439 79.3086 544.577 79.8153 543.775 80.4657C542.989 81.1009 542.271 81.8648 541.62 82.7572C540.97 83.6344 540.395 84.5873 539.896 85.6159C539.412 86.6293 539.011 87.6956 538.693 88.8149C538.376 89.9342 538.149 91.0534 538.013 92.1727H557.343C557.025 92.808 556.783 93.4811 556.617 94.192C556.451 94.8877 556.33 95.5381 556.254 96.1431C556.163 96.854 556.11 97.5422 556.095 98.2078L555.346 98.3439C555.15 97.3759 554.908 96.5742 554.62 95.939C554.333 95.3037 553.902 94.8045 553.327 94.4415C552.752 94.0785 551.981 93.829 551.013 93.6928C550.06 93.5416 548.812 93.4659 547.269 93.4659H537.877V94.4415C537.877 95.6667 538.02 96.8692 538.308 98.0489C538.595 99.2287 539.003 100.356 539.533 101.429C540.062 102.488 540.713 103.464 541.484 104.356C542.255 105.249 543.118 106.028 544.07 106.693C545.023 107.343 546.067 107.85 547.201 108.213C548.336 108.576 549.538 108.758 550.809 108.758C551.958 108.758 552.972 108.652 553.849 108.44C554.726 108.213 555.483 107.933 556.118 107.601C556.768 107.268 557.313 106.905 557.751 106.512C558.19 106.103 558.553 105.718 558.84 105.355C559.128 104.991 559.34 104.674 559.476 104.402C559.627 104.114 559.74 103.925 559.816 103.834L559.453 107.033C559.105 107.517 558.598 107.986 557.933 108.44C557.267 108.879 556.473 109.28 555.551 109.643C554.643 109.99 553.622 110.27 552.488 110.482C551.353 110.694 550.128 110.8 548.812 110.8C546.286 110.8 543.896 110.429 541.643 109.688C539.404 108.947 537.43 107.896 535.721 106.534C534.027 105.173 532.673 103.532 531.66 101.611C530.662 99.6749 530.148 97.5196 530.117 95.1449C530.163 92.6946 530.586 90.4938 531.388 88.5426C532.205 86.5763 533.286 84.8672 534.632 83.4151C535.993 81.948 537.574 80.7379 539.374 79.785C541.174 78.817 543.095 78.0986 545.137 77.6297C546.211 77.3725 547.443 77.2062 548.835 77.1305C550.226 77.0549 551.626 77.0171 553.032 77.0171C554.394 77.0171 555.672 77.0322 556.867 77.0625C558.077 77.0927 559.09 77.1078 559.907 77.1078C559.74 77.8187 559.619 78.454 559.544 79.0136C559.483 79.5582 559.453 80.0724 559.453 80.5564C559.453 81.2371 559.506 81.8723 559.612 82.4622C559.718 83.037 559.861 83.6571 560.043 84.3227L559.022 84.368Z" fill="#FFEC7F"/>
<path d="M564.013 77.1078H575.403L592.578 97.9809V80.9194C592.578 80.6169 592.517 80.2917 592.396 79.9438C592.29 79.596 592.086 79.2783 591.783 78.991C591.496 78.6884 591.095 78.4389 590.581 78.2422C590.067 78.0456 589.401 77.9473 588.584 77.9473V77.1078H598.635V77.9473C597.803 77.9473 597.13 78.0381 596.616 78.2196C596.102 78.3859 595.693 78.6204 595.391 78.9229C595.104 79.2103 594.907 79.543 594.801 79.9212C594.695 80.2993 594.642 80.7001 594.642 81.1236V109.643H592.578L570.048 82.4622V105.649C570.048 105.952 570.094 106.285 570.184 106.648C570.29 107.011 570.479 107.351 570.752 107.669C571.039 107.986 571.44 108.259 571.954 108.485C572.483 108.697 573.179 108.803 574.041 108.803V109.643H564.013V108.803C564.83 108.803 565.496 108.72 566.01 108.554C566.539 108.372 566.948 108.138 567.235 107.85C567.537 107.563 567.742 107.23 567.848 106.852C567.953 106.474 568.006 106.073 568.006 105.649V79.9892C567.643 79.5808 567.311 79.2481 567.008 78.991C566.706 78.7338 566.396 78.5296 566.078 78.3784C565.775 78.212 565.458 78.0986 565.125 78.0381C564.792 77.9775 564.422 77.9473 564.013 77.9473V77.1078Z" fill="#FFEC7F"/>
<path d="M625.135 109.643H609.934V108.803C610.766 108.803 611.439 108.72 611.953 108.554C612.467 108.372 612.868 108.138 613.156 107.85C613.458 107.563 613.662 107.23 613.768 106.852C613.874 106.474 613.927 106.073 613.927 105.649V78.8775H611.046C610.244 78.8775 609.397 78.9456 608.505 79.0817C607.627 79.2027 606.75 79.4523 605.873 79.8304C604.996 80.1934 604.148 80.7001 603.332 81.3505C602.515 82.0009 601.774 82.8479 601.108 83.8916L600.178 83.7554C600.586 83.1202 600.897 82.4244 601.108 81.6681C601.335 80.8967 601.509 80.1707 601.63 79.4901C601.751 78.7036 601.827 77.9095 601.857 77.1078H633.484C633.272 77.5314 633.106 77.97 632.985 78.4237C632.864 78.8775 632.766 79.3313 632.69 79.785C632.614 80.2237 632.562 80.6472 632.531 81.0556C632.516 81.4488 632.509 81.7967 632.509 82.0992C632.509 82.2656 632.509 82.4169 632.509 82.553C632.509 82.674 632.516 82.7799 632.531 82.8706C632.546 82.9765 632.562 83.0748 632.577 83.1656L631.737 83.3017C631.677 82.621 631.48 82.0387 631.147 81.5547C630.83 81.0707 630.429 80.6699 629.945 80.3522C629.476 80.0195 628.954 79.7548 628.379 79.5582C627.805 79.3615 627.237 79.2178 626.678 79.1271C626.133 79.0212 625.619 78.9531 625.135 78.9229C624.651 78.8926 624.265 78.8775 623.978 78.8775H621.142V105.649C621.142 105.952 621.187 106.285 621.278 106.648C621.369 107.011 621.558 107.351 621.845 107.669C622.133 107.986 622.533 108.259 623.048 108.485C623.577 108.697 624.273 108.803 625.135 108.803V109.643Z" fill="#FFEC7F"/>
<path d="M644.647 110.255C643.24 110.255 642.098 110.225 641.221 110.164C640.344 110.104 639.618 110.028 639.043 109.938C638.468 109.862 637.992 109.794 637.613 109.733C637.25 109.673 636.88 109.643 636.502 109.643C636.668 108.962 636.789 108.342 636.865 107.782C636.94 107.207 636.978 106.678 636.978 106.194C636.978 105.513 636.918 104.886 636.797 104.311C636.676 103.721 636.532 103.101 636.366 102.45L637.387 102.405C637.81 103.358 638.445 104.235 639.292 105.037C640.139 105.823 641.085 106.512 642.128 107.101C643.172 107.676 644.261 108.13 645.395 108.463C646.53 108.78 647.611 108.939 648.64 108.939C649.865 108.939 650.992 108.727 652.02 108.304C653.049 107.88 653.934 107.321 654.675 106.625C655.416 105.914 655.991 105.113 656.399 104.22C656.823 103.313 657.034 102.382 657.034 101.429C657.034 100.386 656.792 99.5388 656.308 98.8884C655.84 98.2229 655.204 97.6935 654.403 97.3002C653.616 96.907 652.709 96.612 651.68 96.4154C650.667 96.2188 649.623 96.06 648.549 95.939C647.747 95.8482 646.87 95.7423 645.917 95.6213C644.979 95.5003 644.034 95.3188 643.081 95.0768C642.128 94.8348 641.213 94.5172 640.336 94.1239C639.459 93.7155 638.68 93.2013 637.999 92.5811C637.318 91.961 636.774 91.2047 636.366 90.3123C635.957 89.4199 635.753 88.3536 635.753 87.1133C635.753 85.6461 636.04 84.368 636.615 83.279C637.19 82.19 637.946 81.2598 638.884 80.4884C639.837 79.7018 640.926 79.059 642.151 78.5599C643.376 78.0456 644.632 77.6448 645.917 77.3574C647.218 77.0549 648.504 76.8507 649.774 76.7448C651.06 76.6238 652.232 76.5633 653.291 76.5633C654.214 76.5633 655.076 76.5936 655.877 76.6541C656.694 76.7146 657.443 76.7826 658.123 76.8583C658.819 76.9188 659.454 76.9793 660.029 77.0398C660.619 77.0852 661.156 77.1078 661.64 77.1078C661.474 77.8187 661.353 78.454 661.277 79.0136C661.217 79.5582 661.186 80.0875 661.186 80.6018C661.186 81.2522 661.239 81.8723 661.345 82.4622C661.451 83.037 661.595 83.6571 661.776 84.3227L660.755 84.368C660.513 83.8084 660.286 83.2563 660.075 82.7118C659.863 82.1673 659.606 81.6606 659.303 81.1917C659.016 80.7077 658.653 80.269 658.214 79.8758C657.791 79.4674 657.239 79.1195 656.558 78.8321C655.892 78.5296 655.068 78.3027 654.085 78.1515C653.117 77.9851 651.937 77.9019 650.546 77.9019C649.608 77.9019 648.693 78.0683 647.8 78.4011C646.923 78.7338 646.137 79.1951 645.441 79.785C644.76 80.3598 644.208 81.0556 643.785 81.8723C643.361 82.674 643.149 83.5513 643.149 84.5042C643.149 85.3361 643.301 86.0469 643.603 86.6368C643.921 87.2267 644.329 87.7259 644.828 88.1342C645.327 88.5426 645.887 88.8754 646.507 89.1325C647.142 89.3897 647.77 89.5938 648.39 89.7451C649.026 89.8812 649.623 89.9795 650.183 90.04C650.757 90.1006 651.234 90.1459 651.612 90.1762C652.323 90.2367 653.132 90.3274 654.04 90.4484C654.947 90.5694 655.87 90.7585 656.808 91.0156C657.745 91.2576 658.66 91.5828 659.553 91.9912C660.46 92.3996 661.262 92.929 661.958 93.5794C662.669 94.2298 663.236 95.0163 663.659 95.939C664.083 96.8465 664.295 97.9279 664.295 99.1833C664.295 100.832 664.007 102.254 663.432 103.449C662.873 104.628 662.109 105.634 661.141 106.466C660.173 107.283 659.039 107.941 657.738 108.44C656.452 108.924 655.076 109.302 653.609 109.574C652.156 109.847 650.659 110.028 649.116 110.119C647.589 110.21 646.099 110.255 644.647 110.255Z" fill="#FFEC7F"/>
<path d="M702.774 92.445C702.774 94.8802 702.335 97.1944 701.458 99.3875C700.58 101.566 699.31 103.487 697.646 105.15C695.982 106.814 693.948 108.138 691.543 109.121C689.138 110.089 686.408 110.573 683.353 110.573C682.581 110.573 681.817 110.527 681.061 110.437C680.305 110.361 679.564 110.217 678.838 110.006V114.793C678.838 115.156 678.709 115.549 678.452 115.973C678.21 116.396 677.885 116.85 677.476 117.334C677.083 117.833 676.629 118.362 676.115 118.922C675.601 119.497 675.071 120.102 674.527 120.737C673.998 121.372 673.483 122.038 672.984 122.734C672.485 123.444 672.039 124.193 671.646 124.98V80.9194C671.646 80.6169 671.585 80.2917 671.464 79.9438C671.358 79.596 671.154 79.2783 670.851 78.991C670.564 78.6884 670.163 78.4389 669.649 78.2422C669.135 78.0456 668.469 77.9473 667.652 77.9473V77.1078H678.838C679.775 77.1078 680.834 77.1381 682.014 77.1986C683.209 77.2591 684.457 77.3801 685.758 77.5616C687.058 77.728 688.382 77.9775 689.728 78.3103C691.074 78.6279 692.375 79.0515 693.63 79.5808C694.886 80.0951 696.065 80.7304 697.17 81.4866C698.289 82.2429 699.265 83.1429 700.096 84.1865C700.928 85.2302 701.579 86.4326 702.048 87.7939C702.532 89.1552 702.774 90.7056 702.774 92.445ZM695.332 94.1693C695.332 92.1274 695.067 90.3426 694.538 88.8149C694.008 87.2872 693.298 85.9638 692.405 84.8445C691.528 83.7252 690.514 82.795 689.365 82.0538C688.231 81.3127 687.051 80.7152 685.826 80.2615C684.616 79.7926 683.398 79.4523 682.173 79.2405C680.963 79.0136 679.851 78.8624 678.838 78.7868V107.873C679.685 108.342 680.607 108.652 681.606 108.803C682.604 108.954 683.557 109.03 684.464 109.03C685.886 109.03 687.142 108.803 688.231 108.349C689.335 107.896 690.288 107.291 691.089 106.534C691.891 105.763 692.564 104.878 693.108 103.88C693.653 102.866 694.084 101.808 694.402 100.703C694.734 99.5993 694.969 98.4876 695.105 97.3683C695.256 96.249 695.332 95.1827 695.332 94.1693Z" fill="#FFEC7F"/>
<path d="M721.491 109.643H706.313V108.803C707.13 108.803 707.795 108.72 708.31 108.554C708.839 108.372 709.247 108.138 709.535 107.85C709.837 107.563 710.041 107.23 710.147 106.852C710.253 106.474 710.306 106.073 710.306 105.649V71.6854C710.306 71.3829 710.246 71.0577 710.125 70.7098C710.019 70.3619 709.814 70.0443 709.512 69.7569C709.225 69.4544 708.824 69.2048 708.31 69.0082C707.795 68.8116 707.13 68.7132 706.313 68.7132V67.8738H717.498V79.4901C718.012 79.0515 718.595 78.6355 719.245 78.2422C719.911 77.8339 720.637 77.4784 721.423 77.1759C722.225 76.8734 723.095 76.6314 724.032 76.4499C724.985 76.2684 726.014 76.1776 727.118 76.1776C728.479 76.1776 729.84 76.3213 731.202 76.6087C732.563 76.8961 733.864 77.3272 735.104 77.9019C736.36 78.4767 737.524 79.1951 738.598 80.0573C739.672 80.9043 740.602 81.895 741.389 83.0294C742.175 84.1638 742.795 85.4344 743.249 86.841C743.703 88.2477 743.93 89.7905 743.93 91.4694C743.93 93.2996 743.673 94.9861 743.158 96.5288C742.644 98.0565 741.964 99.4556 741.116 100.726C740.285 101.982 739.332 103.116 738.258 104.129C737.184 105.128 736.087 106.012 734.968 106.784C732.336 108.599 729.349 110.051 726.006 111.14L725.348 110.573C727.33 109.438 729.099 107.956 730.657 106.126C731.323 105.355 731.973 104.462 732.608 103.449C733.244 102.435 733.811 101.301 734.31 100.045C734.809 98.7901 735.21 97.4137 735.513 95.9163C735.83 94.4037 735.989 92.7551 735.989 90.9703C735.989 88.7771 735.747 86.8562 735.263 85.2075C734.794 83.5588 734.136 82.19 733.289 81.1009C732.442 79.9968 731.436 79.1725 730.272 78.6279C729.122 78.0834 727.867 77.8112 726.505 77.8112C725.28 77.8112 724.123 78.0305 723.034 78.4691C721.96 78.8926 721.022 79.5052 720.221 80.3069C719.419 81.0934 718.776 82.0538 718.292 83.1882C717.808 84.3075 717.544 85.5705 717.498 86.9772V105.649C717.498 105.952 717.544 106.285 717.634 106.648C717.74 107.011 717.929 107.351 718.201 107.669C718.489 107.986 718.89 108.259 719.404 108.485C719.933 108.697 720.629 108.803 721.491 108.803V109.643Z" fill="#FFEC7F"/>
<path d="M777.191 84.368C776.752 83.4151 776.177 82.5681 775.466 81.827C774.77 81.0858 773.984 80.4581 773.107 79.9438C772.245 79.4296 771.329 79.0439 770.361 78.7868C769.393 78.5145 768.433 78.3784 767.48 78.3784C766.436 78.3784 765.453 78.5674 764.531 78.9456C763.608 79.3086 762.746 79.8153 761.944 80.4657C761.158 81.1009 760.439 81.8648 759.789 82.7572C759.138 83.6344 758.564 84.5873 758.064 85.6159C757.58 86.6293 757.18 87.6956 756.862 88.8149C756.544 89.9342 756.317 91.0534 756.181 92.1727H775.512C775.194 92.808 774.952 93.4811 774.786 94.192C774.619 94.8877 774.498 95.5381 774.423 96.1431C774.332 96.854 774.279 97.5422 774.264 98.2078L773.515 98.3439C773.318 97.3759 773.076 96.5742 772.789 95.939C772.502 95.3037 772.071 94.8045 771.496 94.4415C770.921 94.0785 770.15 93.829 769.182 93.6928C768.229 93.5416 766.981 93.4659 765.438 93.4659H756.045V94.4415C756.045 95.6667 756.189 96.8692 756.476 98.0489C756.764 99.2287 757.172 100.356 757.701 101.429C758.231 102.488 758.881 103.464 759.653 104.356C760.424 105.249 761.286 106.028 762.239 106.693C763.192 107.343 764.236 107.85 765.37 108.213C766.504 108.576 767.707 108.758 768.977 108.758C770.127 108.758 771.14 108.652 772.018 108.44C772.895 108.213 773.651 107.933 774.286 107.601C774.937 107.268 775.481 106.905 775.92 106.512C776.359 106.103 776.722 105.718 777.009 105.355C777.296 104.991 777.508 104.674 777.644 104.402C777.796 104.114 777.909 103.925 777.985 103.834L777.622 107.033C777.274 107.517 776.767 107.986 776.102 108.44C775.436 108.879 774.642 109.28 773.719 109.643C772.812 109.99 771.791 110.27 770.656 110.482C769.522 110.694 768.297 110.8 766.981 110.8C764.455 110.8 762.065 110.429 759.811 109.688C757.573 108.947 755.599 107.896 753.89 106.534C752.196 105.173 750.842 103.532 749.829 101.611C748.83 99.6749 748.316 97.5196 748.286 95.1449C748.331 92.6946 748.755 90.4938 749.556 88.5426C750.373 86.5763 751.455 84.8672 752.801 83.4151C754.162 81.948 755.743 80.7379 757.543 79.785C759.343 78.817 761.263 78.0986 763.305 77.6297C764.379 77.3725 765.612 77.2062 767.004 77.1305C768.395 77.0549 769.794 77.0171 771.201 77.0171C772.562 77.0171 773.84 77.0322 775.035 77.0625C776.245 77.0927 777.259 77.1078 778.075 77.1078C777.909 77.8187 777.788 78.454 777.712 79.0136C777.652 79.5582 777.622 80.0724 777.622 80.5564C777.622 81.2371 777.675 81.8723 777.78 82.4622C777.886 83.037 778.03 83.6571 778.211 84.3227L777.191 84.368Z" fill="#FFEC7F"/>
<path d="M815.874 109.37C814.497 109.93 813.257 110.308 812.153 110.505C811.049 110.701 810.073 110.8 809.226 110.8C808.167 110.8 807.109 110.52 806.05 109.96C805.006 109.401 803.993 108.69 803.01 107.828C802.042 106.95 801.126 105.982 800.264 104.923C799.402 103.865 798.623 102.829 797.927 101.815C797.247 100.802 796.664 99.8791 796.18 99.0472C795.712 98.2153 795.379 97.5952 795.182 97.1868C797.103 96.8692 798.82 96.2944 800.332 95.4625C800.983 95.0995 801.618 94.6684 802.238 94.1693C802.858 93.6701 803.41 93.0803 803.894 92.3996C804.378 91.719 804.764 90.94 805.051 90.0627C805.354 89.1855 805.505 88.1872 805.505 87.0679C805.505 86.0545 805.377 85.1394 805.12 84.3227C804.862 83.4908 804.522 82.7572 804.099 82.1219C803.675 81.4715 803.184 80.9194 802.624 80.4657C802.064 79.9968 801.482 79.6111 800.877 79.3086C800.272 79.0061 799.659 78.7868 799.039 78.6506C798.434 78.4994 797.867 78.4237 797.338 78.4237C796.536 78.4237 795.87 78.5069 795.341 78.6733C794.827 78.8397 794.418 79.0666 794.116 79.354C793.813 79.6262 793.602 79.9514 793.481 80.3295C793.375 80.6926 793.322 81.0783 793.322 81.4866V105.649C793.322 105.952 793.367 106.285 793.458 106.648C793.564 107.011 793.753 107.351 794.025 107.669C794.312 107.986 794.721 108.259 795.25 108.485C795.78 108.697 796.475 108.803 797.338 108.803V109.643H782.137V108.803C782.938 108.803 783.596 108.727 784.11 108.576C784.625 108.41 785.033 108.191 785.336 107.918C785.638 107.631 785.842 107.306 785.948 106.943C786.069 106.58 786.13 106.194 786.13 105.786V80.9194C786.13 80.6169 786.069 80.2917 785.948 79.9438C785.842 79.596 785.638 79.2783 785.336 78.991C785.048 78.6884 784.647 78.4389 784.133 78.2422C783.619 78.0456 782.953 77.9473 782.137 77.9473V77.1078H797.338C799.485 77.1078 801.512 77.2969 803.418 77.675C805.324 78.0532 806.988 78.6506 808.409 79.4674C809.846 80.269 810.981 81.3051 811.813 82.5757C812.66 83.8311 813.083 85.3436 813.083 87.1133C813.083 88.6107 812.773 89.919 812.153 91.0383C811.548 92.1576 810.739 93.1181 809.725 93.9197C808.727 94.7214 807.585 95.3869 806.299 95.9163C805.029 96.4305 803.728 96.8389 802.397 97.1414C802.911 98.0792 803.478 99.017 804.099 99.9547C804.719 100.893 805.369 101.792 806.05 102.655C806.73 103.517 807.411 104.318 808.092 105.06C808.787 105.801 809.461 106.451 810.111 107.011C810.761 107.555 811.366 107.986 811.926 108.304C812.501 108.606 813.007 108.758 813.446 108.758C813.658 108.758 813.945 108.735 814.308 108.69C814.686 108.644 815.095 108.531 815.533 108.349L815.874 109.37Z" fill="#FFEC7F"/>
<path d="M846.979 84.368C846.54 83.4151 845.966 82.5681 845.255 81.827C844.559 81.0858 843.772 80.4581 842.895 79.9438C842.033 79.4296 841.118 79.0439 840.15 78.7868C839.182 78.5145 838.221 78.3784 837.269 78.3784C836.225 78.3784 835.242 78.5674 834.319 78.9456C833.396 79.3086 832.534 79.8153 831.733 80.4657C830.946 81.1009 830.228 81.8648 829.577 82.7572C828.927 83.6344 828.352 84.5873 827.853 85.6159C827.369 86.6293 826.968 87.6956 826.651 88.8149C826.333 89.9342 826.106 91.0534 825.97 92.1727H845.3C844.983 92.808 844.741 93.4811 844.574 94.192C844.408 94.8877 844.287 95.5381 844.211 96.1431C844.12 96.854 844.067 97.5422 844.052 98.2078L843.304 98.3439C843.107 97.3759 842.865 96.5742 842.578 95.939C842.29 95.3037 841.859 94.8045 841.284 94.4415C840.71 94.0785 839.938 93.829 838.97 93.6928C838.017 93.5416 836.769 93.4659 835.227 93.4659H825.834V94.4415C825.834 95.6667 825.977 96.8692 826.265 98.0489C826.552 99.2287 826.961 100.356 827.49 101.429C828.019 102.488 828.67 103.464 829.441 104.356C830.213 105.249 831.075 106.028 832.028 106.693C832.981 107.343 834.024 107.85 835.159 108.213C836.293 108.576 837.495 108.758 838.766 108.758C839.916 108.758 840.929 108.652 841.806 108.44C842.683 108.213 843.44 107.933 844.075 107.601C844.725 107.268 845.27 106.905 845.709 106.512C846.147 106.103 846.51 105.718 846.798 105.355C847.085 104.991 847.297 104.674 847.433 104.402C847.584 104.114 847.698 103.925 847.773 103.834L847.41 107.033C847.062 107.517 846.556 107.986 845.89 108.44C845.225 108.879 844.43 109.28 843.508 109.643C842.6 109.99 841.579 110.27 840.445 110.482C839.311 110.694 838.085 110.8 836.769 110.8C834.243 110.8 831.854 110.429 829.6 109.688C827.361 108.947 825.388 107.896 823.678 106.534C821.984 105.173 820.631 103.532 819.617 101.611C818.619 99.6749 818.105 97.5196 818.074 95.1449C818.12 92.6946 818.543 90.4938 819.345 88.5426C820.162 86.5763 821.243 84.8672 822.589 83.4151C823.951 81.948 825.531 80.7379 827.331 79.785C829.131 78.817 831.052 78.0986 833.094 77.6297C834.168 77.3725 835.401 77.2062 836.792 77.1305C838.184 77.0549 839.583 77.0171 840.989 77.0171C842.351 77.0171 843.629 77.0322 844.824 77.0625C846.034 77.0927 847.047 77.1078 847.864 77.1078C847.698 77.8187 847.577 78.454 847.501 79.0136C847.44 79.5582 847.41 80.0724 847.41 80.5564C847.41 81.2371 847.463 81.8723 847.569 82.4622C847.675 83.037 847.819 83.6571 848 84.3227L846.979 84.368Z" fill="#FFEC7F"/>
<path d="M529.972 82.0253H517.244V81.1859C517.879 81.1859 518.394 81.1178 518.787 80.9817C519.195 80.8607 519.513 80.6867 519.74 80.4598C519.967 80.2481 520.126 79.9985 520.216 79.7111C520.307 79.4238 520.352 79.1212 520.352 78.8036V51.7594C520.352 51.5325 520.307 51.2905 520.216 51.0334C520.141 50.7611 519.989 50.5191 519.762 50.3074C519.536 50.0805 519.226 49.899 518.832 49.7629C518.439 49.6116 517.925 49.536 517.289 49.536V48.4243H539.728C539.501 48.878 539.327 49.3847 539.206 49.9444C539.1 50.504 539.017 51.041 538.957 51.5552C538.896 52.0544 538.858 52.4854 538.843 52.8484C538.843 53.1963 538.843 53.393 538.843 53.4383L538.253 53.5291C538.087 52.7728 537.784 52.1602 537.346 51.6914C536.922 51.2073 536.416 50.8292 535.826 50.5569C535.251 50.2847 534.631 50.1032 533.965 50.0124C533.315 49.9066 532.68 49.8536 532.059 49.8536H526.955V61.8102H537.55C537.293 62.2943 537.096 62.8236 536.96 63.3984C536.839 63.9732 536.748 64.5177 536.688 65.0319C536.627 65.637 536.59 66.2344 536.574 66.8243L535.962 66.9151C535.78 66.0227 535.538 65.3269 535.236 64.8278C534.933 64.3286 534.457 63.9656 533.806 63.7387C533.171 63.4967 532.309 63.353 531.22 63.3077C530.131 63.2623 528.709 63.2396 526.955 63.2396V78.9397C526.955 79.1666 526.992 79.4086 527.068 79.6658C527.159 79.9229 527.31 80.1649 527.522 80.3918C527.749 80.6187 528.059 80.8077 528.452 80.959C528.845 81.1102 529.352 81.1859 529.972 81.1859V82.0253Z" fill="#D3F8FF"/>
<path d="M549.552 58.6339C549.522 58.9667 549.507 59.2919 549.507 59.6095C549.507 59.912 549.507 60.2221 549.507 60.5397C549.507 61.9766 549.597 63.3757 549.779 64.737C549.96 66.0983 550.293 67.3083 550.777 68.3671C551.276 69.4259 551.964 70.288 552.842 70.9535C553.719 71.6039 554.853 71.9442 556.245 71.9745C557.137 71.9745 557.931 71.8308 558.627 71.5434C559.338 71.256 559.958 70.8628 560.488 70.3636C561.017 69.8494 561.471 69.2519 561.849 68.5713C562.227 67.8906 562.545 67.1495 562.802 66.3479L568.156 68.1629C567.612 68.9343 566.961 69.6452 566.205 70.2956C565.449 70.946 564.579 71.5132 563.596 71.9972C562.628 72.4661 561.539 72.8366 560.329 73.1089C559.134 73.3812 557.818 73.5173 556.381 73.5173C554.763 73.5173 553.295 73.3358 551.98 72.9728C550.664 72.6249 549.484 72.1409 548.44 71.5207C547.412 70.9006 546.512 70.1746 545.74 69.3427C544.984 68.4957 544.349 67.5957 543.835 66.6428C543.335 65.6899 542.965 64.6992 542.723 63.6707C542.481 62.6421 542.36 61.6287 542.36 60.6305C542.36 59.6776 542.466 58.702 542.677 57.7037C542.904 56.6903 543.252 55.6996 543.721 54.7316C544.19 53.7635 544.78 52.856 545.491 52.009C546.217 51.1468 547.079 50.3906 548.077 49.7402C549.091 49.0898 550.248 48.5755 551.548 48.1974C552.849 47.8193 554.309 47.6302 555.927 47.6302C558.302 47.6302 560.321 47.9251 561.985 48.515C563.664 49.1049 565.04 49.9066 566.114 50.92C567.203 51.9182 568.012 53.0829 568.542 54.4139C569.086 55.745 569.419 57.1516 569.54 58.6339H549.552ZM556.063 49.2184C554.959 49.2184 554.022 49.4225 553.25 49.8309C552.494 50.2393 551.866 50.799 551.367 51.5098C550.868 52.2207 550.482 53.0602 550.21 54.0282C549.953 54.9811 549.764 56.0097 549.643 57.1138H562.439C562.348 56.0248 562.182 55.0038 561.94 54.0509C561.713 53.098 561.357 52.2661 560.873 51.5552C560.404 50.8292 559.777 50.262 558.99 49.8536C558.219 49.4301 557.243 49.2184 556.063 49.2184Z" fill="#D3F8FF"/>
<path d="M579.682 73.2677C578.608 73.2677 577.731 73.2299 577.05 73.1543C576.384 73.0938 575.832 73.0182 575.394 72.9274C574.97 72.8366 574.622 72.761 574.35 72.7005C574.078 72.6249 573.798 72.5871 573.511 72.5871C573.632 72.0728 573.715 71.6039 573.76 71.1804C573.806 70.7569 573.828 70.3712 573.828 70.0233C573.828 69.5091 573.783 69.0326 573.692 68.594C573.601 68.1402 573.495 67.6713 573.374 67.1873L574.146 67.1419C574.479 67.868 574.963 68.5108 575.598 69.0704C576.248 69.6149 576.967 70.0763 577.753 70.4544C578.555 70.8325 579.387 71.1199 580.249 71.3165C581.111 71.5132 581.928 71.6115 582.699 71.6115C583.652 71.6115 584.499 71.4905 585.24 71.2485C585.981 70.9913 586.609 70.6435 587.123 70.2048C587.638 69.7662 588.023 69.2444 588.281 68.6394C588.553 68.0343 588.689 67.3688 588.689 66.6428C588.689 65.8714 588.53 65.2437 588.212 64.7597C587.91 64.2606 587.486 63.8597 586.942 63.5572C586.397 63.2547 585.762 63.0354 585.036 62.8993C584.31 62.748 583.531 62.627 582.699 62.5363C582.064 62.4758 581.383 62.4001 580.657 62.3094C579.931 62.2186 579.205 62.0825 578.479 61.901C577.753 61.7195 577.05 61.4775 576.369 61.175C575.704 60.8725 575.114 60.4868 574.6 60.0179C574.085 59.549 573.669 58.9818 573.352 58.3163C573.049 57.6356 572.898 56.834 572.898 55.9113C572.898 54.8223 573.117 53.8694 573.556 53.0526C573.995 52.2359 574.569 51.5325 575.28 50.9426C576.006 50.3528 576.838 49.8687 577.776 49.4906C578.714 49.1125 579.674 48.8175 580.657 48.6058C581.656 48.3789 582.639 48.2201 583.607 48.1293C584.59 48.0386 585.482 47.9932 586.284 47.9932C587.706 47.9932 588.946 48.0688 590.005 48.2201C591.079 48.3562 591.979 48.4243 592.705 48.4243C592.553 48.9537 592.448 49.4679 592.387 49.9671C592.342 50.4511 592.319 50.8821 592.319 51.2603C592.319 51.7443 592.357 52.2132 592.432 52.6669C592.523 53.1056 592.644 53.5669 592.795 54.0509L592.001 54.0963C591.729 53.461 591.464 52.8787 591.207 52.3493C590.965 51.8048 590.587 51.3435 590.073 50.9653C589.574 50.5721 588.87 50.2696 587.963 50.0578C587.055 49.8309 585.8 49.7175 584.197 49.7175C583.682 49.7175 583.145 49.8082 582.586 49.9897C582.026 50.1561 581.512 50.4208 581.043 50.7838C580.589 51.1317 580.211 51.5703 579.909 52.0997C579.606 52.6291 579.455 53.2493 579.455 53.9602C579.455 54.8979 579.659 55.6391 580.067 56.1836C580.491 56.7281 580.998 57.1516 581.588 57.4541C582.177 57.7415 582.79 57.9381 583.425 58.044C584.061 58.1348 584.597 58.1953 585.036 58.2255C585.581 58.2709 586.208 58.339 586.919 58.4297C587.645 58.5205 588.379 58.6642 589.12 58.8608C589.876 59.0423 590.617 59.2843 591.343 59.5868C592.069 59.8893 592.72 60.2826 593.295 60.7666C593.869 61.2506 594.331 61.8405 594.679 62.5363C595.026 63.2169 595.2 64.0261 595.2 64.9639C595.2 66.2042 594.974 67.2705 594.52 68.1629C594.066 69.0553 593.446 69.8116 592.659 70.4317C591.888 71.0367 590.98 71.5283 589.937 71.9064C588.908 72.2846 587.819 72.572 586.67 72.7686C585.52 72.9652 584.348 73.0938 583.153 73.1543C581.958 73.2299 580.801 73.2677 579.682 73.2677Z" fill="#D3F8FF"/>
<path d="M597.832 49.8536C598.256 49.0217 598.52 48.1974 598.626 47.3806C598.747 46.5487 598.808 45.8227 598.808 45.2026C598.808 45.0362 598.8 44.8925 598.785 44.7715C598.785 44.6354 598.785 44.5219 598.785 44.4312C598.77 44.3253 598.762 44.227 598.762 44.1362L599.602 44.0001C599.647 44.6807 599.829 45.2631 600.146 45.7471C600.479 46.2311 600.88 46.6395 601.349 46.9722C601.833 47.2899 602.362 47.547 602.937 47.7436C603.512 47.9403 604.079 48.0915 604.639 48.1974C605.198 48.2881 605.713 48.3486 606.181 48.3789C606.665 48.4091 607.059 48.4243 607.361 48.4243H625.103C624.695 49.2713 624.43 50.1032 624.309 50.92C624.188 51.7367 624.128 52.4552 624.128 53.0753C624.128 53.2417 624.128 53.393 624.128 53.5291C624.128 53.6501 624.135 53.756 624.15 53.8467C624.15 53.9526 624.158 54.0509 624.173 54.1417L623.356 54.2778C623.296 53.5972 623.099 53.0148 622.766 52.5308C622.449 52.0468 622.048 51.646 621.564 51.3283C621.095 50.9956 620.573 50.7309 619.998 50.5343C619.424 50.3376 618.856 50.1939 618.297 50.1032C617.752 49.9973 617.238 49.9292 616.754 49.899C616.27 49.8687 615.884 49.8536 615.597 49.8536H615.166C613.729 49.9292 612.443 50.2847 611.309 50.92C610.19 51.5401 609.237 52.3644 608.45 53.393C607.679 54.4064 607.081 55.571 606.658 56.8869C606.249 58.2028 606.038 59.5792 606.023 61.0162C606.023 62.4531 606.144 63.837 606.386 65.1681C606.628 66.484 607.013 67.6486 607.543 68.662C608.072 69.6754 608.768 70.4846 609.63 71.0897C610.492 71.6796 611.536 71.9745 612.761 71.9745C613.653 71.9745 614.425 71.8308 615.075 71.5434C615.726 71.256 616.285 70.8628 616.754 70.3636C617.223 69.8494 617.624 69.2519 617.957 68.5713C618.289 67.8906 618.584 67.1495 618.841 66.3479L624.173 68.1629C623.629 68.9343 623.001 69.6452 622.29 70.2956C621.594 70.946 620.785 71.5132 619.862 71.9972C618.955 72.4661 617.926 72.8366 616.777 73.1089C615.627 73.3812 614.334 73.5173 612.897 73.5173C611.369 73.5173 609.97 73.3509 608.7 73.0182C607.444 72.6854 606.31 72.2241 605.297 71.6342C604.298 71.0443 603.421 70.3561 602.665 69.5696C601.924 68.7679 601.303 67.9058 600.804 66.9831C600.305 66.0605 599.935 65.1 599.693 64.1017C599.451 63.1035 599.33 62.1052 599.33 61.1069C599.33 59.8364 599.519 58.6339 599.897 57.4995C600.275 56.35 600.819 55.2988 601.53 54.3459C602.256 53.3778 603.149 52.5157 604.208 51.7594C605.266 51.0031 606.476 50.3679 607.838 49.8536H597.832Z" fill="#D3F8FF"/>
</g>
<defs>
<clipPath id="clip0_21_2">
<rect width="1280" height="3704" fill="white"/>
</clipPath>
</defs>
</svg>
